<?xml version="1.0" standalone="no"?>
<!DOCTYPE svg PUBLIC "-//W3C//DTD SVG 1.1//EN" "http://www.w3.org/Graphics/SVG/1.1/DTD/svg11.dtd" >
<svg xmlns="http://www.w3.org/2000/svg" xmlns:xlink="http://www.w3.org/1999/xlink" version="1.1">
<metadata>
Created by FontForge 20170910 at Thu May 31 13:50:47 2012
 By Jimmy Wärting
2012 Iconian Fonts - www.iconian.com
</metadata>
<defs>
<font id="WoodgodCondensed" horiz-adv-x="429" >
  <font-face 
    font-family="Woodgod Condensed"
    font-weight="400"
    font-stretch="condensed"
    units-per-em="1000"
    panose-1="0 0 0 0 0 0 0 0 0 0"
    ascent="800"
    descent="-200"
    x-height="514"
    cap-height="646"
    bbox="-194 -192 1288 834"
    underline-thickness="50"
    underline-position="-125"
    unicode-range="U+0020-2122"
  />
<missing-glyph horiz-adv-x="400" 
 />
    <glyph glyph-name=".notdef" horiz-adv-x="400" 
 />
    <glyph glyph-name=".null" horiz-adv-x="0" 
 />
    <glyph glyph-name="nonmarkingreturn" horiz-adv-x="400" 
 />
    <glyph glyph-name="space" unicode=" " horiz-adv-x="237" 
 />
    <glyph glyph-name="space" unicode="&#xa0;" horiz-adv-x="237" 
 />
    <glyph glyph-name="FL0021h" unicode="!" horiz-adv-x="110" 
d="M12 207l24 -50h2q3 0 7 -0.5t11 -0.5q21 0 27.5 10t6.5 21q0 5 -0.5 10t-2.5 10l3 268q5 5 5.5 14.5t3.5 14.5l1 3.5t1 4.5l-2 7q-3 1 -9.5 4.5t-13.5 7t-13.5 6t-9.5 2.5h-14q-3 -2 -8.5 -4.5t-11.5 -5t-11 -4.5t-6 -3v-6q0 -25 4 -52t9.5 -54.5t9.5 -56t4 -56.5v-10
q0 -14 -2.5 -28t-5.5 -25t-5.5 -18.5t-3.5 -8.5zM14 26l28 -26h7q26 0 37.5 21t11.5 55l1 9q0 8 -7 16t-34 16q-11 0 -19.5 -3t-15.5 -11t-10 -23.5t-3 -29.5q0 -15 4 -24z" />
    <glyph glyph-name="FL0022h" unicode="&#x22;" horiz-adv-x="173" 
d="M90 463l9 -75q17 14 28 36t25 64q1 11 1.5 20t0.5 17q0 25 -6 45q-2 5 -4.5 11t-6.5 11q-17 -8 -24 -24.5t-14 -35.5l-7 -20zM14 463l10 -75q17 14 28 36t25 64q1 11 1 20v17q0 13 -1 24t-4 21q-2 5 -4.5 11t-6.5 11q-17 -8 -24 -24.5t-14 -35.5l-7 -20z" />
    <glyph glyph-name="FL0023h" unicode="#" horiz-adv-x="374" 
d="M54 374l35 1q-5 38 -9.5 75.5t-4.5 71.5q0 2 0.5 4l0.5 2q2 2 11.5 5.5t16.5 8.5h14q7 0 16 -13t10 -51v-100h58h8q5 0 8 -1q-5 37 -9 73t-4 68q0 2 0.5 4l0.5 2q2 2 11.5 5.5t16.5 8.5h13q8 0 18 -7.5t17 -10.5l1 -7q0 -1 -0.5 -4.5l-0.5 -3.5q-3 -5 -3.5 -15.5
t-4.5 -15.5v-100h58q9 0 16.5 -1t8.5 -1l12 -15q-3 -7 -12.5 -12t-20.5 -8.5t-21.5 -6t-16.5 -4.5q0 -1 -2 -1t-2 1h-20v-119h55q9 0 16.5 -1t8.5 -1l12 -15q-3 -7 -12.5 -12t-20.5 -8.5t-21.5 -6t-16.5 -4.5q-1 -1 -2 -1q-2 0 -3 1h-16v-112q4 0 6 -9.5t5 -12.5l0.5 -3.5
t0.5 -4.5q0 -14 -4.5 -17.5t-15.5 -3.5h-13q-7 0 -11.5 0.5t-7.5 0.5h-1q-7 0 -13 -0.5t-8 -0.5l-14 15l11 36q0 1 1.5 12t3.5 27.5t4 36t3 36.5h-55l-10 4h-12v-112q5 0 6.5 -9.5t4.5 -12.5l1 -3.5t1 -4.5q0 -14 -5 -17.5t-16 -3.5h-13q-7 0 -11 0.5t-7 0.5h-2
q-3 0 -6.5 2.5t-5.5 17.5t-2 48t2 94h-54l-30 12q0 9 6 15.5t13.5 10t14.5 5.5t9 2h43v82q1 2 1 10l-1 30h-53l-30 12q0 9 6 15.5t13.5 10t15 5t9.5 1.5zM170 326l-11 4h-15v-119h55q7 0 13.5 -1t9.5 -1v77q1 2 1 10l-1 30h-52z" />
    <glyph glyph-name="FL0024h" unicode="$" horiz-adv-x="301" 
d="M9 32q21 20 34.5 26.5t34.5 6.5q10 0 18.5 -3t16.5 -7t16.5 -7t19.5 -3h6q5 0 7 1q0 15 0.5 42.5t0.5 51.5v129q-16 13 -32 25.5t-29 27t-21.5 33t-8.5 43.5q0 56 25 84t60 39v168q2 2 7.5 5.5t9.5 8.5h9q5 0 11 -7.5t11 -9.5l1 -7q0 -1 -0.5 -4.5l-0.5 -3.5q-2 -2 -2 -6
v-9q0 -13 -1 -15v-114q3 1 8 1h10h69l-2 -22q0 -4 -1.5 -13t-3 -19t-4 -18.5t-3.5 -12.5l-6 -2q-2 0 -4.5 1l-2.5 1l-51 47l-9 2v-172q16 -12 31.5 -26.5t28 -33t20 -42.5t7.5 -57q0 -60 -24.5 -93t-60.5 -50q1 -14 2.5 -37.5t3 -46t3 -39t1.5 -17.5l0.5 -3.5t0.5 -4.5
q0 -14 -2.5 -17t-10.5 -3h-8q-5 0 -7.5 0.5t-4.5 0.5q-5 0 -8.5 -0.5t-5.5 -0.5l-6 14v141q-17 -4 -33 -5t-31 -1q-8 0 -16.5 -0.5t-19.5 -0.5q-15 0 -29 3t-24 14l-0.5 3.5t-0.5 5.5zM202 228v-161q24 28 24 84q0 25 -6.5 43.5t-17.5 33.5zM160 476q-11 -10 -18.5 -24.5
t-7.5 -32.5q0 -21 7.5 -36t18.5 -29v122z" />
    <glyph glyph-name="FL0025h" unicode="%" horiz-adv-x="434" 
d="M70 64l-40 -49l14 -15q1 0 5.5 -0.5t10.5 -1t11.5 -1t8.5 -0.5h2q3 0 7 -0.5t11 -0.5q9 0 19 1t19 4t15 8.5t6 14.5q0 1 -0.5 4.5l-0.5 3.5q-3 5 -12 16t-14 16l241 426q11 5 21 12t16 19h-113q-3 0 -8.5 -5t-5.5 -10l14 -32q-2 1 -11.5 -23t-34 -74.5t-68 -128.5
t-113.5 -184zM183 288q5 3 10.5 13.5t10.5 22.5t8.5 24t3.5 18v21q1 1 1 6q0 29 -7 50.5t-20 37.5t-30 28.5t-38 24.5h-4q-48 0 -79.5 -35t-31.5 -96q0 -65 34 -102t83 -37q17 0 31 6.5t29 17.5h-1zM178 395q0 -18 -5 -35.5t-14 -31.5t-21 -23t-27 -9t-27.5 8.5t-20.5 22.5
t-12.5 31.5t-4.5 36.5q0 20 5.5 38t15.5 31.5t23 21.5t28 8q16 0 27.5 -8.5t19 -22.5t10.5 -32t3 -36zM390 10q5 3 10.5 13.5t10.5 22.5t8.5 24t3.5 18v21q1 1 1 6q0 29 -7 50.5t-20 37.5t-30 28.5t-38 24.5h-3q-48 0 -80 -35t-32 -96q0 -65 34 -102t83 -37q17 0 31 6.5
t29 17.5h-1zM386 117q0 -18 -5 -35.5t-14 -31.5t-21.5 -23t-27.5 -9t-27.5 8.5t-20.5 22.5t-12.5 31.5t-4.5 36.5q0 40 21 69.5t52 29.5q16 0 27.5 -8.5t19 -22.5t10.5 -32t3 -36z" />
    <glyph glyph-name="FL0026h" unicode="&#x26;" horiz-adv-x="370" 
d="M131 313l59 6h15h17q5 0 9.5 0.5t9.5 1.5h93q9 0 16.5 -1l7.5 -1l12 -15q-3 -8 -15 -13t-27 -8.5t-29 -6t-21 -4.5q6 -8 15.5 -16t19 -16.5t17 -16.5t9.5 -14l8 -20q2 -8 2 -11q0 -9 -1.5 -20t-1.5 -17q-7 -54 -35.5 -81t-64.5 -36q-13 -5 -25 -5h-6q-13 0 -26 3
q-7 1 -13 2t-11 4q-25 6 -52.5 18t-50.5 31.5t-38 46t-15 61.5q0 12 1 15q3 28 12 44t35 34q-6 4 -12.5 15t-12.5 24.5t-10.5 26.5t-6.5 22v4q0 8 0.5 24t1.5 24q5 49 24 76t53 38q7 5 15 6.5t17 1.5q5 0 10.5 -0.5t12.5 -1.5l21 -3q17 -3 36 -9t35 -13.5t26.5 -15
t10.5 -14.5q0 -6 -11 -10.5t-37 -6.5l-108 16q-9 0 -14.5 -11t-9.5 -11q-2 0 -2 1q-5 -8 -8 -16.5t-4 -18.5q-1 -3 -1 -11v-10q0 -18 1 -33.5t6 -27.5t14.5 -20t26.5 -11zM218 247l-114 8l-34 -56q-4 -7 -4 -20q0 -12 4.5 -26.5t12 -27t16.5 -21.5t18 -11q1 0 1 1l95 -14
q5 0 12.5 3t15 6.5t14 6.5t9.5 3h1q1 0 1 -1q12 16 12 35q1 6 1.5 12t0.5 11q0 17 -6.5 32t-16 26.5t-20.5 20t-19 12.5z" />
    <glyph glyph-name="FL0027h" unicode="'" horiz-adv-x="99" 
d="M16 463l10 -75q16 14 27 36t25 64q1 11 1.5 20t0.5 17q0 25 -6 45q-2 5 -4 11t-7 11q-16 -8 -23.5 -24.5t-13.5 -35.5l-8 -20z" />
    <glyph glyph-name="FL0028h" unicode="(" horiz-adv-x="244" 
d="M10 248q0 -59 11.5 -114t35 -97.5t59 -68t82.5 -25.5h10q21 0 25.5 5.5t4.5 10.5q0 6 -4 10.5t-9 4.5q-33 0 -61 24t-49.5 62.5t-35.5 85t-17 91.5v14q0 39 12 82t32.5 79.5t48.5 62t60 30.5q14 2 18.5 11t4.5 19q0 8 -2 14.5t-9 6.5h-1q-47 -8 -86.5 -32.5t-68.5 -64.5
t-45 -93t-16 -118z" />
    <glyph glyph-name="FL0029h" unicode=")" horiz-adv-x="250" 
d="M239 250q0 -65 -16 -121t-44.5 -97.5t-68 -65.5t-86.5 -24l-4 6t-4 10v10q0 7 4 15t14 10q33 4 61 30t48.5 62.5t32 79.5t11.5 82v14q-4 45 -17 91.5t-34 85t-49.5 62.5t-61.5 24q-11 5 -14.5 8.5t-3.5 7.5l1 6q0 5 4.5 7t29.5 2h10q47 0 82 -25.5t58.5 -68t35 -97.5
t11.5 -114z" />
    <glyph glyph-name="FL002Ah" unicode="*" horiz-adv-x="158" 
d="M62 663l9 37q6 0 10.5 -5.5t7.5 -13t4.5 -15.5t2.5 -14l11 13l27 18q8 -10 3.5 -26t-9.5 -26q-2 -5 -3.5 -7.5t-4 -5.5t-5.5 -7.5t-9 -12.5l3 -2q3 -4 8.5 -12.5t12.5 -15.5q6 -8 11 -15.5t5 -8.5v-21q-12 -4 -24 1.5t-23 12.5v-15q0 -11 -0.5 -20.5t-0.5 -10.5l-12 -15
q-12 8 -17 26.5t-10 33.5l-2.5 -2.5t-1.5 -2.5q-7 -8 -12.5 -14t-6.5 -6h-17q-4 16 3 34t12 32q2 2 2 3q0 2 1 3l13 14l-28 36l-14 34q5 7 13 6t15.5 -5t13 -9t7.5 -7q0 -2 4 -5z" />
    <glyph glyph-name="FL002Bh" unicode="+" horiz-adv-x="253" 
d="M113 352l9 37q7 0 12 -7.5t8 -17t4.5 -18t1.5 -11.5q0 -2 0.5 -11t1.5 -20h3q1 0 8 -0.5t15.5 -1.5t16.5 -1.5t12 -0.5q9 0 16.5 -1t8.5 -1l12 -15q-3 -7 -12.5 -12t-20.5 -8.5t-21.5 -6t-16.5 -4.5q-4 -2 -5 -2h-14v-1q0 -5 -1 -16.5t-1 -21.5q0 -11 -0.5 -20.5
t-0.5 -10.5l-12 -15q-6 3 -10 10.5t-7.5 16.5t-6 18t-3.5 16q0 2 -0.5 3.5t-0.5 2.5l1 19l-68 1l-29 12q0 9 6 15.5t13.5 10t14.5 5t9 1.5l6 0.5t14.5 1.5t18 2t16.5 1z" />
    <glyph glyph-name="FL002Ch" unicode="," horiz-adv-x="110" 
d="M17 21l-15 -73q20 5 37.5 19.5t42.5 47.5q9 23 14.5 41.5t5.5 36.5q0 7 -0.5 13.5t-2.5 12.5q-21 0 -34.5 -15t-26.5 -32l-4 -6z" />
    <glyph glyph-name="FL002Dh" unicode="-" horiz-adv-x="209" 
d="M48 255l96 -5q-1 0 5 2q12 5 27 12t22 21l-12 15q-1 0 -8.5 1t-16.5 1q-8 0 -17 1t-14 1q-9 0 -14 -1.5t-19 -1.5q-12 0 -22.5 -1t-12.5 -1t-9.5 -1.5t-15 -5t-13.5 -10t-6 -15.5z" />
    <glyph glyph-name="FL002Eh" unicode="." horiz-adv-x="113" 
d="M14 26l28 -26h7q26 0 37.5 21t11.5 55l1 9q0 8 -7 16t-34 16q-11 0 -19.5 -3t-15.5 -11t-10 -23.5t-3 -29.5q0 -15 4 -24z" />
    <glyph glyph-name="FL002Fh" unicode="/" horiz-adv-x="390" 
d="M0 15l14 -15q1 0 5.5 -0.5t10.5 -1t11.5 -1t8.5 -0.5h1q3 0 7.5 -0.5t11.5 -0.5q9 0 19 1t19 4t15 8.5t6 14.5q0 1 -1 4.5l-1 3.5q-3 5 -12 16t-13 16l240 426q12 5 21.5 12t16.5 19h-114q-3 0 -8 -5t-5 -10l13 -32q-1 1 -10.5 -23t-34.5 -74.5t-68.5 -128.5t-113.5 -184
z" />
    <glyph glyph-name="FL0030h" unicode="0" 
d="M358 260q0 40 -6.5 79t-22 69t-41 48.5t-62.5 18.5q-34 0 -63 -17t-50.5 -46t-33.5 -68t-12 -83q0 -41 10 -80t28.5 -69t45.5 -48.5t61 -18.5q32 0 59 19t46.5 50t30 69.5t10.5 76.5zM358 47q-30 -22 -57.5 -35t-61.5 -13q-48 0 -91 19t-75.5 55t-51 87.5t-18.5 116.5
q0 61 17 109t46.5 82t70.5 52t89 18h5q41 -24 76 -49t60.5 -57.5t40 -75t14.5 -99.5v-9v-48q0 -12 -6.5 -35.5t-16 -47.5t-21 -44t-20.5 -26zM178 229q-4 8 -4 24q0 14 3 29.5t10 23.5t15.5 11t19.5 3q21 -6 26 -10t5 -9l5 -9l4 -13q0 -34 -11.5 -55t-37.5 -21h-7z" />
    <glyph glyph-name="FL0031h" unicode="1" horiz-adv-x="155" 
d="M116 331l-1 -45v-239q7 -6 17.5 -19t10.5 -28h-117l-12 15l25 32l1 16.5t2.5 42.5t3 59t2.5 66.5t2 64t1 52.5v142q-11 5 -21 12t-16 19h113q3 0 8.5 -5t5.5 -10l-14 -32l-12 -126z" />
    <glyph glyph-name="FL0032h" unicode="2" horiz-adv-x="301" 
d="M288 24q0 -2 -0.5 -5.5l-0.5 -3.5q-8 -9 -18.5 -12.5t-22.5 -3.5l-12 -1h-92q-39 0 -65 4.5t-41.5 20.5t-22 46.5t-6.5 83.5v8q1 40 12.5 68t29 48.5t37.5 35.5t36.5 30t28 33t11.5 43q0 16 -6 29.5t-15.5 23t-21.5 15t-23 5.5q-5 0 -8 -1l-3 -1l-51 -47l-2.5 -1t-4.5 -1
l-6 2q-2 4 -4 12.5t-3.5 18.5t-3 19t-1.5 13l-2 22h69q27 0 53.5 -5.5t47.5 -20t34 -40t13 -64.5q0 -30 -10.5 -50.5t-26 -37t-34.5 -31t-36 -32t-30 -40.5t-17 -56q0 -8 -0.5 -14.5t-0.5 -12.5q0 -46 21 -62.5t57 -16.5q11 0 19.5 3t16.5 7t16 7t19 3q21 0 34 -7t35 -26z
" />
    <glyph glyph-name="FL0033h" unicode="3" horiz-adv-x="316" 
d="M170 254l-64 8l8 57q16 1 34 5t33 12t24.5 21t9.5 31q0 15 -4.5 30t-12 27.5t-18 20.5t-23.5 8l-124 -46q-15 5 -19.5 16l-4.5 11l-5 44q12 23 30 28t37 5h22q26 0 58.5 -7.5t60.5 -25t47 -45.5t19 -68q0 -14 -1.5 -25t-6 -20.5t-12 -19t-18.5 -21.5q6 -3 15.5 -13
t19 -22t17 -24.5t10.5 -19.5l1 -6t1.5 -14.5l1 -17t0.5 -13.5q0 -52 -25.5 -84t-63.5 -49t-81 -23t-78 -6q-8 0 -16.5 3.5t-10.5 3.5l2 26q10 8 19.5 13t22.5 5q14 0 31 -7q22 0 46 5.5t44 17.5t32.5 31t12.5 45q0 43 -16.5 73t-54.5 30z" />
    <glyph glyph-name="FL0034h" unicode="4" horiz-adv-x="408" 
d="M297 474q-2 -14 -3.5 -47.5t-3.5 -74.5t-3.5 -83t-2.5 -72q17 2 28 2.5t13 0.5q4 0 13 -1t17 -1q9 0 16.5 -1t8.5 -1l12 -15q-7 -14 -20.5 -20.5t-25.5 -11.5l-3 -1q-2 -1 -5 -4h-55v-2q1 -9 3.5 -24.5t5 -30.5t4 -27t1.5 -13t3.5 -6t7.5 -10.5t8 -10t6 -5.5l0.5 -3
t0.5 -4l-1 -8l-101 15l-1 2.5t-1 4.5t1 5.5t1 4.5q3 5 12 16t13 16v74h-176q-5 -1 -10 -1.5t-10 -0.5h-16q-9 0 -15.5 0.5t-8.5 0.5q0 13 5 19.5t11.5 11.5t14 10t12.5 14l50 78q22 32 36 64t26 60.5t24 53t29.5 42.5t43.5 28t65 10q0 -24 -4 -36.5t-26 -17.5zM132 221
q-7 -13 -7 -22q0 -10 -1 -15q19 2 53.5 5t68.5 5v233q-4 -2 -7.5 -7t-5.5 -9z" />
    <glyph glyph-name="FL0035h" unicode="5" horiz-adv-x="301" 
d="M288 502q0 2 -0.5 5.5l-0.5 3.5q-8 9 -18.5 12.5t-22.5 3.5l-12 1h-219v-143q0 -7 14 -10.5t35.5 -10t46 -20t46 -41t35.5 -73t14 -115.5q0 -16 -13 -30.5t-31 -26t-36.5 -18t-29.5 -6.5q-5 0 -8 1l-3 1l-51 47l-2.5 1t-4.5 1l-6 -2q-2 -4 -4 -12.5t-3.5 -18.5t-3 -19
t-1.5 -13l-2 -22h69q27 0 61 7t63 23t49 42.5t20 65.5q0 73 -14.5 123t-36.5 82t-47.5 49.5t-47.5 25.5t-36.5 10t-14.5 4q0 34 8 43t28 9q8 0 17.5 -0.5t21.5 -0.5q11 0 19.5 -3t16.5 -7t16 -7t19 -3q10 0 18.5 1.5t16 5t15.5 10t19 16.5z" />
    <glyph glyph-name="FL0036h" unicode="6" horiz-adv-x="404" 
d="M11 273q0 66 19.5 113t52 78t75 45.5t89.5 14.5h46q15 0 28.5 -2.5t24.5 -10t17.5 -21.5t6.5 -36l-161 12q-36 0 -63.5 -15.5t-46 -42.5t-28 -63t-9.5 -77q0 -31 8 -61q36 44 70 67.5t66.5 34.5t61.5 13t54 2h6q26 0 46 -24t20 -64q0 -19 -3 -44t-8 -60q-7 -29 -28 -53.5
t-46.5 -42.5t-51 -28t-42.5 -10q-2 0 -3 0.5t-3 0.5q-48 0 -85 22.5t-62 60t-38 87t-13 104.5zM210 257l-117 -96q19 -65 52.5 -90.5t88.5 -25.5h16q3 0 19.5 15t35 38t33 50t14.5 52q0 15 -6.5 27.5t-23.5 22.5q-12 8 -26.5 10t-29.5 2l-34 -1q-13 0 -22 -4z" />
    <glyph glyph-name="FL0037h" unicode="7" horiz-adv-x="399" 
d="M275 454q2 6 6 14l6 12l-99 -8h-127q2 -4 2 -8t-0.5 -8.5t-0.5 -7.5v-18l-6 6q-17 19 -33 41t-16 37l383 17v-22l-27 -26q-1 -3 -20 -38t-52.5 -94t-79 -137.5t-98.5 -168.5l4 -40q0 -7 -14.5 -10t-29.5 -3h-18h-22q-11 0 -18.5 5.5t-7.5 18.5q0 5 1.5 6.5l1.5 1.5
q2 4 11.5 10t12.5 6l101 159q1 1 5.5 8.5t18 33.5t40.5 75.5t75 135.5z" />
    <glyph glyph-name="FL0038h" unicode="8" horiz-adv-x="367" 
d="M226 19q-14 0 -27 3q-7 1 -13 2t-11 4q-25 6 -52.5 18t-50.5 31.5t-38 46t-15 61.5q0 12 1 15q3 28 12 44t35 34q-6 4 -14.5 15.5t-17 25t-15.5 27t-8 21.5v4q0 8 0.5 24t1.5 24q5 49 30.5 75.5t59.5 37.5q8 5 15.5 6.5t16.5 1.5q5 0 10.5 -0.5t12.5 -1.5l22 -3
q25 -4 54.5 -16t55 -31.5t42.5 -48t17 -65.5v-14q-3 -28 -12.5 -43.5t-33.5 -35.5q5 -3 13.5 -14.5t17 -25t15 -27t8.5 -21.5v-4q0 -8 -0.5 -24t-1.5 -24q-7 -54 -35.5 -81t-64.5 -36q-13 -5 -25 -5h-5zM229 247l-115 8l-33 -56q-5 -8 -5 -20t4.5 -26.5t12 -27t16.5 -21.5
t18 -11q1 0 1 1l95 -14q5 0 12.5 3t15 6.5t14 6.5t9.5 3h1q1 0 1 -1q12 16 13 35q1 6 1 12v11q0 35 -14 60t-47 31zM142 313l58 6q15 0 30 3t27.5 9t20.5 16.5t10 25.5l1 10q0 13 -3.5 27t-10 26t-15.5 20t-20 10l-107 16q-5 0 -10.5 -3.5l-11 -7t-10 -7t-7.5 -3.5h-1v1
q-11 -17 -12 -35q-1 -3 -1 -11v-10q0 -35 14 -61t48 -32z" />
    <glyph glyph-name="FL0039h" unicode="9" horiz-adv-x="305" 
d="M267 47q2 -3 6.5 -15.5t5.5 -16.5q1 -1 2 -6t1 -9h-109q0 30 18 32l14 168q-31 3 -65.5 14.5t-64 32.5t-48.5 52t-19 73q0 48 19 77.5t49 46t66 22.5t69 6q3 0 9 0.5t14 0.5q9 0 19.5 -1t19.5 -4t15 -8t6 -14q0 -2 -0.5 -5l-0.5 -3q-3 -6 -13 -17t-13 -15v-411zM191 474
q-2 0 -6 0.5t-7 0.5q-18 0 -38 -11t-37.5 -28t-29 -38.5t-11.5 -42.5q0 -29 15 -47.5t37 -29.5t47 -15t44 -4z" />
    <glyph glyph-name="FL003Ah" unicode=":" horiz-adv-x="113" 
d="M14 26l28 -26h7q26 0 37.5 21t11.5 55l1 9q0 8 -7 16t-34 16q-11 0 -19.5 -3t-15.5 -11t-10 -23.5t-3 -29.5q0 -15 4 -24zM14 312l28 -26h8q26 0 37.5 21t11.5 55l1 9q0 8 -7 16t-34 16q-11 0 -19.5 -3t-15.5 -11t-10 -23.5t-3 -29.5t3 -24z" />
    <glyph glyph-name="FL003Bh" unicode=";" horiz-adv-x="113" 
d="M25 317l25 -24h6q23 0 33 19.5t10 51.5l1 9q0 7 -6.5 14.5t-29.5 15.5q-10 0 -18 -3t-13 -11q-5 -7 -8 -21.5t-3 -27.5q0 -8 1 -13zM17 21l-15 -73q20 5 37.5 19.5t42.5 47.5q9 23 14.5 41.5t5.5 36.5v2q0 7 -0.5 16t-5.5 9q-21 0 -31.5 -5.5t-22.5 -22.5l-8 -26z" />
    <glyph glyph-name="FL003Ch" unicode="&#x3c;" horiz-adv-x="266" 
d="M153 47l49 -50l51 14l-24 36q-1 0 -7.5 13.5t-17.5 34t-24.5 46.5t-27.5 52t-27 50.5t-23 41.5q-3 3 -7 15t-6 17v6q0 21 16 48.5t38 54.5t46 49t40 31l-56 26l-159 -232l126 -222v-1q1 0 1 -1q4 -7 8 -17t4 -12z" />
    <glyph glyph-name="FL003Dh" unicode="=" horiz-adv-x="253" 
d="M53 238l149 4q9 0 16.5 -1l7.5 -1l12 -15q-3 -7 -12 -12t-20 -8.5t-21.5 -6t-16.5 -4.5q-1 -1 -2 -1v0q-2 0 -3 1h-124l-29 12q0 9 6 15.5t13.5 10t14.5 5t9 1.5zM56 353l149 4q9 0 16.5 -1t8.5 -1l12 -15q-3 -7 -12.5 -12t-20.5 -8.5t-21.5 -6t-16.5 -4.5q-1 -1 -2 -1
q-2 0 -3 1h-124l-29 12q0 9 6 15.5t13.5 10t14.5 5t9 1.5z" />
    <glyph glyph-name="FL003Eh" unicode="&#x3e;" horiz-adv-x="266" 
d="M113 481l-50 50l-50 -14l24 -36q0 -1 14.5 -28.5t34.5 -65.5t41.5 -78t35.5 -66q3 -3 7.5 -15t6.5 -17v-6q0 -21 -16 -48.5t-38.5 -54.5t-46 -49t-39.5 -31l56 -26l159 232l-126 222q0 1 -1 1v1q-5 7 -8.5 17t-3.5 12z" />
    <glyph glyph-name="FL003Fh" unicode="?" horiz-adv-x="273" 
d="M11 471l7 47l16 13h92q39 0 65.5 -4.5t42 -20.5t22 -47t6.5 -83v-8q0 -36 -13 -54t-32.5 -26t-42 -8.5t-42 -1.5t-32.5 -6t-13 -21l3 -42v-19q0 -14 -2 -28t-6 -14h-32q-7 0 -11.5 11.5t-7 26.5t-3.5 29.5t-1 20.5v5q0 6 1 17.5t5.5 25t15 26.5t29.5 22l64 15q2 1 12 1
l21 -1q9 0 15 5.5t8 25.5q1 8 1.5 14.5t0.5 12.5q0 46 -21 62.5t-57 16.5zM33 23l25 -23h6q23 0 34 19t11 50l1 8q0 7 -6 14t-31 14q-10 0 -18 -2t-13 -10q-7 -7 -9.5 -21t-2.5 -27q0 -7 0.5 -12t2.5 -10z" />
    <glyph glyph-name="FL0040h" unicode="@" horiz-adv-x="462" 
d="M450 365q0 -118 -30 -180t-98 -62h-10q-19 0 -25 0.5t-11 0.5q-3 0 -7.5 0.5t-18.5 0.5q-49 0 -83 37t-34 102q0 61 31.5 96t79.5 35h3q21 -12 38 -24.5t30 -28.5t20 -37.5t7 -50.5v-6v-21q0 -5 -2.5 -15t-6.5 -20.5t-9 -20.5t-10 -16q27 4 43 18t24.5 37.5t12.5 56
t8 74.5v14q0 78 -40 123.5t-105 53.5q-28 0 -62.5 -24.5t-64.5 -62t-50 -83t-20 -87.5q0 -6 0.5 -12t1.5 -12v-14q3 -45 17 -91.5t35.5 -85t49.5 -62.5t61 -24q5 0 9 -4.5t4 -10.5q0 -5 -4.5 -10.5t-25.5 -5.5h-10q-43 0 -77.5 21t-59 56.5t-38 82t-13.5 98.5v9v38
q3 51 16.5 100.5t36.5 91.5t54 73.5t69 45.5q24 15 42 19.5l18 4.5q46 0 84 -10t64.5 -34.5t41 -67t14.5 -106.5zM304 256q0 18 -3 36t-10.5 32t-19 22.5t-27.5 8.5q-31 0 -52 -29.5t-21 -69.5q0 -19 4.5 -36.5t13 -31.5t20.5 -22.5t28 -8.5q15 0 27 9t21 23t14 31.5t5 35.5
z" />
    <glyph glyph-name="FL0041h" unicode="A" horiz-adv-x="575" 
d="M398 9q22 12 27 28t5 39q0 17 -6.5 46t-16.5 56.5t-20.5 47.5t-19.5 20l-182 -18q-10 -2 -18.5 -17t-15 -35.5t-10 -43t-3.5 -40.5q0 -16 4.5 -24t12 -13.5t15.5 -11t16 -16.5q-3 -4 -15 -11t-17 -7l-151 -8v26q3 2 14 7.5t23 13.5t23.5 17.5t16.5 20.5q5 13 15.5 43.5
t22 64.5t22 65t14.5 45q6 21 12.5 54t15 71t19.5 76.5t26.5 70.5t36.5 52.5t49 22.5l23 -44l9 -27l23.5 -70.5t33 -98t37 -110.5t36 -108t30.5 -90q2 -6 12 -19.5t21 -28t19.5 -25.5l8.5 -11q0 -10 -8 -16.5t-20 -10t-26.5 -5t-26.5 -1.5q-8 0 -14.5 0.5t-9.5 0.5h-4
q-5 0 -11.5 0.5t-14.5 0.5q-7 0 -12 0.5t-6 0.5zM275 532q-24 -52 -43 -111.5t-19 -116.5h142q0 30 -7.5 60.5t-19.5 60t-26 56.5t-27 51z" />
    <glyph glyph-name="FL0042h" unicode="B" horiz-adv-x="382" 
d="M8 30q17 13 26.5 30.5t14 37t5 40t0.5 40.5v81q-1 28 -3 70t-4 84.5t-4 81t-3.5 61t-1.5 24.5l-30 19q14 27 36 33t45 6h25q32 0 70.5 -9t72.5 -29.5t56.5 -54t22.5 -82.5q0 -17 -2 -30t-7.5 -24.5t-14 -23t-21.5 -25.5q7 -3 18.5 -15t23.5 -26.5t21 -29.5t12 -24l1 -7.5
t1.5 -17t1 -20t0.5 -16.5q0 -63 -30.5 -101t-75.5 -58.5t-97 -27.5t-95 -7h-13q-7 0 -14.5 0.5t-14.5 0.5h-6zM130 314v-252q27 0 55.5 7t52.5 21t39 36.5t15 54.5q0 52 -20 88t-66 36zM130 580v-197q19 0 42.5 4t43 14t33 26t13.5 39q0 17 -5 35.5t-14.5 33.5t-22.5 24.5
t-29 9.5z" />
    <glyph glyph-name="FL0043h" unicode="C" horiz-adv-x="461" 
d="M13 298q0 -146 60 -222.5t177 -76.5h12q26 0 53 1t52.5 8.5t48 23.5t39.5 45q-1 4 -5.5 9.5t-9.5 7.5l-3 1.5t-5 1.5q-1 0 -3.5 -1.5l-2.5 -1.5q-32 -16 -59.5 -32.5t-62.5 -16.5q-45 0 -83.5 16t-68 46.5t-48.5 75t-24 101.5v17q0 47 12 94t34.5 85t54 61.5t71.5 23.5
q19 0 33.5 -1t26.5 -8t24.5 -21.5t28.5 -41.5q11 2 14 16t3 29q0 8 -0.5 13.5t-0.5 7.5q0 3 0.5 9t0.5 14q0 14 -3 28.5t-14 18.5h-68q-62 0 -114.5 -21t-90 -62.5t-58.5 -103.5t-21 -144z" />
    <glyph glyph-name="FL0044h" unicode="D" horiz-adv-x="450" 
d="M9 18q0 -4 5.5 -11t10.5 -8h61q63 0 125.5 21t112 64t80 109.5t30.5 158.5q0 39 -10 90t-31 96.5t-52 76.5t-73 31h-243q-5 0 -10.5 -8t-5.5 -13q0 -3 1.5 -8t4 -11t5 -11t5.5 -7v-532q-5 -4 -10.5 -18t-5.5 -20zM116 77q-2 11 -5 37.5t-5.5 56.5t-4 56.5t-1.5 37.5
q0 18 0.5 61.5t2 93t3.5 93t4 61.5q2 14 13.5 16t22.5 2h3q5 0 10 -1t7 -1q45 0 81 -19t61 -53.5t38 -82t13 -103.5q0 -45 -12 -94t-34.5 -89.5t-55.5 -66.5t-74 -26h-6q-4 1 -13 3.5t-18.5 5.5t-18 6t-11.5 6z" />
    <glyph glyph-name="FL0045h" unicode="E" horiz-adv-x="376" 
d="M5 18l16 38v513q-5 5 -9.5 19t-6.5 19v18q12 1 36.5 3t56 4.5t66.5 4.5t66.5 4t57 3.5t37.5 1.5h14q-5 -16 -12 -36.5t-16 -39t-21 -31t-26 -12.5q-5 0 -9.5 1.5t-6.5 3.5l16 37h-168v-189h152l46 38q0 -2 1 -9t1 -12q0 -2 -1 -8.5t-1 -8.5q-5 -14 -14.5 -33.5t-20 -37.5
t-18 -31l-7.5 -13h-16v39l-126 1v-227l186 -1q8 11 19 23t23.5 21.5t25.5 15.5t27 6q0 -15 -6 -39t-16 -47t-22.5 -40t-25.5 -17h-9q-11 0 -33.5 1t-51 2.5t-60.5 4t-60.5 4.5t-51 3.5t-32.5 2.5z" />
    <glyph glyph-name="FL0046h" unicode="F" horiz-adv-x="350" 
d="M25 18q2 -14 12.5 -17t22.5 -3q8 0 15 0.5t10 0.5h9q22 0 42 2.5t41 16.5l-7.5 3.5t-16 9.5t-16 12.5t-7.5 12.5v266h96q0 -9 -2 -13t-2 -7q0 -5 3.5 -8.5t12.5 -9.5q30 27 39.5 59.5t9.5 80.5q-19 0 -29.5 -13.5t-19.5 -30.5h-108v189h152q-2 -2 -4 -7t-4 -11t-4 -11
t-2 -8v-20l6 6q10 10 22.5 24.5t23.5 31.5t18.5 36t7.5 37l-321 -22l-16 -18l30 -38q1 0 2.5 -22.5t3.5 -58.5t4 -81.5t3.5 -92t2.5 -89.5t1 -73v-76q0 -20 -5 -35t-26 -23z" />
    <glyph glyph-name="FL0047h" unicode="G" horiz-adv-x="538" 
d="M14 328q0 79 23 135.5t61.5 93.5t90 54.5t108.5 17.5h54q18 0 34.5 -3t29.5 -12t20.5 -25.5t7.5 -43.5q-27 0 -49 5t-43.5 11.5t-44 11.5t-49.5 5q-43 0 -76.5 -21.5t-56.5 -57.5t-35 -82.5t-12 -95.5q0 -53 16.5 -101.5t44.5 -85t65.5 -58.5t78.5 -22h17q12 0 26 1.5
t26 6t20 12.5t8 20v228h-82q0 11 7 18.5t16 12t17.5 6t11.5 1.5q2 0 14.5 1t26.5 1q18 0 34 1.5t26 1.5q5 0 16 -1.5t20 -1.5q11 0 20 -1t11 -1l14 -18q-4 -9 -12 -15.5t-17 -11t-17.5 -7t-14.5 -4.5v-172q5 -1 10 -7t6 -11v-10q0 -16 -13.5 -30t-35.5 -25.5t-49 -20.5
t-53 -15.5t-49 -10t-36 -3.5q-58 0 -102 26.5t-74 72t-45 105t-15 125.5z" />
    <glyph glyph-name="FL0048h" unicode="H" horiz-adv-x="465" 
d="M0 18l16 -18q2 0 7.5 -0.5t12 -1.5t13 -1.5t10.5 -0.5h3q4 0 8.5 -0.5t12.5 -0.5q11 0 23.5 1t23 5t17.5 10.5t7 17.5q0 1 -0.5 5l-0.5 4q-2 3 -6.5 8.5t-9 11.5t-9 11t-6.5 8v245l212 21v-287q-4 -3 -9.5 -9t-11 -13.5t-9 -16t-3.5 -17.5h140l15 18l-30 38
q-1 0 -2.5 19.5t-3 51t-3 71t-3 80t-2.5 77.5t-1 63v170q13 5 25 14t20 23h-136q-5 0 -11 -6.5t-6 -11.5l17 -38q0 -2 1.5 -21t4 -43.5t4.5 -49t4 -37.5q0 -2 -0.5 -10t-0.5 -11h-211v172q5 6 16 18.5t15 19.5l0.5 4.5t0.5 5.5t-0.5 4.5l-0.5 3.5q-2 5 -8.5 13l-6.5 8
q-10 0 -27 -2.5t-35.5 -7t-35 -12t-24.5 -17.5l31 -57v-473z" />
    <glyph glyph-name="FL0049h" unicode="I" horiz-adv-x="177" 
d="M9 18l16 -18q2 0 7.5 -0.5t12 -1.5t13 -1.5t10.5 -0.5h2q5 0 9.5 -0.5t12.5 -0.5q11 0 23.5 1t23 5t17.5 10.5t7 17.5q0 1 -0.5 5l-0.5 4q-3 4 -15 11t-17 7v513q5 6 16.5 18.5t15.5 19.5l0.5 4.5t0.5 5.5l-1 8q-4 2 -15 5.5t-23 7t-23 6t-15 2.5h-16q-4 -3 -11 -6
l-14 -6t-13 -5.5t-7 -3.5l-0.5 -2.5t-0.5 -4.5q0 -30 5 -62t11.5 -65.5t11.5 -68t5 -67.5v-6q0 -4 -1 -6v-115q0 -17 -2 -45.5t-5 -56t-6 -48t-4 -22.5z" />
    <glyph glyph-name="FL004Ah" unicode="J" horiz-adv-x="202" 
d="M-160 -51q7 -1 14 -1.5t16 -0.5q29 0 66 8.5t69.5 27.5t55 48t22.5 71v435l-31 76q7 9 19.5 14.5t27.5 8.5t30.5 4t29.5 1q9 0 16.5 -1t12.5 -1h3q0 -15 -2.5 -25.5t-14.5 -18.5v-532q-23 -2 -48 -20t-47.5 -40.5t-41.5 -43.5t-29 -29q-22 -17 -47.5 -26.5t-51.5 -14.5
t-52.5 -6t-50.5 -1q0 25 8.5 38t25.5 29z" />
    <glyph glyph-name="FL004Bh" unicode="K" horiz-adv-x="477" 
d="M10 18l16 -18h122q1 0 7 7t8 11l1 4.5t1 6.5q0 4 -1 6.5l-1 2.5q-3 4 -14.5 11t-16.5 7v209q29 -33 56.5 -78.5t58 -87.5t67 -71t84.5 -29q9 0 21.5 3t23.5 9t19 16.5t8 25.5q-42 0 -86.5 28t-83.5 70.5t-68 93.5t-39 97l168 208q3 4 9.5 15.5t13 23.5t13 22.5t9.5 13.5
q-2 14 -13.5 18t-22.5 4h-11q-21 0 -35 -9.5t-22.5 -25t-12.5 -36.5t-5 -44q-5 -10 -22 -32.5t-36.5 -47t-37.5 -45.5t-25 -27q-4 -5 -16 -11.5t-15 -8.5v228l31 37q-4 2 -17 5.5t-28.5 7t-29 6t-17.5 2.5h-13q-5 -3 -12 -6t-14.5 -6t-13.5 -5.5t-8 -3.5v-8v-10q4 -5 15 -12
t16 -7v-532z" />
    <glyph glyph-name="FL004Ch" unicode="L" horiz-adv-x="354" 
d="M6 18q15 -2 51.5 -5t77.5 -6t78.5 -5t52.5 -2h8q16 0 29.5 19t23 45t14.5 52.5t5 41.5q-21 0 -35 -13t-28 -29t-30.5 -29t-40.5 -13h-18q-9 0 -23.5 1t-28.5 3t-24.5 5.5t-10.5 9.5v475q9 6 20 14.5t20 19t15 22t6 23.5h-31l-115 -22l-16 -18l31 -38v-492
q-11 -11 -18.5 -26.5t-12.5 -32.5z" />
    <glyph glyph-name="FL004Dh" unicode="M" horiz-adv-x="654" 
d="M5 18q6 11 14 17.5t16 12t16 12t15 17.5q1 18 5 55t8.5 83.5t9.5 98t9.5 98t8 83.5t5.5 55v6q0 8 -1 15l-1 7h-58q4 21 18.5 33.5t33 21.5t37.5 15.5t32 15.5l4 -20q1 -6 12 -31t23.5 -54t23.5 -54t12 -31l60 -228q2 -9 7 -22t10.5 -25t9.5 -20.5l4 -8.5h16l121 399
q9 28 27 43.5t40 23t45 9t41 1.5h5q0 -18 -3 -29t-9.5 -19t-16.5 -14.5t-23 -14.5q5 -133 16 -258t30 -255q5 -2 9 -8t6 -10l1 -4t1 -5q0 -11 -5.5 -17t-13.5 -9t-17.5 -3.5t-18.5 -0.5h-16q-2 0 -6 -0.5t-11 -0.5q-12 0 -23.5 3.5t-11.5 16.5l16 38v64v23q0 49 -1.5 87.5
t-5.5 77t-9.5 82.5t-14.5 103q-26 -51 -47 -109t-37.5 -119.5t-29.5 -124t-23 -122.5q-3 0 -14.5 -2.5t-16.5 -2.5q-17 0 -23.5 2.5t-9 9t-4 19t-8.5 33.5q-2 5 -11 26.5t-19.5 47t-19.5 48.5t-10 29q-5 13 -14 47.5t-19 73.5t-18 74.5t-10 50.5l-15 19q-2 -5 -4.5 -18.5
t-5 -29t-4.5 -29.5t-2 -19q-2 -12 -4.5 -38.5t-5.5 -60t-6 -71t-6 -71t-5 -60.5t-3 -40q13 -5 25.5 -13t20.5 -25q-22 -14 -41 -16.5t-42 -2.5h-11q-2 0 -8 -0.5t-14 -0.5q-13 0 -24 3t-13 17z" />
    <glyph glyph-name="FL004Eh" unicode="N" horiz-adv-x="506" 
d="M54 178v-8q-2 -11 -5 -29.5t-5.5 -36.5t-4 -32t-1.5 -16t-4.5 -7t-9.5 -11.5t-10.5 -12t-6.5 -7.5l-0.5 -3.5t-0.5 -4.5l1 -10l122 18l1 3t1 5t-1 6.5t-1 5.5q-2 3 -6 8.5t-8.5 11l-9 11t-7.5 8.5v435q5 -2 9.5 -8t6.5 -11l122 -228q5 -8 15.5 -25.5t24 -39.5t28.5 -47
l28.5 -47.5t24 -40.5t15.5 -27q7 -9 19 -14.5t25.5 -8.5t27.5 -4t26 -1q11 0 19 0.5t11 0.5q0 15 -6 23.5t-14.5 14t-17 11.5t-14.5 17q-1 15 -2.5 47.5t-3 73.5t-3 87t-3 87t-2.5 73.5t-1 47.5v46q0 22 6.5 29.5t16 10.5t20 7.5t17.5 20.5q-6 3 -20.5 6t-31.5 6t-32.5 4.5
t-21.5 1.5q-2 0 -8.5 -2t-13.5 -4.5t-13.5 -5.5t-9.5 -6l-1 -4t-1 -5q0 -2 1 -6l1 -4q5 -5 15 -12t15 -7q11 -49 14.5 -92t3.5 -91q0 -18 -0.5 -36t-2.5 -37v-143q-26 39 -52 88.5t-53 101t-56.5 101t-63.5 88t-73.5 62t-86.5 23.5q0 -29 5 -44.5t31 -20.5q1 -14 3 -43.5
t4 -67t3.5 -79t2.5 -79t2 -67t1 -43.5v-12z" />
    <glyph glyph-name="FL004Fh" unicode="O" horiz-adv-x="514" 
d="M82 56q36 -26 68.5 -41.5t73.5 -15.5q58 0 110 23t90 65.5t60.5 104.5t22.5 140q0 73 -20 131.5t-55.5 99t-84.5 62t-107 21.5h-6q-51 -29 -93.5 -60t-72.5 -71.5t-47 -93t-17 -123.5q0 -12 0.5 -30.5t0.5 -21.5v-6q0 -15 7.5 -42.5t19 -56.5t25 -53t25.5 -32zM81 312
q0 49 8 95.5t26.5 82.5t48.5 58t75 22q40 0 75 -20.5t61 -55.5t40.5 -82t14.5 -99q0 -49 -12 -95.5t-34.5 -83t-55 -58.5t-72.5 -22q-39 0 -71 23t-55 60t-36 83t-13 92z" />
    <glyph glyph-name="FL0050h" unicode="P" horiz-adv-x="333" 
d="M37 56q-3 -4 -8 -18t-7 -20q0 -1 -1.5 -7t-1.5 -11h125q0 17 -12.5 27t-23.5 11v208q37 4 74.5 17t67.5 37t49 59.5t19 85.5q0 57 -18.5 93t-48.5 56.5t-68.5 27.5t-78.5 7q-5 0 -11 0.5t-15 0.5q-11 0 -23.5 -1t-23.5 -4.5t-18 -10t-7 -16.5v-10q1 -3 5.5 -9t9.5 -12
t9.5 -11t6.5 -6v-494zM108 569q2 0 6.5 0.5t9.5 0.5q21 0 43.5 -13t42 -34t32 -47t12.5 -51q0 -35 -14.5 -56t-36 -32.5t-47.5 -15.5t-48 -4v252z" />
    <glyph glyph-name="FL0051h" unicode="Q" horiz-adv-x="522" 
d="M6 314q0 61 16.5 117t47.5 99t75 69t99 26q59 0 108.5 -25t85 -68.5t55 -103.5t19.5 -130q0 -54 -17 -98t-38 -76t-38 -51.5t-17 -24.5q0 -16 16.5 -32t42 -30.5t57.5 -27.5t62.5 -23.5t56 -17.5t39.5 -10q17 -4 46 -11t58 -13.5t51.5 -11t26.5 -4.5l15 -1h107
q32 0 45.5 -1t22.5 -1q10 0 18.5 1t27.5 9l43 16q18 7 36.5 17.5t37 20.5t38 17t39.5 7v-25q-1 0 -11.5 -7t-25 -16t-30 -18t-25.5 -14l-14 -8q-33 -18 -54 -29t-37.5 -17t-31.5 -8t-37 -2h-84q-96 0 -175.5 19t-154 47.5t-149.5 62.5t-163 63q-2 0 -3 0.5t-4 0.5
q-2 0 -5 -0.5t-7 -0.5h-87q-45 6 -79 37.5t-57.5 76.5t-35.5 98t-12 102zM82 328q0 -54 11 -103.5t34.5 -87.5t58.5 -60.5t83 -22.5q37 0 67 20.5t52 54t34 75.5t12 86q0 54 -13.5 104.5t-39 89.5t-62.5 62.5t-85 23.5q-37 0 -65 -24t-47.5 -60t-29.5 -78.5t-10 -79.5z" />
    <glyph glyph-name="FL0052h" unicode="R" horiz-adv-x="455" 
d="M56 83v-6q-5 -13 -11 -22.5t-11 -18.5t-8.5 -19t-3.5 -24h32q30 0 64.5 4.5t58.5 20.5l-7.5 3.5t-16 9.5t-16 12.5t-7.5 12.5v172l16 18q14 -16 29.5 -40.5t32.5 -52t35.5 -55t39.5 -49.5t43.5 -35.5t47.5 -13.5q3 0 14 1.5t24 6t24 12t14 18.5q-25 7 -61.5 35
t-70.5 63.5t-58 73.5t-24 65l2 9l7 8q23 25 39 44t26.5 38.5t15 44t4.5 60.5q0 25 -8.5 51t-23 47t-34.5 34.5t-42 13.5h-183l-30 -18l30 -38zM130 588h9q9 0 23.5 -6.5t29 -17t27 -24.5t19.5 -28l24 -60q1 -1 1 -6q0 -15 -16.5 -41t-38 -51.5t-42.5 -45t-31 -22.5
q-2 -2 -5 -2v304z" />
    <glyph glyph-name="FL0053h" unicode="S" horiz-adv-x="355" 
d="M10 29v9q13 12 22.5 19.5t19 12t19 6.5t22.5 2t23 -4t19.5 -8.5t19.5 -8t23 -3.5q51 0 71.5 34.5t20.5 92.5q0 40 -13.5 68t-34 49t-44.5 38.5t-44.5 37t-34 44t-13.5 60.5q0 47 15.5 77.5t41 48t57.5 24t64 6.5h82l-1 -27q-1 -5 -3 -15.5t-4 -22t-4 -22t-4 -15.5l-8 -3
q-2 0 -5 1.5l-3 1.5l-60 56l-4.5 1t-9.5 1q-14 0 -28 -6.5t-25.5 -18t-18.5 -27.5t-7 -35q0 -31 13.5 -52t34.5 -39t44.5 -36t44.5 -42.5t34.5 -58t13.5 -82.5q0 -60 -21 -97.5t-54 -59t-73.5 -29.5t-79.5 -8q-9 0 -19.5 -0.5t-24.5 -0.5q-18 0 -35 3t-29 17v11z" />
    <glyph glyph-name="FL0054h" unicode="T" horiz-adv-x="459" 
d="M199 40l1 513q-26 0 -47 0.5t-33 0.5q-23 0 -42 -13.5t-53 -47.5q-5 0 -10.5 7t-5.5 12q0 11 5.5 30t14.5 37.5t19.5 32t21.5 13.5h382q0 -15 -4 -35t-12 -39t-19.5 -32t-26.5 -13v53h-116v-521q2 0 10.5 -2t17.5 -6.5t16.5 -12t7.5 -17.5h-164z" />
    <glyph glyph-name="FL0055h" unicode="U" horiz-adv-x="544" 
d="M74 532v-418q0 -14 8.5 -31t19.5 -33.5t23 -30t18 -19.5q5 0 14.5 -0.5t22.5 -0.5q14 0 23.5 -1.5t14.5 -1.5q57 0 105 16.5t94 64.5q-2 -4 -2 -10q0 -8 1.5 -18.5t4 -20.5t5.5 -17.5t5 -10.5l8 -0.5t13 -0.5q10 0 25 2t29 8t24 17t10 30h-49v558q-8 0 -28 -1t-40.5 -6
t-36.5 -16t-16 -32v-9q3 -4 14.5 -10.5t16.5 -7.5q3 -5 9.5 -11.5t6.5 -8.5v-360q0 -26 -20.5 -44.5t-47.5 -30.5t-53.5 -17.5t-38.5 -5.5q-13 0 -30 3.5t-32.5 12.5t-26 24t-10.5 38v456l-31 37l-11 -3.5t-25.5 -9t-29.5 -12t-25 -12.5q-2 -2 -14.5 -7.5t-15.5 -11.5
q4 -11 13 -18t19.5 -11.5t20.5 -6t15 -1.5z" />
    <glyph glyph-name="FL0056h" unicode="V" horiz-adv-x="531" 
d="M276 18l16 -18q26 24 46 61.5t35.5 83t27.5 96t21.5 99t18 93.5t17.5 79q4 19 15 29.5t21.5 20t19 21.5t8.5 33q-5 0 -14 0.5t-20 0.5q-23 0 -49.5 -5.5t-40.5 -23.5l-1 -2.5t-1 -7.5q0 -1 1 -5l1 -4q2 -4 6.5 -10.5t9.5 -8.5l-92 -360q-2 -5 -7 -19t-9 -19
q-16 20 -34 51t-36.5 67.5t-35.5 76t-30.5 77t-21.5 70.5t-8 56q0 1 2.5 4l5 6l5 6l2.5 3q2 5 3 19t1 19h-19q-8 0 -28 -2.5t-42 -5.5t-41.5 -6t-26.5 -5v-10q0 -8 5.5 -13.5t13.5 -10t16 -9.5t13 -13z" />
    <glyph glyph-name="FL0057h" unicode="W" horiz-adv-x="759" 
d="M0 618q27 -5 53.5 -45.5t51 -101t47 -133t42 -140t36 -123t28.5 -82.5q2 0 6.5 -0.5t9.5 -0.5q12 0 17 2.5t12 16.5q4 9 12.5 28t19 43.5t22.5 51t22.5 51t19 44t12.5 29.5q2 -1 7 -7.5t6 -11.5l93 -228q2 -4 6 -10.5t9 -7.5l30 38q1 1 13.5 28t30.5 66.5t39.5 85.5
t40.5 85q21 44 33 69.5t18 42t8 29.5t2 34l7 54q0 6 -0.5 21t-0.5 31q0 17 -4 36t-4 26q-5 22 -16.5 42t-27.5 35.5t-34.5 25t-36.5 9.5h-7q-14 -4 -31.5 -16.5t-36 -25.5t-35 -23.5t-26.5 -10.5q-16 0 -30.5 9.5t-29 20.5t-30.5 20.5t-34 9.5q-36 0 -66.5 -13.5t-57 -36.5
t-49.5 -55t-45 -68q0 1 -1 8t-1 11q0 11 3 18t7 13.5t7 14t3 19.5l-140 -7q-5 0 -16 -8.5t-14 -12.5zM181 508q0 41 16 70t40 47t51.5 26t50.5 8h12h16q19 0 21 -2l36 -47h-150l-16 -29q5 -13 12 -17.5t17 -4.5q5 0 8.5 1t7.5 2q2 -2 2.5 -5t2.5 -6q10 -23 23 -51t24 -58
t18.5 -60.5t7.5 -58.5q0 -20 -7.5 -54t-19.5 -66t-27 -55.5t-31 -23.5q-6 0 -16.5 24t-23 61.5t-26 82.5t-24.5 88t-18 77.5t-7 50.5zM471 364q0 39 7.5 68.5t17 55t17 51.5t7.5 58q0 18 -3 42q23 5 49.5 15.5t49.5 10.5q24 0 42 -17.5t25 -66.5l5 -85q0 -18 -6 -51
t-16.5 -72t-23.5 -80t-28 -74.5t-30.5 -54.5t-29.5 -21q-2 0 -4 1t-4 1q-9 20 -20.5 45t-22 53t-19 56t-13.5 54v11zM394 562l45 43q10 -5 13 -18t3 -27v-55q0 -4 -1.5 -12t-4 -17t-5 -16.5l-3.5 -10.5z" />
    <glyph glyph-name="FL0058h" unicode="X" horiz-adv-x="547" 
d="M360 18q3 -4 14 -11t16 -7l152 -8v26l-61 38q0 1 -8 16.5t-21 40.5t-30 56t-33.5 62.5t-32 60.5t-26.5 50q-3 4 -9 18t-8 20v8q0 16 8.5 39t22 47t31 48t36 43t37 30.5t33.5 11.5l-15 18h-124v-9q0 -4 2 -9q1 -1 8.5 -9t7.5 -10q0 -18 -9 -38.5t-22.5 -40t-28.5 -37
t-26 -29.5q-4 -6 -5 -7l-91 152q4 2 8.5 8t5.5 11l1.5 4.5t1.5 5.5l-3 8q-4 2 -17 5.5t-28.5 7t-28.5 6t-17 2.5h-15q-14 0 -23 -7t-9 -22q0 -5 1.5 -7.5l1.5 -2.5q3 -5 14 -12t15 -7l121 -191q3 -1 5.5 -6t4.5 -11t3.5 -11.5t1.5 -8.5v-8q0 -18 -11 -47t-29.5 -62.5
t-41.5 -68.5t-46.5 -63.5t-45.5 -48.5t-38 -24v-20h156q0 9 -4 17.5t-9.5 16.5t-11.5 14.5t-10 10.5q10 20 26 47.5t35 57t39 56.5t38 46q5 -12 20 -39t32 -57t32 -57t21 -37v-2q1 0 1 -1q5 -8 10 -20t5 -15t-4 -9t-9 -12t-10 -11t-7 -6z" />
    <glyph glyph-name="FL0059h" unicode="Y" horiz-adv-x="580" 
d="M269 82q0 63 -2 124.5t-10 118t-24.5 105.5t-45.5 86.5t-73 61.5t-106 30l-2 11q0 1 1 5.5l1 4.5q2 4 6.5 10t9.5 8t17.5 2.5t24.5 0.5h11q41 0 74.5 -15.5t61 -41.5t51.5 -61t47 -75q33 31 59.5 71t55 76t63 61t84.5 25q0 -40 -10 -62.5t-26 -36.5t-37 -22.5
t-42.5 -20.5t-42.5 -30t-37 -50.5t-26 -83.5t-10 -128q0 -33 5.5 -65.5t12.5 -64.5t12.5 -63.5t5.5 -62.5h-128q0 11 3 20.5t6.5 19t6.5 20t3 22.5z" />
    <glyph glyph-name="FL005Ah" unicode="Z" horiz-adv-x="500" 
d="M171 91q-3 -7 -7.5 -16.5t-6.5 -14.5l119 10h152q-2 3 -4.5 8t-5 11t-4 11t-1.5 7v20l12 -12q9 -11 21 -24.5t22.5 -26.5t17.5 -25t7 -20l-489 -27v26l62 38q0 4 23 46t63 113t95 165t119 202l-145 -13h-153q2 -2 4.5 -7t5 -11t4 -11t2.5 -8v-20l-10 9q-10 10 -22 24
t-22.5 30t-18 32.5t-7.5 32.5h394l1 -4q17 5 29.5 7.5t17.5 2.5h16q12 0 21.5 -7t9.5 -22q0 -5 -1.5 -7.5l-1.5 -2.5q-3 -5 -14.5 -12t-14.5 -7l-122 -191q-2 -1 -6.5 -10t-21 -40t-49 -91t-90.5 -162z" />
    <glyph glyph-name="FL005Bh" unicode="[" horiz-adv-x="293" 
d="M11 360l227 -360l40 28q1 0 -7.5 17.5t-22.5 45.5t-32 63l-36 70t-34.5 66.5t-27.5 51.5q-3 4 -8.5 18t-7.5 20v8q0 16 8 40t21 50.5t30 52.5t35 46.5t36 33.5t33 13l-15 30l-101 -62q-5 -3 -16.5 -24t-28.5 -53t-40.5 -72.5t-52.5 -82.5z" />
    <glyph glyph-name="FL005Ch" unicode="\" horiz-adv-x="390" 
d="M379 15l-13 -15q-3 0 -16.5 -1.5t-19.5 -1.5h-2q-3 0 -7.5 -0.5t-10.5 -0.5q-9 0 -19.5 1t-19.5 4t-15 8.5t-6 14.5q0 1 1 4.5l1 3.5q3 5 12 16t14 16l-241 426q-11 5 -21 12t-17 19h114q3 0 8 -5t5 -10l-13 -32q1 1 10.5 -23t34.5 -74.5t68.5 -128.5t113.5 -184z" />
    <glyph glyph-name="FL005Dh" unicode="]" horiz-adv-x="293" 
d="M278 294l-226 360l-40 -28q-1 -1 7.5 -18.5t22.5 -45.5t31.5 -62.5t35.5 -69.5t34.5 -66t27.5 -52q4 -5 9 -18.5t8 -19.5v-8q0 -17 -8 -40.5t-21 -50t-30 -52.5t-35 -46.5t-36 -33.5t-33 -13l15 -30l101 62q5 3 16.5 24t28.5 53t40 72.5t52 82.5z" />
    <glyph glyph-name="W" unicode="^" horiz-adv-x="547" 
d="M1 521q0 -18 10 -40.5t23 -45.5t25.5 -45.5t18.5 -41.5l89 -301q5 -12 10 -25.5t16 -21.5q26 20 40.5 54.5t21.5 72.5h14q4 -14 10 -32t14 -36.5t17.5 -34t21.5 -24.5l2.5 -0.5t4.5 -0.5q11 0 21 32.5t21.5 82.5t25.5 110.5t33 117t45 101t62 63.5q-3 14 -11 16t-16 2h-3
q-26 0 -47.5 -5t-48.5 -13l-1 -8q0 -2 0.5 -5l0.5 -3q2 -3 11.5 -9.5t13.5 -6.5l-51 -174q-5 -15 -10 -37t-10.5 -46.5t-13 -48t-16.5 -41.5q-6 10 -12 28t-12 37.5t-10 36t-5 24.5v15q3 12 10.5 41.5t15.5 62.5t15 62t10 40q7 14 17 20.5t21 11.5q-2 11 -12.5 15t-20.5 4
q-7 0 -11 -0.5t-6 -0.5t-6 0.5t-11 0.5q-11 0 -21.5 -4t-12.5 -15l25 -16l-38 -142l-3 6q-9 17 -16 30t-11.5 25.5t-6.5 25.5t-2 31v11q0 10 2 18t11 11q-2 11 -11.5 15t-20.5 4q-7 0 -11.5 -0.5t-6.5 -0.5h-32q-16 0 -31 -18l25 -32q1 -1 8.5 -25t17.5 -56.5t20.5 -67.5
t16.5 -57l14 -63v-8q0 -21 -7.5 -42t-15.5 -38l-3 -7q-22 94 -53.5 186.5t-60.5 177.5l-1 8q0 1 0.5 4.5l0.5 3.5l13 16q1 5 1.5 8.5t0.5 6.5h-118z" />
    <glyph glyph-name="FL005Fh" unicode="_" horiz-adv-x="222" 
d="M26 -11l111 -4q-1 0 5 2t18 5t25 7t24.5 9.5t14.5 12.5l-12 15q-1 0 -8.5 1t-16.5 1h-13q-10 0 -20.5 0.5t-19.5 0.5h-11q-9 0 -14 -1.5t-19 -1.5q-6 0 -14.5 -0.5t-16 -1t-13.5 -1t-7 -0.5q-2 0 -9 -1.5t-14.5 -5t-13.5 -10t-6 -15.5z" />
    <glyph glyph-name="FL0060h" unicode="`" horiz-adv-x="113" 
d="M103 403l-10 75l-15 45l-12 16q-12 15 -23.5 27.5t-28.5 13.5q-3 -7 -3 -14q0 -6 -2 -11q0 -24 7 -45q2 -8 4.5 -16.5t6.5 -17.5q23 -35 40 -50.5t36 -22.5z" />
    <glyph glyph-name="a" unicode="a" horiz-adv-x="488" 
d="M337 1l13 -17h4q5 0 11 -0.5t11 -0.5h10h4q2 0 7.5 -0.5t12.5 -0.5q10 0 22 1t22 4t17 8.5t7 13.5l-8 9t-17 21t-17.5 23.5t-9.5 16.5q-11 31 -26 74.5t-30.5 90t-31 92t-28 81.5t-20.5 58.5l-8 22.5l-28 41q-18 0 -33 -17t-27 -44t-22 -60t-17.5 -66t-13.5 -61.5
t-11 -45.5q-4 -12 -12 -37t-17 -53t-17 -53.5t-12 -36.5q-4 -9 -13 -17t-19.5 -14.5t-19.5 -11t-12 -6.5v-22l126 7q5 0 14 6t12 9q-6 9 -13 13.5t-13 9t-10 11t-4 20.5q0 15 2.5 33.5t7 35.5t11.5 29t15 14l152 15q7 0 16.5 -16.5t18 -39t14.5 -46.5t6 -38
q0 -19 -3.5 -32.5t-22.5 -23.5zM231 435q11 -20 23 -42.5t21.5 -46.5t16 -49.5t6.5 -51.5h-119q0 48 16.5 98t35.5 92z" />
    <glyph glyph-name="b" unicode="b" horiz-adv-x="316" 
d="M4 25q14 11 22 25.5t11.5 30.5t4 33t0.5 34v68q-2 30 -3.5 75.5t-3.5 88t-3.5 73t-2.5 30.5l-25 16q12 23 30 28t37 5h22q26 0 58.5 -7.5t60.5 -25t47 -45.5t19 -68q0 -14 -1.5 -25t-6 -20.5t-12 -19t-18.5 -21.5q6 -3 15.5 -13t19 -22t17 -24.5t10.5 -19.5l1 -6
t1.5 -14.5l1 -17t0.5 -13.5q0 -52 -25.5 -84t-63.5 -49t-81 -23t-78 -6h-11q-7 0 -13 0.5t-11 0.5h-5zM106 262v-210q22 0 46 5.5t44 17.5t32.5 31t12.5 45q0 43 -16.5 73t-54.5 30zM106 483v-164q16 0 35 3.5t35.5 12t27.5 21.5t11 32q0 15 -4.5 30t-12 27.5t-18 20.5
t-23.5 8z" />
    <glyph glyph-name="c" unicode="c" horiz-adv-x="385" 
d="M10 248q0 -121 50.5 -185t147.5 -64h10q22 0 44.5 1t43.5 7t39.5 19.5t33.5 37.5q-1 3 -5.5 8t-7.5 6l-2 1.5t-4 1.5q-1 0 -3.5 -1.5l-2.5 -1.5q-27 -12 -48.5 -25t-51.5 -13q-38 0 -70 13t-56.5 38.5t-40 62.5t-19.5 85v14q0 39 10.5 78t29.5 70t45.5 50.5t59.5 19.5
q16 0 27.5 -1t21 -6.5t19.5 -18t23 -34.5q9 2 11.5 13.5t2.5 23.5v18v19q0 12 -2.5 24t-11.5 15h-57q-51 0 -94.5 -17.5t-75 -52t-49.5 -86t-18 -120.5z" />
    <glyph glyph-name="d" unicode="d" horiz-adv-x="374" 
d="M7 15q0 -3 4.5 -9t9.5 -7h50q53 0 105 17.5t93.5 53.5t67 91.5t25.5 131.5q0 33 -8.5 75.5t-26 80t-43.5 63.5t-61 26h-202q-5 0 -9.5 -6.5t-4.5 -10.5q0 -5 4.5 -16t9.5 -15v-443q-5 -3 -9.5 -15t-4.5 -17zM97 64q-2 9 -4 31.5t-4.5 47t-4 47t-1.5 31.5q0 10 0.5 30
t1.5 44.5t2.5 52t3 52.5t3 44.5t3.5 29.5q1 12 9 15.5t18 3.5q5 0 8.5 -0.5t5.5 -0.5q38 0 68 -16t50.5 -44.5t31.5 -68t11 -86.5q0 -38 -10 -78.5t-28.5 -74.5t-46 -55.5t-61.5 -21.5h-6q-8 2 -25.5 7.5t-24.5 9.5z" />
    <glyph glyph-name="e" unicode="e" horiz-adv-x="324" 
d="M7 15l14 32v427q-5 5 -8.5 16.5t-5.5 15.5v15q15 1 52.5 4t80 6t81 5t53.5 2h12q-4 -13 -10 -30t-14 -32.5t-17.5 -26t-21.5 -10.5q-9 0 -13 4l13 31h-140v-157h127l39 31q0 -2 0.5 -7t0.5 -10q0 -2 -0.5 -7.5t-0.5 -6.5q-4 -11 -12.5 -27.5t-17 -31.5t-15 -26l-6.5 -11
h-13v32l-96 1v-189l146 -1q14 19 35 37t44 18q0 -12 -5 -32t-13.5 -39.5t-19 -33.5t-20.5 -14h-7q-14 0 -48.5 1.5t-73 4t-73 5t-47.5 4.5z" />
    <glyph glyph-name="f" unicode="f" horiz-adv-x="299" 
d="M21 15q2 -11 10.5 -14t18.5 -3q6 0 12 0.5t8 0.5h8q18 0 35 2t34 14q-1 1 -9.5 5.5t-18.5 12t-10 14.5v221h79q0 -8 -1.5 -11t-1.5 -5q0 -8 13 -15q26 23 33.5 50.5t7.5 65.5q-15 0 -24 -11t-17 -25h-89v157h126q-2 -3 -6.5 -15t-5.5 -16v-16l5 5q8 9 18.5 21t20 25.5
t16 28.5t6.5 32l-268 -18l-14 -15l26 -32q1 0 2 -19t2.5 -49t3 -68t2.5 -76.5t2 -74t1 -60.5v-64q0 -16 -4 -28.5t-21 -19.5z" />
    <glyph glyph-name="g" unicode="g" horiz-adv-x="447" 
d="M11 273q0 66 19.5 113t52 78t75 45.5t89.5 14.5h46q15 0 28.5 -2.5t24.5 -10t17.5 -21.5t6.5 -36q-23 0 -42.5 3.5t-38 7t-38.5 7t-42 3.5q-36 0 -63 -16.5t-45.5 -45t-27.5 -65.5t-9 -78q0 -44 13.5 -84.5t37 -72t54 -50t65.5 -18.5h16q9 0 20.5 1.5t21.5 5t17 10
t7 16.5v190h-69q0 9 6 15.5t13.5 10t14.5 5t9 1.5t13 1t23 1q14 0 27 1t22 1q5 0 14 -1t17 -1q9 0 16.5 -1l7.5 -1l12 -15q-6 -16 -22.5 -21.5t-27.5 -10.5v-143q3 -1 7.5 -6t5.5 -9l0.5 -3t0.5 -5q0 -20 -24.5 -36t-57 -27.5t-65.5 -18t-50 -6.5q-48 0 -85 22.5t-62 60
t-38 87t-13 104.5z" />
    <glyph glyph-name="h" unicode="h" horiz-adv-x="390" 
d="M0 15l14 -15q1 0 5.5 -0.5t10.5 -1t11.5 -1t8.5 -0.5h1q3 0 7.5 -0.5t11.5 -0.5q9 0 19 1t19 4t15 8.5t6 14.5q0 1 -1 4.5l-1 3.5q-3 5 -12 16t-13 16v204l176 18v-239q-6 -6 -17 -19t-11 -28h117l13 15l-26 32l-1 16.5t-2 42.5t-3 59t-3 66.5t-2 64t-1 52.5v142
q12 5 21.5 12t16.5 19h-114q-3 0 -8 -5t-5 -10l13 -32q0 -2 1.5 -17.5t3.5 -36l4 -41t3 -31.5v-17h-176v143q3 5 12.5 15.5t12.5 16.5l1 3.5t1 4.5t-1 4l-1 3q-2 4 -7 10.5t-6 6.5q-8 0 -22.5 -2t-29.5 -6t-28.5 -10t-19.5 -14l25 -48v-394z" />
    <glyph glyph-name="i" unicode="i" horiz-adv-x="152" 
d="M12 15l14 -15q1 0 5.5 -0.5t10.5 -1t11.5 -1t8.5 -0.5h1q3 0 7.5 -0.5t11.5 -0.5q9 0 19 1t19 4t15 8.5t6 14.5q0 1 -1 4.5l-1 3.5q-3 3 -12 9t-13 6v427q3 5 12.5 15.5t12.5 16.5l1 3.5t1 4.5l-2 7l-12 4t-19 6t-19.5 5t-12.5 2h-14q-3 -2 -8.5 -4.5t-11.5 -5
t-10.5 -4.5t-5.5 -3l-0.5 -2t-0.5 -4q0 -25 4 -52t9.5 -54.5t9.5 -56t4 -56.5q0 -8 -1 -10v-96q0 -14 -1.5 -37.5t-4 -46.5t-4.5 -40.5t-3 -18.5z" />
    <glyph glyph-name="j" unicode="j" horiz-adv-x="173" 
d="M-130 -45q6 -1 12 -1.5t13 -0.5q24 0 55 7t58 23t46 40t19 59v363l-26 63q6 7 16.5 12t23 7t25.5 3t24 1q8 0 13.5 -0.5t10.5 -0.5h3q0 -13 -2 -22t-12 -15v-443q-19 -2 -40 -17t-40 -34t-34.5 -36.5t-24.5 -24.5q-38 -27 -82 -33t-86 -6q0 20 7 31t21 25z" />
    <glyph glyph-name="k" unicode="k" horiz-adv-x="397" 
d="M10 15l25 32v443q-4 0 -13 6t-12 10l-0.5 3.5t-0.5 4.5t0.5 4l0.5 3q3 2 17 7.5t22 9.5h11q4 0 14.5 -2t22 -5t22 -6t13.5 -4l-26 -31v-190q3 2 13 7t13 10q7 5 22.5 22.5t32.5 37.5t31.5 39t19.5 27q0 39 14 67.5t48 28.5h9q9 0 18.5 -3t11.5 -15q-2 -3 -7.5 -12
t-11 -19t-11 -19t-7.5 -13l-140 -173q9 -38 33 -80.5t56 -78t69.5 -59t72.5 -23.5q0 -12 -6.5 -21t-16 -14t-20 -7.5t-17.5 -2.5q-40 0 -71 24.5t-57 59t-50 73t-49 65.5v-174q5 0 14 -6t12 -9l1 -2.5t1 -5.5q0 -2 -1 -5.5l-1 -3.5q-2 -3 -7 -9t-6 -6h-96z" />
    <glyph glyph-name="l" unicode="l" horiz-adv-x="299" 
d="M7 15q12 -2 42.5 -4.5t65 -5t65.5 -4t43 -1.5h7q13 0 24.5 16t19 37.5t12 43.5t4.5 35q-17 0 -28.5 -11t-23.5 -24t-25.5 -24t-34.5 -11h-14q-7 0 -17 0.5t-19 2t-15.5 4t-6.5 7.5v396q15 10 25.5 28.5t10.5 38.5q-5 0 -14 -1.5t-10 -1.5l-97 -15l-14 -15l26 -32v-410
q-10 -9 -15.5 -22t-10.5 -27z" />
    <glyph glyph-name="m" unicode="m" horiz-adv-x="547" 
d="M2 15q6 9 13 14.5t13.5 10t13 10t11.5 14.5q1 15 4.5 45.5t7 69.5t8 81.5t8 81.5t7 70t4.5 46v5q0 7 -1 13l-1 6h-48q3 17 15 27.5t27.5 17.5t31 12.5t26.5 13.5l8 -16q0 -5 8 -26t18 -45.5t18.5 -45.5t10.5 -25l50 -190q2 -7 6.5 -17.5t9 -20.5t7.5 -17.5l3 -7.5h13
l101 332q7 24 22 37t33.5 19t37.5 7t34 1h5q0 -29 -10.5 -40.5t-33.5 -23.5q9 -215 39 -427q3 -2 6.5 -7t5.5 -8l1 -3.5t1 -4.5q0 -18 -15.5 -21.5t-30.5 -3.5h-13q-1 0 -5.5 -0.5t-9.5 -0.5q-10 0 -19.5 3t-9.5 14l13 32v53l1 19q0 41 -1.5 73t-4.5 64.5t-8 68.5t-12 86
q-22 -43 -39 -91.5t-31 -99.5t-25 -103t-20 -102q-2 -1 -11.5 -2.5t-13.5 -1.5q-14 0 -19.5 2t-7.5 7.5t-3 16t-7 27.5q-2 4 -10 22.5t-16.5 39.5t-16 40t-8.5 24q-4 11 -11.5 40t-15.5 61.5t-14.5 62t-9.5 41.5l-12 16q-2 -5 -4 -16.5t-4 -24.5t-3.5 -24t-1.5 -15
q-3 -15 -7 -55t-7.5 -86t-6.5 -86.5t-4 -56.5q11 -5 21 -11.5t17 -20.5q-19 -12 -34.5 -14t-34.5 -2h-9q-2 0 -7 -0.5t-12 -0.5q-11 0 -20 3t-11 14z" />
    <glyph glyph-name="n" unicode="n" horiz-adv-x="421" 
d="M46 148v-6q-2 -9 -4 -24.5t-4 -30.5t-3.5 -27t-1.5 -13q0 -2 -3.5 -6.5t-8 -9.5l-9 -10t-5.5 -6l-0.5 -3t-0.5 -4l1 -8l102 15l0.5 2.5t0.5 4.5t-0.5 5.5t-0.5 4.5q-3 5 -12 16t-14 16v363q5 -2 8.5 -7t5.5 -9l101 -190q6 -11 22 -37.5t34 -56.5t34.5 -57t22.5 -38
q6 -8 15.5 -12.5t21 -7t23.5 -3.5t22 -1q9 0 15.5 0.5t9.5 0.5q0 13 -5 19.5t-12 11.5t-14.5 10t-12.5 14q-1 12 -2 39.5t-2.5 61.5t-2.5 72.5t-2.5 72.5t-2 61t-0.5 40v38q0 18 5.5 24.5t13 9t16.5 6t15 17.5q-5 2 -17 4.5t-26 5t-26.5 4t-18.5 1.5q-5 0 -19 -5.5t-19 -9.5
l-0.5 -3.5t-0.5 -4.5q0 -2 0.5 -5l0.5 -3q5 -4 13 -10t12 -6q9 -42 12 -78t3 -74v-30t-2 -31v-119q-22 32 -43.5 73.5t-44 84.5t-47 84t-53 73t-62 51.5t-72.5 19.5q0 -24 4.5 -36.5t26.5 -17.5q1 -11 2 -35.5t2.5 -56t3 -66t2.5 -66t2 -56.5t1 -36v-10z" />
    <glyph glyph-name="o" unicode="o" 
d="M68 47q-10 6 -21.5 26t-21 44t-16 47.5t-6.5 35.5v48q0 60 14 103.5t39.5 77t60.5 59.5t77 50h6q48 0 88.5 -18t70.5 -52t46.5 -82t16.5 -109q0 -65 -18.5 -116.5t-50.5 -87.5t-75 -55t-92 -19q-33 0 -61 13t-57 35zM67 260q0 -38 10.5 -76.5t30 -69.5t46.5 -50t60 -19
t60 18.5t45.5 48.5t28.5 69t10 80q0 44 -12 83t-33.5 68t-50.5 46t-63 17q-37 0 -62.5 -18.5t-41 -48.5t-22 -69t-6.5 -79z" />
    <glyph glyph-name="p" unicode="p" horiz-adv-x="276" 
d="M30 47q-2 -3 -6.5 -15.5t-5.5 -16.5q0 -1 -1.5 -6t-1.5 -9h111q0 14 -10 22.5t-19 9.5v173q31 3 61.5 14t54.5 31t38.5 50t14.5 72q0 48 -15.5 77.5t-41 46t-58 22.5t-65.5 6q-3 0 -8.5 0.5t-13.5 0.5q-9 0 -19.5 -1t-19.5 -4t-15 -8t-6 -14q0 -2 0.5 -5l0.5 -3
q3 -6 12.5 -17t12.5 -15v-411zM97 474q2 0 6 0.5t7 0.5q18 0 36 -11t33 -28t24.5 -38.5t9.5 -42.5q0 -29 -11 -47t-28 -27.5t-37.5 -13t-39.5 -3.5v210z" />
    <glyph glyph-name="q" unicode="q" horiz-adv-x="435" 
d="M6 262q0 51 14 97.5t39.5 82.5t62 57.5t81.5 21.5q49 0 90 -20.5t70.5 -57.5t46 -87t16.5 -108q0 -44 -14.5 -80.5t-31.5 -63.5t-31.5 -43.5t-14.5 -20.5q0 -14 14 -27t35.5 -25t48 -22.5t52 -19.5t46.5 -15t33 -9q14 -3 38.5 -8.5t48.5 -11t43 -9.5t22 -4l12 -1h90
q26 0 37.5 -0.5t19.5 -0.5t14.5 1.5t23.5 6.5l35 13q16 6 31.5 15t31 17t31.5 14t33 6v-21q-1 0 -10 -5.5t-21 -13t-24.5 -15.5t-21.5 -12l-12 -6q-27 -15 -45 -24t-31.5 -14.5t-26.5 -7t-31 -1.5h-69q-80 0 -146 16t-128.5 40t-125.5 52t-136 52l-1.5 0.5t-3.5 0.5t-4 -0.5
t-7 -0.5h-72q-37 5 -65.5 31t-47.5 64t-29 82t-10 85zM69 273q0 -45 9.5 -86.5t28.5 -73t48 -50t69 -18.5q31 0 56.5 17.5t43.5 45t28 63t10 71.5q0 45 -11 87t-32.5 74.5t-53 52t-71.5 19.5q-30 0 -53.5 -20t-39 -50t-24 -65.5t-8.5 -66.5z" />
    <glyph glyph-name="r" unicode="r" horiz-adv-x="374" 
d="M41 69v-5q-4 -11 -9 -18.5t-9.5 -15t-7.5 -16t-3 -20.5h27q25 0 54 3.5t49 17.5q-1 1 -10 5.5t-19 12t-10 14.5v143l13 15q17 -20 37 -54.5t43.5 -68t50.5 -58t59 -24.5q3 0 12 1.5t19.5 5t19.5 10t12 15.5q-21 7 -51 30t-58.5 52t-48.5 60.5t-20 54.5l1 8l6 6
q19 21 32.5 36.5t22 32.5t12.5 37t4 50q0 21 -7 42.5t-19.5 39t-29 29t-34.5 11.5h-152l-25 -15l25 -32zM103 490h7q7 0 19.5 -5.5t24.5 -14.5t22.5 -20t15.5 -23l21 -50q1 -1 1 -5q0 -13 -13.5 -34.5t-31.5 -42.5t-36 -37.5t-26 -19.5q-1 -1 -4 -1v253z" />
    <glyph glyph-name="s" unicode="s" horiz-adv-x="301" 
d="M8 24l1 8q21 20 34.5 26.5t34.5 6.5q10 0 18.5 -3t16.5 -7t16.5 -7t19.5 -3q41 0 59 29t18 77q0 34 -11.5 57t-28.5 40.5t-37 32t-37 30.5t-28.5 36.5t-11.5 50.5q0 39 13 64.5t34 40t47.5 20t53.5 5.5h69l-2 -22q0 -4 -1.5 -13t-3 -19t-4 -18.5t-3.5 -12.5l-6 -2
q-2 0 -4.5 1l-2.5 1l-51 47l-3 1t-8 1q-11 0 -23 -5.5t-21.5 -15t-15.5 -23t-6 -29.5q0 -25 11.5 -43t28.5 -33t37.5 -30t37.5 -35.5t28.5 -48.5t11.5 -68q0 -50 -17.5 -81.5t-45.5 -49.5t-61.5 -24.5t-66.5 -6.5q-8 0 -16.5 -0.5t-19.5 -0.5q-15 0 -29 3t-24 14l-0.5 3.5
t-0.5 5.5z" />
    <glyph glyph-name="t" unicode="t" horiz-adv-x="386" 
d="M162 34l1 425h-64q-19 0 -34 -10t-45 -38q-5 0 -9.5 6t-4.5 10q0 9 4.5 25t12 31.5t16.5 26.5t18 11h319q0 -12 -3.5 -29t-10 -32.5t-16 -26.5t-22.5 -11v41h-98v-431q1 0 8.5 -1.5t15 -5.5t14 -10t6.5 -15h-136z" />
    <glyph glyph-name="u" unicode="u" horiz-adv-x="453" 
d="M60 443v-348q0 -11 7 -25.5t16.5 -28t19 -25t14.5 -16.5q4 0 12 -0.5t19 -0.5t19 -1t13 -1q48 0 87.5 13.5t77.5 53.5q-1 -1 -1 -8t1 -15.5t3 -16.5t4.5 -14.5t4.5 -9.5l6.5 -0.5t10.5 -0.5q9 0 21.5 1.5t24 6.5t20 14.5t8.5 25.5h-41v465q-7 0 -23.5 -0.5t-34 -5
t-30.5 -14t-13 -26.5v-8q3 -3 13 -8.5t13 -6.5q2 -4 7.5 -9t5.5 -7v-300q0 -22 -17 -37.5t-39.5 -25.5t-44.5 -14.5t-32 -4.5q-11 0 -25 3t-27 10.5t-21.5 20t-8.5 31.5v380l-26 31q-2 -1 -15 -5.5t-32 -12t-29 -13.5q-2 -2 -12.5 -6.5t-13.5 -9.5q3 -9 11.5 -15t17.5 -9.5
t17 -5t12 -1.5z" />
    <glyph glyph-name="v" unicode="v" horiz-adv-x="447" 
d="M234 15l14 -15q33 30 54 84.5t35.5 116t25.5 122.5t23 104q4 16 13 25t18 16.5t16 17t7 27.5q-5 0 -12 0.5t-17 0.5q-19 0 -41 -4.5t-34 -19.5l-1 -2t-1 -6q0 -1 1 -4.5l1 -3.5q2 -3 6 -8.5t7 -7.5l-76 -300q-2 -4 -5.5 -15.5t-8.5 -15.5q-20 24 -44 68t-45 93t-35 95
t-14 75q0 2 6.5 8.5t6.5 7.5q2 5 2.5 16.5t0.5 15.5h-16q-6 0 -22.5 -2t-35.5 -4.5t-35.5 -5t-21.5 -4.5v-8q0 -7 4.5 -11.5t11 -8.5t13.5 -8t11 -11z" />
    <glyph glyph-name="w" unicode="w" horiz-adv-x="633" 
d="M-2 515q23 -5 45 -39t42.5 -84.5t39 -110t35 -116t30.5 -102.5t24 -69q2 0 5.5 -0.5t6.5 -0.5q11 0 14.5 2t10.5 14q5 11 18 40t27.5 62t27 62.5t17.5 41.5q2 -1 6 -6.5t5 -9.5l77 -190q2 -3 6 -8.5t7 -6.5l24 32q1 0 11.5 22.5t26 55.5t33.5 71.5t33 71.5q17 36 27 57
t15.5 35t7 25t1.5 28l5 45v44q0 14 -3.5 30t-3.5 21q-4 18 -13.5 35t-22.5 30t-28.5 21t-30.5 8h-6q-11 -3 -26 -13.5t-30.5 -21.5t-29 -20t-22.5 -9q-13 0 -25 8t-24 17t-25.5 17t-28.5 8q-30 0 -56 -11t-48 -30.5t-41 -46t-37 -56.5q0 1 -1 7t-1 9q0 9 2.5 15t6 11t6 11.5
t2.5 16.5l-116 -6q-5 0 -14 -6.5t-12 -10.5zM149 423q0 34 13.5 58t33.5 39t43 22t42 7h9q11 0 20.5 -1t11.5 -1l32 -30l-128 -9l-12 -24q3 -11 9.5 -14.5t14.5 -3.5q4 0 6.5 0.5t6.5 1.5l2 -4t2 -5q9 -19 19.5 -42.5t19.5 -48.5t15.5 -50.5t6.5 -48.5q0 -17 -6 -45t-16 -55
t-23 -46.5t-26 -19.5q-5 0 -14 20t-19.5 51t-21.5 69t-20 73.5t-15 64.5t-6 42zM391 303q0 33 6.5 57.5t14 46t14 42.5t6.5 48q0 18 -3 35q20 5 41.5 13.5t41.5 8.5t34.5 -14t21.5 -56l4 -71q0 -15 -5 -42.5t-13.5 -60t-20 -66.5t-24 -62t-25 -45.5t-24.5 -17.5q-2 0 -3 1
t-3 1q-17 34 -35.5 81t-27.5 92v9zM327 468l37 38q8 -5 11 -16t3 -24v-45q0 -3 -1.5 -10t-3 -14.5t-4 -14t-3.5 -8.5z" />
    <glyph glyph-name="x" unicode="x" horiz-adv-x="455" 
d="M298 15q2 1 6.5 5t8.5 9t7 10t3 8q0 1 -2.5 7.5t-12.5 26t-30.5 56.5t-55.5 100q-15 -16 -31.5 -38.5t-31.5 -47t-28.5 -48t-22.5 -39.5q7 -6 18 -20.5t11 -28.5h-131v17q14 3 32.5 19.5t38.5 40.5t39 53t34 57t24.5 52t9.5 39v7q-2 5 -5 17t-8 14l-101 159q-3 0 -12.5 6
t-11.5 10l-1 1.5t-1 6.5q0 24 26 24h12q3 0 14.5 -2t24 -5t23.5 -6t14 -4l3 -7q0 -1 -1.5 -4.5l-1.5 -3.5q0 -4 -4.5 -9t-7.5 -7l76 -127l4 6q10 10 22.5 24.5t23.5 31t18.5 33.5t7.5 32q0 2 -5.5 8.5t-7.5 7.5q-1 5 -1.5 8.5t-0.5 6.5h103l8 -14q-19 0 -42.5 -21t-44 -50.5
t-34.5 -60.5t-14 -52v-6q2 -5 6.5 -17t7.5 -15q11 -20 27.5 -50.5t33 -62t32 -61t24 -46.5t9.5 -18l51 -32v-22l-127 7q-4 0 -13 6t-12 9z" />
    <glyph glyph-name="y" unicode="y" horiz-adv-x="485" 
d="M224 68q0 79 -5 154.5t-26 136t-65 100.5t-122 48v9v8q2 3 5.5 8t8.5 7q3 2 14.5 2.5t20.5 0.5h9q35 0 63 -13t51 -34.5t42.5 -51t38.5 -62.5q28 25 50 58.5t45.5 63.5t52.5 51t71 21q0 -33 -8.5 -52t-22 -30.5t-30.5 -19t-35 -17t-35.5 -25t-31 -42.5t-21.5 -69.5
t-8 -106.5q0 -27 4.5 -54.5t9.5 -54.5t9.5 -53t4.5 -51h-105q0 18 7.5 33t7.5 35z" />
    <glyph glyph-name="FL007Ah" unicode="z" horiz-adv-x="426" 
d="M147 76q-2 -6 -6 -14l-6 -12l99 8h128q-3 4 -7.5 16t-5.5 15v17l5 -6q8 -9 18.5 -20.5t20 -23t16 -22.5t6.5 -18l-407 -23v22l51 32q1 3 20.5 38t53 94t79 137.5t98.5 168.5l-121 -11h-127q3 -3 7.5 -15t4.5 -16v-16l-5 5q-8 9 -18.5 20.5t-20 25t-16 27.5t-6.5 28h328
l2 -3q12 4 23.5 6t14.5 2h14q10 0 17.5 -5.5t7.5 -18.5q0 -5 -1 -6.5l-1 -1.5q-2 -4 -12 -10t-12 -6l-102 -159q-2 -1 -6 -9t-17.5 -33.5t-40.5 -75.5t-75 -135z" />
    <glyph glyph-name="FL007Bh" unicode="{" horiz-adv-x="270" 
d="M13 298q0 -71 16 -132.5t47 -107t75.5 -71.5t101.5 -26l5 37q-35 0 -66.5 26t-56 67.5t-40.5 92t-20 100.5v17q0 46 6.5 96t22 91t42 67.5t65.5 26.5q33 0 44.5 10t11.5 21t-5.5 19.5t-8.5 8.5q-123 -16 -181.5 -97t-58.5 -246z" />
    <glyph glyph-name="FL007Ch" unicode="|" horiz-adv-x="146" 
d="M42 302l-12 422q0 2 0.5 4l0.5 2q2 2 11.5 5.5t16.5 8.5h14q7 0 17 -7.5t17 -10.5l2 -7q0 -1 -1 -4.5l-1 -3.5q-3 -5 -3 -16q0 -12 -1 -15v-633q1 0 2.5 -12t3.5 -29.5t3.5 -38.5t3.5 -39t3.5 -30.5t2.5 -13.5l0.5 -3.5t0.5 -4.5q0 -14 -4.5 -17.5t-16.5 -3.5h-12
q-7 0 -11.5 0.5t-7.5 0.5h-1q-7 0 -13 -0.5t-8 -0.5l-11 15v177q1 1 1.5 12t1 27t1 35t0.5 36v39v96v10z" />
    <glyph glyph-name="FL007Dh" unicode="}" horiz-adv-x="266" 
d="M253 304q0 71 -16 132.5t-47 107t-75.5 71.5t-101.5 26l-6 -37q35 0 66.5 -26t56.5 -67.5t40.5 -92.5t19.5 -100v-17q0 -47 -6.5 -96.5t-22 -90.5t-41.5 -67.5t-66 -26.5q-33 0 -44.5 -10t-11.5 -21t6 -19.5t9 -8.5q123 16 181.5 97.5t58.5 245.5z" />
    <glyph glyph-name="FL007Eh" unicode="~" horiz-adv-x="274" 
d="M80 334q-10 -6 -14.5 -9t-9.5 -12l-33 -51l-9 -33q2 -7 5.5 -12t11.5 -8q8 0 11.5 1.5t7 5.5t9.5 11.5t20 19.5q5 5 11.5 7t9.5 8q2 -4 5.5 -5.5t8.5 -3.5q10 -9 16 -15.5t10.5 -11t9 -7.5t12.5 -5l23 -3q7 2 17 6t17 12l35 46q6 15 7 21.5t1 11.5q0 2 -0.5 5t-0.5 7v2
l-21 14q-8 0 -11.5 -1.5t-6.5 -5.5t-8.5 -12t-18.5 -20q-4 -5 -11 -7.5t-10 -8.5q-2 3 -6.5 5.5t-9.5 4.5q-14 16 -30.5 30.5t-25.5 14.5h-8z" />
    <glyph glyph-name="FL007Fh" horiz-adv-x="122" 
 />
    <glyph glyph-name="FL20ACh" unicode="&#x20ac;" horiz-adv-x="467" 
d="M68 229l25 1v18q0 14 0.5 26t1.5 23h-58l-30 12q0 9 9.5 15.5t21 11t21.5 7t12 2.5h33q23 91 82 135t144 44h56q9 -3 12 -15t3 -24q0 -7 -0.5 -12t-0.5 -7t0.5 -6.5t0.5 -11.5q0 -12 -3 -23.5t-12 -13.5q-13 22 -22.5 35t-19.5 19.5t-21.5 8t-27.5 1.5q-23 0 -43 -10
t-37 -27.5t-30.5 -40.5t-22.5 -49l122 5q9 0 16.5 -1t8.5 -1l12 -15q-3 -7 -12.5 -12t-20.5 -8.5t-21.5 -6t-16.5 -4.5q0 -1 -2 -1t-2 1l-97 -4q-2 -13 -3 -25.5t-1 -24.5v-19l136 6q9 0 16.5 -1t8.5 -1l12 -15q-3 -7 -12.5 -12t-20.5 -8.5t-21.5 -6t-16.5 -4.5q-1 -1 -2 -1
q-2 0 -3 1l-89 -4q19 -73 68.5 -113.5t114.5 -40.5q15 0 27.5 5t24.5 12t23.5 15t25.5 14l5 3q2 0 4.5 -1.5l2.5 -1.5q3 -1 7.5 -6t5.5 -8q-15 -24 -34 -37.5t-40 -19.5t-43.5 -7t-43.5 -1h-11q-82 0 -130.5 47.5t-62.5 135.5h-63l-30 12q0 9 9 16t20.5 11t22 6t12.5 2z" />
    <glyph glyph-name="FL201Ah" unicode="&#x201a;" horiz-adv-x="110" 
d="M17 21l-15 -73q20 5 37.5 19.5t42.5 47.5q9 23 14.5 41.5t5.5 36.5q0 7 -0.5 13.5t-2.5 12.5q-21 0 -34.5 -15t-26.5 -32l-4 -6z" />
    <glyph glyph-name="FL0192h" unicode="&#x192;" horiz-adv-x="625" 
d="M609 374l-12 -105l-17 4l5 110zM599 224l-16 -22l-13 17l15 14zM556 232q-23 0 -62 72v-71l-15 -2l-2 143l57 -91l5 100l17 -8v-143zM462 233l-14 6q-10 34 -24 34q-13 0 -26 -34h-20q6 71 41 143q4 4 15 4q17 0 25 -45zM366 383l-4 -142l-25 -10l10 146zM318 228
q-25 0 -62 69v-68l-16 -5l-2 146l59 -93l3 100l18 -7v-142zM227 328q-9 -100 -39 -100q-9 -3 -17 -3q-28 0 -34 24q0 94 37 126q5 0 5.5 0.5t-0.5 0.5h6q34 0 42 -48zM130 381l-3 -35l-5 2.5t-5 0.5q-15 0 -28 -21q-8 -14 -11.5 -28.5t-3.5 -29.5q0 -29 21 -29q15 0 20 4
l2 -25q-8 -2 -12.5 -4t-9.5 -2q-30 0 -39 63q-1 1 -1 11v8q0 68 75 85zM45 377l-6 -142l-23 -11l10 148zM442 304l-12 49l-20 -49h32zM208 308q0 11 -3 16q-6 19 -19 19q-17 0 -30 -46v-10q0 -35 17 -35q9 0 26 13q9 19 9 43z" />
    <glyph glyph-name="FL201Eh" unicode="&#x201e;" horiz-adv-x="194" 
d="M101 21l-15 -73q20 5 37.5 19.5t42.5 47.5q9 23 14.5 41.5t5.5 36.5q0 7 -0.5 13.5t-2.5 12.5q-21 0 -34.5 -15t-26.5 -32l-4 -6zM18 20l-14 -73q20 5 37 19.5t42 47.5q10 23 15.5 41.5t5.5 36.5q0 14 -3 26q-21 0 -34.5 -15t-26.5 -32l-5 -6z" />
    <glyph glyph-name="FL2026h" unicode="&#x2026;" horiz-adv-x="374" 
d="M275 26l28 -26h7q26 0 38 21t12 55l1 9q0 8 -7 16t-34 16q-11 0 -19.5 -3t-15.5 -11t-10 -23.5t-3 -29.5t3 -24zM142 26l28 -26h8q26 0 37.5 21t11.5 55l1 9q0 8 -7 16t-34 16q-11 0 -19.5 -3t-15.5 -11t-10 -23.5t-3 -29.5t3 -24zM10 26l28 -26h8q26 0 37.5 21t11.5 55
l1 9q0 8 -7 16t-34 16q-11 0 -19.5 -3t-15.5 -11t-10 -23.5t-3 -29.5t3 -24z" />
    <glyph glyph-name="FL2020h" unicode="&#x2020;" horiz-adv-x="245" 
d="M54 370l35 1q-5 38 -9.5 75.5t-4.5 71.5q0 2 0.5 4l0.5 2q2 2 11.5 5.5t16.5 8.5h14q7 0 17 -7.5t17 -10.5l2 -7q0 -1 -1 -4.5l-1 -3.5q-3 -5 -3 -16q0 -10 -5 -15v-100h58q9 0 16.5 -1t8.5 -1l12 -15q-3 -7 -12.5 -12t-20 -8.5t-21 -6t-16.5 -4.5q-1 -1 -3 -1h-1l-1 1
h-20v-279q5 0 6.5 -9.5t4.5 -12.5l1 -3.5t1 -4.5q0 -14 -5 -17.5t-16 -3.5h-13q-7 0 -11 0.5t-7 0.5h-2q-7 0 -12.5 -0.5t-8.5 -0.5l-13 15l10 36q1 1 3.5 18.5t4.5 40.5t4 46.5t2 37.5v96q1 2 1 10l-1 30h-53l-30 12q0 9 6 15.5t13.5 10t15 5t9.5 1.5z" />
    <glyph glyph-name="FL2021h" unicode="&#x2021;" horiz-adv-x="245" 
d="M54 370l35 1q-5 38 -9.5 75.5t-4.5 71.5q0 2 0.5 4l0.5 2q2 2 11.5 5.5t16.5 8.5h14q7 0 17 -7.5t17 -10.5l2 -7q0 -1 -1 -4.5l-1 -3.5q-3 -5 -3 -16q0 -10 -5 -15v-100h58q9 0 16.5 -1t8.5 -1l12 -15q-3 -7 -12.5 -12t-20 -8.5t-21 -6t-16.5 -4.5q-1 -1 -3 -1h-1l-1 1
h-20v-119h55q9 0 16.5 -1t8.5 -1l12 -15q-3 -7 -12.5 -12t-20 -8.5t-21 -6t-16.5 -4.5q-1 -1 -3 -1q-1 0 -2 1h-17v-112q5 0 6.5 -9.5t4.5 -12.5l1 -3.5t1 -4.5q0 -14 -5 -17.5t-16 -3.5h-13q-7 0 -11 0.5t-7 0.5h-2q-7 0 -12.5 -0.5t-8.5 -0.5l-13 15l10 36q1 1 2.5 12
t3.5 27.5t3.5 36t2.5 36.5h-54l-30 12q0 9 6 15.5t13.5 10t14.5 5.5t9 2h43v82q1 2 1 10l-1 30h-53l-30 12q0 9 6 15.5t13.5 10t15 5t9.5 1.5z" />
    <glyph glyph-name="FL02C6h" unicode="&#x2c6;" horiz-adv-x="189" 
d="M163 616q-9 0 -12.5 2t-6.5 7t-8.5 13t-19.5 20q-5 5 -12 8t-12 9q-3 -6 -9.5 -8t-11.5 -7q-14 -12 -19.5 -20t-9.5 -13t-7.5 -7t-12.5 -2l-16 11l9 47l23 39l16 12q11 8 19 14t19 6l13 -2v-2q7 -2 14.5 -4t26.5 -17l24 -48l9 -47z" />
    <glyph glyph-name="FL2030h" unicode="&#x2030;" horiz-adv-x="651" 
d="M70 64l-40 -49l14 -15q1 0 5.5 -0.5t10.5 -1t11.5 -1t8.5 -0.5h2q3 0 7 -0.5t11 -0.5q9 0 19 1t19 4t15 8.5t6 14.5q0 1 -0.5 4.5l-0.5 3.5q-3 5 -12 16t-14 16l241 426q11 5 21 12t16 19h-113q-3 0 -8.5 -5t-5.5 -10l14 -32q-2 1 -11.5 -23t-34 -74.5t-68 -128.5
t-113.5 -184zM183 288q5 3 10.5 13.5t10.5 22.5t8.5 24t3.5 18v21q1 1 1 6q0 29 -7 50.5t-20 37.5t-30 28.5t-38 24.5h-4q-48 0 -79.5 -35t-31.5 -96q0 -65 34 -102t83 -37q17 0 31 6.5t29 17.5h-1zM178 395q0 -18 -5 -35.5t-14 -31.5t-21 -23t-27 -9t-27.5 8.5t-20.5 22.5
t-12.5 31.5t-4.5 36.5q0 20 5.5 38t15.5 31.5t23 21.5t28 8q16 0 27.5 -8.5t19 -22.5t10.5 -32t3 -36zM390 10q5 3 10.5 13.5t10.5 22.5t8.5 24t3.5 18v21q1 1 1 6q0 29 -7 50.5t-20 37.5t-30 28.5t-38 24.5h-3q-48 0 -80 -35t-32 -96q0 -65 34 -102t83 -37q17 0 31 6.5
t29 17.5h-1zM386 117q0 -18 -5 -35.5t-14 -31.5t-21.5 -23t-27.5 -9t-27.5 8.5t-20.5 22.5t-12.5 31.5t-4.5 36.5q0 40 21 69.5t52 29.5q16 0 27.5 -8.5t19 -22.5t10.5 -32t3 -36zM607 9q5 3 10.5 13.5t10.5 22.5t8.5 24t3.5 18v21q1 1 1 6q0 29 -7 50.5t-20 37.5t-30 28.5
t-38 24.5h-4q-48 0 -79.5 -35t-31.5 -96q0 -65 34 -102t83 -37q17 0 31 6.5t29 17.5h-1zM602 116q0 -18 -5 -35.5t-14 -31.5t-21 -23t-27 -9t-27.5 8.5t-20.5 22.5t-12.5 31.5t-4.5 36.5q0 20 5.5 38t15.5 31.5t23 21.5t28 8q16 0 27.5 -8.5t19 -22.5t10.5 -32t3 -36z" />
    <glyph glyph-name="FL0160h" unicode="&#x160;" horiz-adv-x="355" 
d="M10 29v9q13 12 22.5 19.5t19 12t19 6.5t22.5 2t23 -4t19.5 -8.5t19.5 -8t23 -3.5q51 0 71.5 34.5t20.5 92.5q0 40 -13.5 68t-34 49t-44.5 38.5t-44.5 37t-34 44t-13.5 60.5q0 47 15.5 77.5t41 48t57.5 24t64 6.5h82l-1 -27q-1 -5 -3 -15.5t-4 -22t-4 -22t-4 -15.5l-8 -3
q-2 0 -5 1.5l-3 1.5l-60 56l-4.5 1t-9.5 1q-14 0 -28 -6.5t-25.5 -18t-18.5 -27.5t-7 -35q0 -31 13.5 -52t34.5 -39t44.5 -36t44.5 -42.5t34.5 -58t13.5 -82.5q0 -60 -21 -97.5t-54 -59t-73.5 -29.5t-79.5 -8q-9 0 -19.5 -0.5t-24.5 -0.5q-18 0 -35 3t-29 17v11zM135 821
q9 0 12.5 -2t6.5 -7t8.5 -13t19.5 -20q5 -5 12.5 -8t11.5 -9q3 6 10 8t11 7q13 12 19.5 20t10 13t7 7t12.5 2l16 -11l-9 -47l-23 -39l-15 -12q-11 -8 -19 -14t-20 -6l-12 2v2q-8 2 -15 4t-26 17l-25 48l-9 47z" />
    <glyph glyph-name="FL2039h" unicode="&#x2039;" horiz-adv-x="123" 
d="M114 370q0 -12 -1.5 -15.5t-5.5 -7.5t-10.5 -11t-15.5 -25q-5 -6 -7 -15.5t-7 -14.5q5 -4 6.5 -12.5t5.5 -13.5q10 -17 16.5 -24.5t10.5 -12t5.5 -9t1.5 -15.5l-9 -20l-38 11l-31 29l-9 19q-7 14 -11.5 24t-4.5 24l1 16h2q2 9 3.5 18.5t13.5 32.5l38 31l38 11z" />
    <glyph glyph-name="FL0152h" unicode="&#x152;" horiz-adv-x="731" 
d="M9 297q0 82 21 144t58.5 103.5t90 62.5t114.5 21h68l5 -3q14 1 39.5 3t56.5 4.5t64.5 4.5t64 4t54 3.5t35.5 1.5h14q-5 -16 -11.5 -36.5t-16 -39t-21.5 -31t-26 -12.5q-4 0 -9 1.5t-7 3.5l16 37h-168v-189h152l47 38q0 -2 0.5 -9t0.5 -12q0 -2 -0.5 -8.5t-0.5 -8.5
q-5 -14 -15 -33.5t-20 -37.5t-18 -31l-8 -13h-16v39l-126 1v-222q3 -3 3 -5l184 -1q8 11 18.5 23t23 21.5t25.5 15.5t27 6q0 -15 -6 -39t-16 -47t-22.5 -40t-25.5 -17h-8q-14 0 -47.5 2t-73 4.5l-79 5t-64.5 4.5q-30 -14 -63 -16t-65 -2h-12q-116 0 -176.5 77t-60.5 222z
M300 44q22 0 40.5 6.5t35.5 16.5v443q-2 -7 -5 -12t-10 -6q-16 27 -28 42.5t-23.5 23t-25.5 9.5t-33 2q-39 0 -72 -24.5t-57 -63t-37.5 -86.5t-13.5 -95v-17q5 -57 24.5 -101.5t50 -75t70 -46.5t84.5 -16z" />
    <glyph glyph-name="FL017Dh" unicode="&#x17d;" horiz-adv-x="500" 
d="M172 94l-1 -3q-3 -7 -7.5 -16.5t-6.5 -14.5l119 10h152q-2 3 -5 8t-5 11t-3.5 11t-1.5 7v20l12 -12q9 -11 21 -24.5t22.5 -26.5t17.5 -25t7 -20l-489 -27v26l62 38q0 4 23 46t63 113t95 165t119 202l-145 -13h-153q2 -2 4.5 -7t5 -11t4 -11t2.5 -8v-20l-10 9
q-10 10 -22 24t-22.5 30t-18 32.5t-7.5 32.5h394l1 -4q17 5 29.5 7.5t17.5 2.5h16q12 0 21.5 -7t9.5 -22q0 -5 -1.5 -7.5l-1.5 -2.5q-3 -5 -14.5 -12t-14.5 -7l-122 -191q-2 -1 -6.5 -10t-21 -40t-49 -91t-90.5 -162zM182 825q9 0 12 -2t6 -7t8.5 -13t20.5 -20q5 -5 12 -8
t12 -9q3 6 9.5 8t11.5 7q13 12 19 20t9.5 13t7 7t12.5 2l16 -11l-8 -47l-24 -39l-15 -12q-11 -8 -19 -14t-19 -6l-13 2v2q-8 2 -15 4t-26 17l-25 48l-8 47z" />
    <glyph glyph-name="FL2018h" unicode="&#x2018;" horiz-adv-x="99" 
d="M16 463l10 -75q16 14 27 36t25 64q1 11 1.5 20t0.5 17q0 25 -6 45q-2 5 -4 11t-7 11q-16 -8 -23.5 -24.5t-13.5 -35.5l-8 -20z" />
    <glyph glyph-name="FL2019h" unicode="&#x2019;" horiz-adv-x="99" 
d="M16 463l10 -75q16 14 27 36t25 64q1 11 1.5 20t0.5 17q0 25 -6 45q-2 5 -4 11t-7 11q-16 -8 -23.5 -24.5t-13.5 -35.5l-8 -20z" />
    <glyph glyph-name="FL201Ch" unicode="&#x201c;" horiz-adv-x="173" 
d="M90 463l9 -75q17 14 28 36t25 64q1 11 1.5 20t0.5 17q0 25 -6 45q-2 5 -4.5 11t-6.5 11q-17 -8 -24 -24.5t-14 -35.5l-7 -20zM14 463l10 -75q17 14 28 36t25 64q1 11 1 20v17q0 13 -1 24t-4 21q-2 5 -4.5 11t-6.5 11q-17 -8 -24 -24.5t-14 -35.5l-7 -20z" />
    <glyph glyph-name="FL201Dh" unicode="&#x201d;" horiz-adv-x="173" 
d="M90 463l9 -75q17 14 28 36t25 64q1 11 1.5 20t0.5 17q0 25 -6 45q-2 5 -4.5 11t-6.5 11q-17 -8 -24 -24.5t-14 -35.5l-7 -20zM14 463l10 -75q17 14 28 36t25 64q1 11 1 20v17q0 13 -1 24t-4 21q-2 5 -4.5 11t-6.5 11q-17 -8 -24 -24.5t-14 -35.5l-7 -20z" />
    <glyph glyph-name="FL2022h" unicode="&#x2022;" horiz-adv-x="315" 
d="M12 260q0 41 7 77t22.5 62.5t41 42t63.5 15.5q34 0 62.5 -14t49.5 -40t33 -62t12 -80q0 -82 -37.5 -131t-105.5 -49q-32 0 -59.5 13.5t-47 37.5t-30.5 57t-11 71z" />
    <glyph glyph-name="FL2013h" unicode="&#x2013;" horiz-adv-x="209" 
d="M48 255l96 -5q-1 0 5 2q12 5 27 12t22 21l-12 15q-1 0 -8.5 1t-16.5 1q-8 0 -17 1t-14 1q-9 0 -14 -1.5t-19 -1.5q-12 0 -22.5 -1t-12.5 -1t-9.5 -1.5t-15 -5t-13.5 -10t-6 -15.5z" />
    <glyph glyph-name="FL2014h" unicode="&#x2014;" horiz-adv-x="253" 
d="M56 296l149 4q9 0 16.5 -1t8.5 -1l12 -15q-3 -7 -12.5 -12t-20.5 -8.5t-21.5 -6t-16.5 -4.5q-1 -1 -2 -1q-2 0 -3 1h-124l-29 12q0 9 6 15.5t13.5 10t14.5 5t9 1.5z" />
    <glyph glyph-name="FL02DCh" unicode="&#x2dc;" horiz-adv-x="278" 
d="M81 743q-10 -6 -14.5 -9t-9.5 -12l-33 -51l-9 -33q2 -7 5.5 -12t11.5 -8q8 0 11.5 1.5t7 5.5t9.5 11.5t20 19.5q5 5 11.5 7t9.5 8q2 -4 5.5 -5.5t7.5 -3.5q10 -9 16.5 -15.5l11 -11t9 -7.5t12.5 -5l23 -3q6 2 16.5 6t17.5 12l34 46q7 15 8 21.5t1 11.5q0 2 -0.5 5t-0.5 7
v2l-21 14q-9 0 -12 -1.5t-6 -5.5t-8.5 -12t-18.5 -20q-5 -5 -11.5 -7.5t-9.5 -8.5q-2 3 -6.5 5.5t-9.5 4.5q-14 16 -31 30.5t-26 14.5h-7z" />
    <glyph glyph-name="FL2122h" unicode="&#x2122;" horiz-adv-x="474" 
d="M91 456v210h-32q-10 0 -16 -4t-23 -18q-2 0 -4 3t-2 5q0 5 2.5 13t6 15.5t7.5 13t8 5.5h160q0 -6 -1.5 -14.5t-5 -16t-8.5 -13t-11 -5.5v18h-45v-213q2 0 12.5 -3.5t10.5 -12.5h-73zM194 444q6 9 13 12.5t12 12.5l3.5 38.5t5.5 59t5.5 59.5t4.5 40v2v10h-24q1 9 7 14
t13.5 8.5t15.5 6t14 6.5q0 -2 4.5 -14t10 -25.5t10.5 -25.5t6 -14l25 -95q2 -7 7.5 -19l5.5 -12h7l50 166q3 12 11 18.5t17 9.5t18.5 3.5t17.5 0.5h2q0 -15 -5 -20.5t-17 -11.5q2 -54 7 -107t13 -107q2 -1 6 -7l1 -4q0 -9 -8 -11t-15 -2h-14q-5 0 -10 1.5t-5 6.5l7 16v36
q0 21 -1 37t-2.5 32t-4 34t-5.5 43q-22 -43 -35 -95t-22 -103q-2 0 -6.5 -1t-6.5 -1q-7 0 -10 1t-4 4t-1.5 8t-3.5 14q-2 2 -5.5 11t-7.5 19.5t-7.5 20t-4.5 12.5q-2 5 -5.5 19.5t-7.5 31t-7.5 31t-4.5 20.5l-6 8q-2 -5 -4.5 -20t-2.5 -20q-2 -7 -3.5 -27t-3.5 -43
t-3.5 -43.5t-2.5 -28.5q6 -2 10.5 -5t9.5 -11q-10 -6 -17.5 -7t-17.5 -1h-14q-13 0 -15 8z" />
    <glyph glyph-name="FL0161h" unicode="&#x161;" horiz-adv-x="301" 
d="M8 24l1 8q21 20 34.5 26.5t34.5 6.5q10 0 18.5 -3t16.5 -7t16.5 -7t19.5 -3q41 0 59 29t18 77q0 34 -11.5 57t-28.5 40.5t-37 32t-37 30.5t-28.5 36.5t-11.5 50.5q0 39 13 64.5t34 40t47.5 20t53.5 5.5h69l-2 -22q0 -4 -1.5 -13t-3 -19t-4 -18.5t-3.5 -12.5l-6 -2
q-2 0 -4.5 1l-2.5 1l-51 47l-3 1t-8 1q-11 0 -23 -5.5t-21.5 -15t-15.5 -23t-6 -29.5q0 -25 11.5 -43t28.5 -33t37.5 -30t37.5 -35.5t28.5 -48.5t11.5 -68q0 -50 -17.5 -81.5t-45.5 -49.5t-61.5 -24.5t-66.5 -6.5q-8 0 -16.5 -0.5t-19.5 -0.5q-15 0 -29 3t-24 14l-0.5 3.5
t-0.5 5.5zM105 741q9 0 12.5 -2t6.5 -7t8.5 -13t19.5 -20q5 -5 12 -8t12 -9q3 6 9.5 8t11.5 7q13 12 19 20t10 13t7.5 7t12.5 2l16 -11l-9 -47l-23 -39l-16 -12q-11 -8 -19 -14t-19 -6l-13 2v2q-7 2 -14.5 4t-26.5 17l-24 48l-9 47z" />
    <glyph glyph-name="FL203Ah" unicode="&#x203a;" horiz-adv-x="123" 
d="M9 370q0 -12 1.5 -15.5t5.5 -7.5t10.5 -11t15.5 -25q5 -6 7 -15.5t7 -14.5q-5 -4 -6 -12.5t-6 -13.5q-10 -17 -16.5 -24.5t-10.5 -12t-5.5 -9t-1.5 -15.5l9 -20l38 11l31 29l10 19q6 14 11 24t5 24l-2 16h-2q-2 9 -3 18.5t-13 32.5l-39 31l-37 11z" />
    <glyph glyph-name="FL0153h" unicode="&#x153;" horiz-adv-x="622" 
d="M10 249q0 69 18 120.5t49.5 86t75 52t94.5 17.5h57l3 -1.5t3 -2.5q12 1 33 2.5t47 3.5t53.5 4t53 3.5t45 2.5t29.5 1h12q-4 -13 -9.5 -30t-13.5 -32.5t-17.5 -26t-21.5 -10.5q-10 0 -14 4l14 31h-140v-157h126l39 31q0 -2 0.5 -7t0.5 -10q0 -2 -0.5 -7.5t-0.5 -6.5
q-4 -11 -12 -27.5t-16.5 -31.5t-15.5 -26l-7 -11h-13v32h-88v-189h139q14 19 35 37t43 18q0 -12 -5 -32t-13 -39.5t-18.5 -33.5t-20.5 -14h-8q-12 0 -41 1.5t-63.5 3.5t-68 4t-53.5 4q-23 -10 -49.5 -11.5t-52.5 -1.5h-10q-97 0 -147.5 64t-50.5 185zM254 41q19 0 34 5.5
t30 13.5l13 357q-13 22 -27 34.5t-29 17.5t-30.5 6t-31.5 1q-33 0 -60.5 -20.5t-47.5 -52.5t-31.5 -72t-11.5 -79v-14q4 -48 20.5 -85t42 -61.5t58.5 -37.5t71 -13z" />
    <glyph glyph-name="FL017Eh" unicode="&#x17e;" horiz-adv-x="426" 
d="M148 78l-1 -2q-2 -6 -6 -14l-6 -12l99 8h128q-3 4 -7.5 16t-5.5 15v17l5 -6q8 -9 18.5 -20.5t20 -23t16 -22.5t6.5 -18l-407 -23v22l51 32q1 3 20.5 38t53.5 94t79 137.5t98 168.5l-121 -11h-127q3 -3 7.5 -15t4.5 -16v-16l-5 5q-8 9 -18.5 20.5t-20 25t-16 27.5t-6.5 28
h328l2 -3q12 4 23.5 6t14.5 2h14q10 0 17.5 -5.5t7.5 -18.5q0 -5 -1 -6.5l-1 -1.5q-2 -4 -12 -10t-12 -6l-102 -159q-2 -1 -6 -9t-17.5 -33.5t-40.5 -75.5t-75 -135zM150 742q9 0 12 -2t6 -7t8.5 -13t20.5 -20q5 -5 12 -8t12 -9q3 6 9.5 8t11.5 7q13 12 19 20t9.5 13t7 7
t12.5 2l16 -11l-8 -47l-24 -39l-15 -12q-11 -8 -19 -14t-19 -6l-13 2v2q-8 2 -15 4t-26 17l-25 48l-8 47z" />
    <glyph glyph-name="FL0178h" unicode="&#x178;" horiz-adv-x="580" 
d="M269 82q0 -12 -3 -22.5t-6.5 -20t-6.5 -19t-3 -20.5h128q0 31 -5.5 62.5t-12.5 63.5t-12.5 64.5t-5.5 65.5q0 77 10 128t26 83.5t37 50.5t42.5 30t42.5 20.5t37 22.5t26 36.5t10 62.5q-50 0 -84.5 -25t-63 -61t-55 -76t-59.5 -71q-23 40 -47 75t-51.5 61t-60.5 41.5
t-75 15.5h-11q-12 0 -25 -0.5t-17 -2.5q-5 -2 -9.5 -8t-6.5 -10l-1 -4.5t-1 -5.5l2 -11q62 -6 106 -30t73 -61.5t45.5 -86.5t24.5 -105.5t10 -118t2 -124.5zM323 722l26 -22h6q23 0 33.5 18t10.5 47l1 10q0 6 -7 12.5t-30 13.5q-22 0 -31 -12q-7 -7 -9 -20.5t-2 -25.5
q0 -7 0.5 -11.5t1.5 -9.5zM198 721l26 -22h6q23 0 33.5 18t10.5 47l1 10q0 6 -6.5 12.5t-30.5 13.5q-9 0 -17.5 -2.5t-13.5 -9.5q-7 -7 -9 -20.5t-2 -25.5q0 -7 1 -11.5t1 -9.5z" />
    <glyph glyph-name="FL00A1h" unicode="&#xa1;" horiz-adv-x="110" 
d="M90 331q-1 -1 -3.5 -8.5t-5.5 -18.5t-5 -25t-2 -28v-10q0 -28 4 -56.5t9.5 -56t9.5 -54.5t4 -52q0 -2 -0.5 -4l-0.5 -2q-1 -1 -5.5 -3t-10.5 -4.5l-12 -5t-9 -4.5h-13q-4 0 -10.5 2.5t-13.5 6t-13 7t-10 4.5l-1 7q0 1 0.5 4.5l0.5 3.5q3 5 3.5 14.5t5.5 14.5l3 268
q-3 9 -3 20t6.5 21t27.5 10q7 0 11.5 -0.5t7.5 -0.5h1zM89 512q3 -9 3 -24q0 -14 -3 -29.5t-10 -23.5t-15.5 -11t-19.5 -3q-27 8 -34 16t-7 16l1 9q0 34 12 55t38 21h7z" />
    <glyph glyph-name="FL00A2h" unicode="&#xa2;" horiz-adv-x="385" 
d="M10 248q0 106 40.5 171.5t106.5 89.5v180q2 2 7.5 5.5t9.5 8.5h9q5 0 11 -7.5t11 -9.5l1 -7q0 -1 -0.5 -4.5l-0.5 -3.5q-2 -2 -2 -6v-9q0 -13 -1 -15v-121q12 2 22.5 3t22.5 1h57q9 -3 11.5 -15t2.5 -24v-19v-18q0 -12 -2.5 -23.5t-11.5 -13.5q-13 22 -23 35t-19.5 19.5
t-21 8t-27.5 1.5q-8 0 -11 -1v-428q24 -6 52 -6q30 0 51.5 13t48.5 25l2.5 1.5t3.5 1.5q2 0 4 -1.5l2 -1.5q3 -1 7.5 -6t5.5 -8q-15 -24 -33.5 -37.5t-39.5 -19.5t-43.5 -7t-44.5 -1h-12q1 -17 2 -37.5t2.5 -39t2.5 -31t1 -13.5l0.5 -3.5t0.5 -4.5q0 -14 -2.5 -17t-10.5 -3
h-8q-5 0 -7.5 0.5t-4.5 0.5q-5 0 -8.5 -0.5t-5.5 -0.5l-6 14v139q-75 15 -113.5 77t-38.5 168zM164 279l-3 181q-22 -14 -40.5 -36.5t-31.5 -50.5t-20 -59.5t-7 -62.5v-14q5 -66 32 -109t68 -66q1 8 1 17v21v40v129q1 1 1 10z" />
    <glyph glyph-name="FL00A3h" unicode="&#xa3;" horiz-adv-x="397" 
d="M72 307l49 2q-13 14 -17.5 28t-5.5 36v7q0 39 18.5 66.5t45.5 45.5t58 27t57 11l20 -6l-3 -44l-4.5 -11t-19.5 -17l-55 17q-13 -1 -23 -9.5t-17 -20.5t-10.5 -27t-3.5 -29v-4q1 -17 9 -29t21.5 -19.5t30 -11t34.5 -3.5q6 0 7 1h32q4 1 7 1h7q5 0 11 2l11 -57l-120 -15
q-36 -2 -51.5 -29.5t-15.5 -67.5v-10q1 -25 13 -42t30.5 -28t41 -16t44.5 -5h9q9 5 16.5 6.5t14.5 2.5h3q14 0 36.5 -4.5t33.5 -11.5l2 -26q-2 0 -10 -4t-16 -4q-5 -1 -9 -1h-8h-19l-169 -1q-1 0 -7 -0.5t-13 -0.5q-5 0 -9.5 0.5t-4.5 1.5h-74l-30 12q0 9 6 15.5t13.5 10
t14.5 5.5t9 3h72q-24 17 -39 42t-17 60v10q0 12 0.5 26.5t1.5 14.5q2 8 8.5 19.5t15.5 24.5h-72l-30 12q0 9 5 17t11 14t12 9.5t8 3.5h34z" />
    <glyph glyph-name="FL00A4h" unicode="&#xa4;" horiz-adv-x="455" 
d="M99 265q0 38 6 74t20 64l-55 87q-3 0 -12.5 6t-11.5 10l-1 1.5t-1 6.5q0 24 26 24h12q3 0 14.5 -2t24 -5t23.5 -6t14 -4l3 -7q0 -1 -1.5 -4.5l-1.5 -3.5q0 -4 -4.5 -9t-7.5 -7l23 -38q17 10 41 10q38 0 68 -27q9 14 14.5 28t5.5 27q0 2 -5.5 8.5t-7.5 7.5q-1 5 -1.5 8.5
t-0.5 6.5h103l13 -15q-11 0 -24 -7.5t-27 -20t-27 -28.5t-24 -34q22 -27 35 -66t13 -84q0 -23 -3 -46t-10 -44q13 -24 25 -47.5t21.5 -41.5t15 -29l5.5 -11l51 -32v-22l-127 7q-4 0 -13 6t-12 9q2 1 6.5 5t8.5 9t7 10t3 8q0 2 -3.5 12t-8.5 17q0 1 -1 1v1q-2 4 -6 11t-9 16
q-14 -17 -32 -27t-40 -10q-25 0 -45.5 14.5t-37.5 38.5q-10 -17 -17.5 -31t-14.5 -26q7 -6 18 -20.5t11 -28.5h-131v17q11 2 25.5 13t30 27.5t31 37.5t29.5 44q-23 54 -23 111zM131 264q0 -24 6.5 -48.5t18.5 -44t28.5 -31.5t36.5 -12t36.5 11.5t28 31t18 44.5t6.5 51
q0 28 -7.5 52.5t-20.5 43t-31 29t-38 10.5q-23 0 -39 -11.5t-25.5 -31t-13.5 -44t-4 -50.5z" />
    <glyph glyph-name="FL00A5h" unicode="&#xa5;" horiz-adv-x="485" 
d="M126 316l79 2q-9 38 -24 70.5t-39 57.5t-57.5 40.5t-78.5 20.5v9v8q2 3 5.5 8t8.5 7q3 2 14.5 2.5t20.5 0.5h9q35 0 63 -13t51 -34.5t42.5 -51t38.5 -62.5q28 25 50 58.5t45.5 63.5t52.5 51t71 21q0 -39 -11 -59t-28.5 -31.5t-39 -20t-42 -24t-37.5 -43.5t-26 -79
q14 -2 33 -4t37 -4.5t30.5 -4l12.5 -1.5l12 -15q-2 -5 -13.5 -7.5t-28 -4t-36.5 -2t-39 -0.5h-14q-2 -14 -2 -30v-32v-9q12 0 31.5 -1t38 -2t31.5 -1.5l13 -0.5l12 -15q-2 -5 -14 -8.5t-29 -6t-37 -4.5t-38 -3h-5q7 -42 16 -83t9 -79h-105q0 18 7.5 33t7.5 35q0 7 -0.5 13.5
t-1.5 13.5v62h-113l-30 12q0 9 6 15.5t13.5 10t14.5 5.5t9 3h99q-2 18 -3.5 35t-3.5 34h-102l-30 12q0 9 6 15.5t13.5 10t15 5t9.5 1.5z" />
    <glyph glyph-name="FL00A6h" unicode="&#xa6;" horiz-adv-x="146" 
d="M42 302l-12 422q0 2 0.5 4l0.5 2q2 2 11.5 5.5t16.5 8.5h14q7 0 17 -7.5t17 -10.5l2 -7q0 -1 -1 -4.5l-1 -3.5q-3 -5 -3 -16q0 -12 -1 -15v-633q1 0 2.5 -12t3.5 -29.5t3.5 -38.5t3.5 -39t3.5 -30.5t2.5 -13.5l0.5 -3.5t0.5 -4.5q0 -14 -4.5 -17.5t-16.5 -3.5h-12
q-7 0 -11.5 0.5t-7.5 0.5h-1q-7 0 -13 -0.5t-8 -0.5l-11 15v177q1 1 1.5 12t1 27t1 35t0.5 36v39v96v10z" />
    <glyph glyph-name="FL00A7h" unicode="&#xa7;" horiz-adv-x="406" 
d="M99 265q0 38 6 74t20 64l44 49q17 10 41 10q38 0 68 -27q9 14 14.5 28t5.5 27q0 2 -5.5 8.5t-7.5 7.5q-1 5 -1.5 8.5t-0.5 6.5h103l9 -19q-22 0 -48.5 -25.5t-49.5 -60.5q22 -27 35 -66t13 -84q0 -31 -6 -63t-20 -59.5t-37.5 -48t-58.5 -27.5q-2 -1 -9 -1q-21 0 -40.5 16
t-33.5 38q-10 -17 -17.5 -31t-14.5 -26q7 -6 18 -20.5t11 -28.5h-131v17q11 2 25.5 13t30 27.5t31 37.5t29.5 44q-23 54 -23 111zM131 264q0 -24 6.5 -48.5t18.5 -44t28.5 -31.5t36.5 -12t36.5 11.5t28 31t18 44.5t6.5 51q0 28 -7.5 52.5t-20.5 43t-31 29t-38 10.5
q-23 0 -39 -11.5t-25.5 -31t-13.5 -44t-4 -50.5z" />
    <glyph glyph-name="FL00A8h" unicode="&#xa8;" horiz-adv-x="226" 
d="M138 622q-1 5 -2 9.5t-1 11.5q0 12 2.5 25.5t8.5 20.5q11 12 32 12q23 -7 29.5 -13.5t6.5 -12.5v-10q0 -29 -11 -47t-33 -18h-7zM13 621q-1 5 -2 9.5t-1 11.5q0 12 2.5 25.5t9.5 20.5q9 12 31 12q23 -7 30 -13.5t7 -12.5l-1 -10q0 -29 -11 -47t-33 -18h-7z" />
    <glyph glyph-name="FL00A9h" unicode="&#xa9;" horiz-adv-x="250" 
d="M125 749q-26 0 -51 -17q-28 -16 -40 -52q-7 -17 -11.5 -34t-4.5 -37q0 -36 16 -67q6 -17 16.5 -30.5t22.5 -22.5q25 -19 52 -19q24 0 53 19q25 16 39 53q13 30 13 67q0 41 -13 71q-8 16 -17 29.5t-23 22.5q-37 17 -52 17zM125 727q23 0 43 -16q23 -15 33 -42
q5 -16 8.5 -30.5t3.5 -29.5q0 -14 -3.5 -28t-8.5 -28q-17 -32 -32 -43q-22 -14 -44 -14q-24 0 -44 14q-24 18 -33 43q-11 41 -11 56t3 29.5t8 30.5q12 29 33 43.5t44 14.5zM159 588q-8 -35 -36 -35q-34 0 -34 56q0 60 37 60q20 0 32 -29l16 5q-11 44 -48 44q-26 0 -41 -20.5
t-15 -59.5q0 -78 55 -78q40 0 52 51z" />
    <glyph glyph-name="FL00AAh" unicode="&#xaa;" horiz-adv-x="263" 
d="M150 555h-49q1 20 7 40.5t14 38.5q10 -17 18 -37.5t10 -41.5zM165 435l12 -15h6q3 0 7.5 -0.5t6.5 -0.5h11q11 0 24 3.5t13 17.5q-19 21 -22.5 25.5t-3.5 6.5h1q-5 15 -11.5 35t-14.5 42l-16 46t-14 41t-10 29.5l-4 11.5v-1l-16 21q-12 0 -21 -12.5t-16 -30.5t-12.5 -39
t-9.5 -38q-2 -8 -3 -14t-3 -11l1 1q-5 -10 -7.5 -21.5t-7.5 -22.5q-4 -14 -7.5 -26t-5.5 -17q-2 -6 -12.5 -12t-15.5 -8l-1 -0.5t-3 -2.5v-18l65 3q2 0 9 5.5t10 7.5q-7 6 -14 11q-3 2 -5.5 5t-2.5 10q0 6 1 14t3 15.5t4.5 13t5.5 6.5l72 7q3 0 7 -7.5t8 -17.5t6.5 -21
t2.5 -17q0 -7 -2 -13t-15 -12z" />
    <glyph glyph-name="FL00ABh" unicode="&#xab;" horiz-adv-x="230" 
d="M222 370q0 -12 -1.5 -15.5t-5.5 -7.5t-10.5 -11t-16.5 -25q-5 -6 -7 -15.5t-7 -14.5q5 -4 6.5 -12.5t5.5 -13.5q10 -17 16.5 -24.5t10.5 -12t5.5 -9t1.5 -15.5l-9 -20l-37 11l-32 29l-9 19q-7 14 -11.5 24t-4.5 24l1 16h2q2 9 3.5 18.5t13.5 32.5l38 31l38 11zM117 370
q0 -12 -1.5 -15.5t-5.5 -7.5t-10.5 -11t-16.5 -25q-4 -6 -6 -15.5t-7 -14.5q5 -4 6 -12.5t6 -13.5q9 -17 15.5 -24.5t10.5 -12t5.5 -9t1.5 -15.5l-9 -20l-37 11l-31 29l-10 19q-7 14 -11.5 24t-4.5 24l2 16h1q2 9 3.5 18.5t13.5 32.5l38 31l38 11z" />
    <glyph glyph-name="FL00ACh" unicode="&#xac;" horiz-adv-x="253" 
d="M230 298l-174 -2q-2 0 -9 -1.5t-14.5 -5t-13.5 -10t-6 -15.5l29 -9h158l-1 -19l0.5 -1.5l1.5 -4.5q1 -7 3.5 -16t5.5 -18t7 -16.5t10 -10.5l12 15q0 1 1 10.5t1 20.5q0 10 0.5 21.5t0.5 16.5v30z" />
    <glyph glyph-name="FL00ADh" unicode="&#xad;" horiz-adv-x="167" 
d="M46 254l-29 12q0 9 6 15.5t13.5 10t14.5 5t9 1.5t25 1.5t43 1.5q5 0 9 -0.5t7 -0.5l12 -15q-7 -14 -20.5 -20.5t-25.5 -11.5l-3 -1q-2 -1 -3.5 -1.5l-1.5 -0.5z" />
    <glyph glyph-name="FL00AEh" unicode="&#xae;" horiz-adv-x="251" 
d="M125 749q-26 0 -52 -17q-14 -9 -23.5 -22.5t-17.5 -29.5q-7 -17 -10.5 -34t-3.5 -37q0 -34 14 -67q9 -18 18.5 -30t21.5 -23q25 -19 53 -19q23 0 52 19q14 11 23 23t16 30q15 31 15 67t-15 71q-14 36 -40 52q-26 17 -51 17zM125 727q25 0 42 -16q14 -8 21 -19t14 -23
q5 -16 8 -30.5t3 -29.5t-11 -56q-14 -30 -33 -43q-22 -16 -44 -16q-20 0 -45 16q-11 9 -19 20.5t-13 22.5q-11 41 -11 56t3 29.5t8 30.5q12 29 33 43.5t44 14.5zM79 533h18v63h11q10 0 14 -4q7 -6 20 -35l9 -24h24l-15 30q-9 16 -13 24.5t-13 13.5q15 1 23.5 13t8.5 29
q0 11 -6 22q-2 3 -5 7t-8 7t-12 3.5t-17 0.5h-39v-150zM97 617v45h21q18 0 19 -1q10 -4 10 -21q0 -12 -6 -17.5t-23 -5.5h-21z" />
    <glyph glyph-name="FL00AFh" unicode="&#xaf;" horiz-adv-x="222" 
d="M26 593l-30 12q0 9 6 15.5t13.5 10t14.5 5t9 1.5q1 0 7 0.5t13.5 1t16 1t14.5 0.5q14 0 19 1.5t14 1.5h11q9 0 19.5 -0.5t20.5 -0.5h13q9 0 16.5 -1t8.5 -1l12 -15q-3 -7 -14.5 -12.5t-24.5 -9.5t-25 -7t-18 -5q-3 -1 -4 -1.5l-1 -0.5z" />
    <glyph glyph-name="FL00B0h" unicode="&#xb0;" horiz-adv-x="101" 
d="M13 621q-1 5 -2 9.5t-1 11.5q0 12 2.5 25.5t9.5 20.5q9 12 31 12q23 -7 30 -13.5t7 -12.5l-1 -10q0 -29 -11 -47t-33 -18h-7z" />
    <glyph glyph-name="FL00B1h" unicode="&#xb1;" horiz-adv-x="253" 
d="M112 326l2 51l9 37q7 0 12 -7.5t8 -17t4.5 -18t1.5 -11.5q0 -2 0.5 -11t0.5 -20h4q1 0 8 -0.5t15.5 -1.5t16.5 -1.5t12 -0.5q9 0 16.5 -1l7.5 -1l12 -15q-3 -7 -12 -12t-20 -8.5t-21.5 -6t-16.5 -4.5q-2 -1 -3.5 -1.5l-1.5 -0.5h-14v-1q0 -5 -1 -16.5t-1 -21.5
q0 -11 -0.5 -20.5t-0.5 -10.5l-12 -15q-6 3 -10.5 10.5t-7.5 16.5t-5.5 18t-3.5 16q-1 3 -1 4v2v19l-67 1l-29 12q0 9 6 15.5t13.5 10t14.5 5t9 1.5l6 0.5t14.5 1.5t18 2t16.5 1zM73 99l-30 12q0 9 6 15.5t13.5 10t14.5 5t9 1.5t13 1t23 1q14 0 19 1.5t14 1.5q5 0 14 -1
t17 -1q9 0 16.5 -1l7.5 -1l12 -15q-6 -14 -21 -21t-27 -12q-3 -1 -4 -1.5l-1 -0.5z" />
    <glyph glyph-name="FL00B2h" unicode="&#xb2;" horiz-adv-x="171" 
d="M157 452l-4 20q-3 0 -11 0.5t-17 0.5h-16q-8 0 -9 -1q-10 -5 -15 -5q-17 0 -25.5 7t-8.5 27v4q0 4 1 7q3 23 14.5 35.5t23.5 23.5q14 11 24.5 24.5t10.5 37.5q0 20 -6.5 33t-17 20.5t-24 10.5t-27.5 3h-36l1 -15q0 -5 2.5 -17.5t4.5 -17.5l5 -2q3 0 5 1l26 24l-1 -1
q1 1 4 1q9 0 18 -8.5t9 -22.5t-8.5 -23.5t-19.5 -17.5q-17 -14 -31 -31.5t-15 -51.5v-4q0 -27 3 -42.5t11 -24t21 -10.5t33 -2h49q7 0 14 6t12 11z" />
    <glyph glyph-name="FL00B3h" unicode="&#xb3;" horiz-adv-x="171" 
d="M56 561l34 -5q17 0 23.5 -13t6.5 -32q0 -22 -20 -32t-40 -10h1q-9 3 -15 3q-8 0 -13.5 -3t-10.5 -8l-1 -20q1 0 2 -0.5t3 -0.5q8 -2 12 -2q17 0 38 3t39.5 11.5t31 25t12.5 43.5v7q0 2 -0.5 6t-0.5 11q-3 6 -11.5 19t-15.5 20q9 11 12 19t3 22q0 21 -9.5 35.5t-23 23
t-30 12.5t-29.5 4h-10q-11 0 -20 -3t-16 -17l-2 -29q0 -10 12 -10q9 0 25.5 5t42.5 16q9 -1 15.5 -13t6.5 -23q0 -16 -15.5 -21.5t-31.5 -7.5z" />
    <glyph glyph-name="FL00B4h" unicode="&#xb4;" horiz-adv-x="113" 
d="M9 403l10 75l15 45l12 16q12 15 23.5 27.5t28.5 13.5q3 -7 3 -14q0 -6 2 -11q0 -24 -7 -45q-2 -8 -4.5 -16.5t-6.5 -17.5q-23 -35 -40 -50.5t-36 -22.5z" />
    <glyph glyph-name="FL0193h" unicode="&#xb5;" horiz-adv-x="895" 
d="M878 329q0 -1 -0.5 -1.5t-0.5 -1.5l-11 -34h-52l34 -63q2 -2 2 -9v-7q0 -28 -18 -35l-58 15l-6 -96q-5 -18 -22 -18q-12 0 -25.5 8.5t-32.5 24.5l-57 -90l-29 -9l-34 50l-109 -81l-17 8v50l-144 -33l-17 15l5 41l-148 18v31l17 27l-91 23q-17 0 -17 31l35 42l-64 42
l-5 41l63 15l-35 58l6 50l67 -10q0 116 27 116h2l64 -32q21 42 37.5 65t31.5 32l51 -49l103 74l24 -25l-6 -24l6 -8l114 32l40 -7l-6 -50h136l13 -17q0 -41 -23 -47l115 -43v-4v-6q0 -40 -41 -47q76 -39 76 -62zM860 318l-6 15l-92 67l57 24h7l-7 17l-131 40l46 49h-154
l10 58l-148 -33l-6 50l-11 7l-104 -74l-45 50l-62 -97q-5 -4 -14 -4q-19 0 -57 35l-9 -114l-76 8l6 -34l40 -72l-74 -9l97 -72l-63 -42l138 -43l-47 -47l160 -9l-17 -57l144 41l17 -32l-5 -33l114 81l52 -48l57 99l74 -36l5 117l76 -18q0 5 0.5 7l0.5 2q0 27 -47 99z
M748 374l-12 -105l-17 4l5 110zM738 224l-16 -22l-12 17l14 14zM695 232q-24 0 -61 72v-71l-16 -2l-2 143l58 -91l4 100l17 -8v-143zM601 233l-14 6q-10 34 -24 34q-13 0 -25 -34h-21q6 71 41 143q4 4 15 4q19 0 25 -45zM506 383l-5 -142l-25 -10l10 146zM458 228
q-26 0 -63 69v-68l-16 -5l-1 146l58 -93l3 100l19 -7v-142zM366 328q-9 -100 -39 -100q-9 -3 -17 -3q-28 0 -34 24q0 94 38 126q4 0 4.5 0.5t-0.5 0.5h6q34 0 42 -48zM269 381l-3 -35q-4 2 -4.5 2.5t-5.5 0.5q-13 0 -28 -21q-15 -29 -15 -58t21 -29q15 0 20 4l2 -25
q-8 -2 -12.5 -4t-9.5 -2q-29 0 -39 63q-1 1 -1 11v8q0 68 75 85zM184 377l-6 -142l-23 -11l11 148zM581 304l-12 49l-20 -49h32zM347 308q0 11 -3 16q-6 19 -19 19q-17 0 -30 -46v-10q0 -35 17 -35q9 0 26 13q9 19 9 43z" />
    <glyph glyph-name="FL00B6h" unicode="&#xb6;" horiz-adv-x="867" 
d="M847 318l-6 15l-92 67l57 24h7l-7 17l-131 40l46 49h-154l11 58l-149 -33l-6 50l-11 7l-104 -74l-45 50l-62 -97q-5 -4 -14 -4q-19 0 -57 35l-9 -114l-75 8l5 -34l40 -72l-73 -9l96 -72l-63 -42l138 -43l-47 -47l160 -9l-16 -57l143 41l17 -32l-5 -33l114 81l52 -48
l57 99l74 -36l5 117l76 -18q0 5 0.5 7l0.5 2q0 26 -46 99zM735 374l-12 -105l-17 4l5 110zM726 224l-16 -22l-13 17l14 14zM682 232q-24 0 -61 72v-71l-15 -2l-3 143l58 -91l5 100l16 -8v-143zM588 233l-14 6q-10 34 -24 34q-12 0 -25 -34h-21q6 73 42 143q3 4 14 4
q18 0 26 -45zM493 383l-5 -142l-25 -10l11 146zM445 228q-26 0 -63 69v-68l-16 -5l-1 146l58 -93l3 100l19 -7v-142zM354 328q-10 -100 -40 -100q-9 -3 -16 -3q-29 0 -35 24q0 94 38 126q4 0 4.5 0.5l0.5 0.5h5q34 0 43 -48zM256 381l-2 -35q-5 2 -5.5 2.5t-5.5 0.5
q-13 0 -28 -21q-15 -29 -15 -58t22 -29q15 0 20 4l1 -25q-7 -2 -12 -4t-9 -2q-30 0 -40 63v11v8q0 69 74 85zM171 377l-5 -142l-24 -11l11 148zM568 304l-12 49l-20 -49h32zM334 308q0 13 -3 16q-6 19 -19 19q-17 0 -30 -46v-10q0 -35 17 -35q10 0 27 13q8 21 8 43z" />
    <glyph glyph-name="FL00B7h" unicode="&#xb7;" horiz-adv-x="113" 
d="M14 254l28 -26h8q26 0 37.5 21t11.5 55l1 9q0 8 -7 16t-34 16q-11 0 -19.5 -3t-15.5 -11t-10 -23.5t-3 -29.5t3 -24z" />
    <glyph glyph-name="FL00B8h" unicode="&#xb8;" horiz-adv-x="60" 
d="M12 3l31 -4q5 -10 5.5 -19.5t1.5 -12.5l8 -65l-100 -13l-29 12q0 9 3.5 14.5t8.5 8.5t9.5 3.5t7.5 0.5l6 0.5t14.5 1.5t18 2t16.5 1z" />
    <glyph glyph-name="FL00B9h" unicode="&#xb9;" horiz-adv-x="96" 
d="M70 612l5 61l-1 -1l8 17q0 4 -4 8t-6 4h-58q6 -10 10.5 -15t9.5 -8v-65q0 -15 -0.5 -39t-1.5 -46.5t-1.5 -39l-0.5 -16.5l-15 -19l11 -12h56q0 11 -4.5 18.5t-7.5 10.5v142z" />
    <glyph glyph-name="FL00BAh" unicode="&#xba;" horiz-adv-x="234" 
d="M186 455h1q-15 -11 -29 -17.5t-31 -6.5q-49 0 -83 37t-34 102q0 61 32 96t80 35h3q21 -12 38 -24.5t30 -28.5t20 -37.5t7 -50.5q0 -5 -1 -6v-21q0 -6 -3.5 -18t-8.5 -24t-10.5 -22.5t-10.5 -13.5zM182 562q0 18 -3 36t-10.5 32t-19 22.5t-27.5 8.5q-31 0 -52 -29.5
t-21 -69.5q0 -19 4.5 -36.5t12.5 -31.5t20.5 -22.5t27.5 -8.5t27.5 9t21.5 23t14 31.5t5 35.5z" />
    <glyph glyph-name="FL00BBh" unicode="&#xbb;" horiz-adv-x="230" 
d="M12 370q0 -12 1.5 -15.5t5.5 -7.5t10.5 -11t16.5 -25q4 -6 6 -15.5t7 -14.5q-5 -4 -6 -12.5t-6 -13.5q-9 -17 -15.5 -24.5t-10.5 -12t-5.5 -9t-1.5 -15.5l8 -20l38 11l31 29l10 19q7 14 11.5 24t4.5 24l-2 16h-1q-2 9 -3.5 18.5t-13.5 32.5l-39 31l-37 11zM117 370
q0 -12 1.5 -15.5t5.5 -7.5t10.5 -11t15.5 -25q5 -6 7 -15.5t7 -14.5q-5 -4 -6 -12.5t-6 -13.5q-10 -17 -16.5 -24.5t-10.5 -12t-5.5 -9t-1.5 -15.5l9 -20l38 11l31 29l10 19q6 14 11 24t5 24l-2 16h-2q-2 9 -3 18.5t-13 32.5l-39 31l-37 11z" />
    <glyph glyph-name="FL00BCh" unicode="&#xbc;" horiz-adv-x="442" 
d="M39 64l-39 -49l14 -15q1 0 5.5 -0.5t10.5 -1t11.5 -1t8.5 -0.5h1q3 0 7.5 -0.5t11.5 -0.5q9 0 19 1t19 4t15 8.5t6 14.5q0 1 -1 4.5l-1 3.5q-3 5 -12 16t-13 16l240 426q12 5 21.5 12t16.5 19h-114q-3 0 -8 -5t-5 -10l13 -32q-2 1 -11 -23t-34 -74.5t-68.5 -128.5
t-113.5 -184zM406 224l14 26q-8 8 -26.5 13.5t-29.5 5.5l-3 -4.5t-4 -7.5l-1 -2q0 -5 1 -7q2 -4 6 -9.5t6 -8.5v-61h-77v3l6 60l-1 -1l7 18q0 4 -3.5 7.5t-6.5 3.5h-63q7 -9 11.5 -14.5t11.5 -8.5v-103l115 -5v-91q-2 -1 -4.5 -4t-4.5 -6l-2 -4l-2 -7q0 -12 11.5 -15.5
t20.5 -3.5h10h5q5 0 7 1q2 0 4 0.5t3 0.5l11 12l-22 27v185zM101 429l5 61l-1 -1l7 17q0 4 -3.5 8t-6.5 4h-57q5 -10 10 -15t10 -8v-65q0 -15 -1 -39t-1.5 -46.5t-1.5 -39l-1 -16.5l-14 -19l10 -12h57q0 11 -4.5 18.5t-7.5 10.5v142z" />
    <glyph glyph-name="FL00BDh" unicode="&#xbd;" horiz-adv-x="402" 
d="M39 64l-39 -49l14 -15q1 0 5.5 -0.5t10.5 -1t11.5 -1t8.5 -0.5h1q3 0 7.5 -0.5t11.5 -0.5q9 0 19 1t19 4t15 8.5t6 14.5q0 1 -1 4.5l-1 3.5q-3 5 -12 16t-13 16l240 426q12 5 21.5 12t16.5 19h-114q-3 0 -8 -5t-5 -10l13 -32q-2 1 -11 -23t-34 -74.5t-68.5 -128.5
t-113.5 -184zM101 429l5 61l6 16q0 4 -3.5 8t-6.5 4h-57q5 -10 10 -15t10 -8v-65q0 -15 -1 -39t-1.5 -46.5t-1.5 -39l-1 -16.5l-14 -19l10 -12h57q0 11 -4.5 18.5t-7.5 10.5v142zM390 6l-6 39q-6 6 -8 6q-4 0 -5 -4t-10 -4q-13 0 -18 -4q-10 -5 -15 -5q-17 0 -25.5 7
t-8.5 27v4q0 4 1 7q3 23 14.5 35.5t23.5 23.5q14 11 24.5 24.5t10.5 37.5q0 20 -6.5 33t-17 20.5t-24 10.5t-26.5 3h-36v-15q0 -5 2.5 -17.5t5.5 -17.5l4 -2q4 0 5 1l26 24l-1 -1q2 1 4 1q9 0 18 -8.5t9 -22.5t-8.5 -23.5t-19.5 -17.5q-16 -14 -30.5 -31.5t-14.5 -51.5v-4
q0 -27 3 -42.5t10.5 -24t21 -10.5t33.5 -2z" />
    <glyph glyph-name="FL00BEh" unicode="&#xbe;" horiz-adv-x="465" 
d="M62 64l-40 -49l14 -15q1 0 5.5 -0.5t10.5 -1t11.5 -1t8.5 -0.5h2q3 0 7 -0.5t11 -0.5q9 0 19 1t19 4t15 8.5t6 14.5q0 1 -0.5 4.5l-0.5 3.5q-3 5 -12 16t-14 16l241 426q11 5 21 12t16 19h-113q-3 0 -8.5 -5t-5.5 -10l14 -32q-2 1 -11.5 -23t-34 -74.5t-68 -128.5
t-113.5 -184zM429 224l13 26q-8 8 -26.5 13.5t-29.5 5.5l-3 -4.5t-4 -7.5l-1 -2q0 -5 1 -7q2 -4 6 -9.5t6 -8.5v-61h-77v3l6 60l-1 -1l7 18q0 4 -3.5 7.5t-6.5 3.5h-62q6 -9 10.5 -14.5t11.5 -8.5v-103l115 -5v-91q-2 -1 -4 -4t-5 -6l-2 -4l-2 -7q0 -12 11.5 -15.5
t20.5 -3.5h10h6q4 0 7 1q2 0 3.5 0.5t2.5 0.5l11 12l-21 27v185zM64 376l34 -5q17 0 23.5 -13t6.5 -32q0 -22 -20 -32t-40 -10h1q-9 3 -15 3q-8 0 -13.5 -3t-10.5 -8l-1 -20q1 0 2 -0.5t3 -0.5q8 -2 12 -2q17 0 38 3t39.5 11.5t31 25t12.5 43.5v7q0 2 -0.5 6t-0.5 11
q-3 6 -11.5 19t-15.5 20q9 11 12 19t3 22q0 21 -9.5 35.5t-23 23t-30 12.5t-29.5 4h-10q-11 0 -20 -3t-16 -17l-2 -29q0 -10 12 -10q9 0 25.5 5t42.5 16q9 -1 15.5 -13t6.5 -23q0 -16 -15.5 -21.5t-31.5 -7.5z" />
    <glyph glyph-name="FL00BFh" unicode="&#xbf;" horiz-adv-x="273" 
d="M261 59l-7 -47l-16 -13h-92q-39 0 -65.5 4.5t-42 20.5t-22 46.5t-6.5 83.5v8q0 36 13 54t32.5 26t42 8.5t42 1.5t32.5 6t13 21l-3 42v18q0 16 2 29.5t6 13.5h32q7 0 11.5 -11.5t7 -26.5t3.5 -29.5t1 -20.5v-5q0 -6 -1 -17.5t-5.5 -25t-15 -26.5t-29.5 -22l-64 -15
q-2 -1 -12 -1l-21 1q-9 0 -15 -5.5t-8 -25.5q-1 -8 -1.5 -14.5t-0.5 -12.5q0 -46 21 -62.5t57 -16.5zM239 507l-25 23h-6q-23 0 -34 -19t-11 -50l-1 -8q0 -7 6 -14t31 -14q10 0 18 2t13 10q7 7 9.5 21t2.5 27q0 7 -0.5 12t-2.5 10z" />
    <glyph glyph-name="FL00C0h" unicode="&#xc0;" horiz-adv-x="575" 
d="M275 532q-24 -52 -43 -111.5t-19 -116.5h142q0 30 -7.5 60.5t-19.5 60t-26 56.5t-27 51zM413 -11l-15 20q22 12 27 28t5 39q0 17 -6.5 46t-16.5 56.5t-20.5 47.5t-19.5 20l-182 -18q-10 -2 -18.5 -17t-15 -35.5t-10 -43t-3.5 -40.5q0 -16 4.5 -24t12 -13.5t15.5 -11
t16 -16.5q-3 -4 -15 -11t-17 -7l-151 -8v26q3 2 14 7.5t23 13.5t23.5 17.5t16.5 20.5q5 13 15.5 43.5t22 64.5t22 65t14.5 45q6 21 12.5 54t15 71t19.5 76.5t26.5 70.5t36.5 52.5t49 22.5l23 -44l9 -27l23.5 -70.5t33 -98t37 -110.5t36 -108t30.5 -90q2 -6 12 -19.5t21 -28
t19.5 -25.5l8.5 -11q0 -10 -8 -16.5t-20 -10t-26.5 -5t-26.5 -1.5q-8 0 -14.5 0.5t-9.5 0.5h-4q-5 0 -11.5 0.5t-14.5 0.5q-7 0 -12 0.5t-6 0.5zM326 710l-16 -11q-9 0 -13.5 1t-9.5 4.5t-12 11t-21 19.5q-5 6 -9 13l-8 14l-1 2q-11 16 -15 42q0 5 2 9t4 11l13 2
q11 0 19.5 -5.5t18.5 -14.5l16 -12l23 -39z" />
    <glyph glyph-name="FL00C1h" unicode="&#xc1;" horiz-adv-x="575" 
d="M275 532q-24 -52 -43 -111.5t-19 -116.5h142q0 30 -7.5 60.5t-19.5 60t-26 56.5t-27 51zM413 -11l-15 20q22 12 27 28t5 39q0 17 -6.5 46t-16.5 56.5t-20.5 47.5t-19.5 20l-182 -18q-10 -2 -18.5 -17t-15 -35.5t-10 -43t-3.5 -40.5q0 -16 4.5 -24t12 -13.5t15.5 -11
t16 -16.5q-3 -4 -15 -11t-17 -7l-151 -8v26q3 2 14 7.5t23 13.5t23.5 17.5t16.5 20.5q5 13 15.5 43.5t22 64.5t22 65t14.5 45q6 21 12.5 54t15 71t19.5 76.5t26.5 70.5t36.5 52.5t49 22.5l23 -44l9 -27l23.5 -70.5t33 -98t37 -110.5t36 -108t30.5 -90q2 -6 12 -19.5t21 -28
t19.5 -25.5l8.5 -11q0 -10 -8 -16.5t-20 -10t-26.5 -5t-26.5 -1.5q-8 0 -14.5 0.5t-9.5 0.5h-4q-5 0 -11.5 0.5t-14.5 0.5q-7 0 -12 0.5t-6 0.5zM247 758l23 39l16 12q10 9 18.5 14.5t19.5 5.5l13 -2q2 -7 4 -11t2 -9q-5 -26 -15 -42l-1 -2l-8 -14t-9 -13q-14 -12 -21 -19.5
t-12 -11t-9.5 -4.5t-13.5 -1l-16 11z" />
    <glyph glyph-name="FL00C2h" unicode="&#xc2;" horiz-adv-x="575" 
d="M275 532q-24 -52 -43 -111.5t-19 -116.5h142q0 30 -7.5 60.5t-19.5 60t-26 56.5t-27 51zM413 -11l-15 20q22 12 27 28t5 39q0 17 -6.5 46t-16.5 56.5t-20.5 47.5t-19.5 20l-182 -18q-10 -2 -18.5 -17t-15 -35.5t-10 -43t-3.5 -40.5q0 -16 4.5 -24t12 -13.5t15.5 -11
t16 -16.5q-3 -4 -15 -11t-17 -7l-151 -8v26q3 2 14 7.5t23 13.5t23.5 17.5t16.5 20.5q5 13 15.5 43.5t22 64.5t21.5 65t14 45q6 21 12.5 54t15 71t20 76.5t27 70.5t36.5 52.5t49 22.5l23 -44l9 -27l23.5 -70.5t33 -98t37 -110.5t36 -108t30.5 -90q2 -6 12 -19.5t21 -28
t19.5 -25.5l8.5 -11q0 -10 -8 -16.5t-20 -10t-26.5 -5t-26.5 -1.5q-8 0 -14.5 0.5t-9.5 0.5h-4q-5 0 -11.5 0.5t-14.5 0.5q-7 0 -12 0.5t-6 0.5zM354 696q-9 0 -12 2t-6 7t-8.5 13t-20.5 20q-5 5 -12 8t-12 9q-3 -6 -9.5 -8t-11.5 -7q-14 -12 -19.5 -20t-9 -13t-7 -7
t-12.5 -2l-16 11l8 47l24 39l15 12q11 8 19 14t19 6l13 -2v-2q8 -2 15 -4t26 -17l25 -48l8 -47z" />
    <glyph glyph-name="FL00C3h" unicode="&#xc3;" horiz-adv-x="575" 
d="M398 9l15 -20q1 0 6 -0.5t12 -0.5q8 0 14.5 -0.5t11.5 -0.5h4q3 0 9.5 -0.5t14.5 -0.5q12 0 26.5 1.5t26.5 5t20 10t8 16.5l-8.5 11t-19.5 25.5t-21 28t-12 19.5q-13 38 -30.5 90t-36 108t-37 110.5t-33 98l-23.5 70.5l-9 27l-23 44q-28 -2 -49 -22.5t-36.5 -52.5
t-27 -70.5t-20 -76.5t-15 -71t-12.5 -54q-4 -14 -14 -45t-21.5 -65t-22 -64.5t-15.5 -43.5q-5 -11 -16.5 -20.5t-23.5 -17.5t-23 -13.5t-14 -7.5v-26l151 8q5 0 17 7t15 11q-8 11 -16 16.5t-15.5 11t-12 13.5t-4.5 24q0 18 3.5 40.5t10 43t15 35.5t18.5 17l182 18
q9 0 19.5 -20t20.5 -47.5t16.5 -56.5t6.5 -46q0 -23 -5 -39t-27 -28zM275 532q13 -24 27 -51t26 -56.5t19.5 -60t7.5 -60.5h-142q0 57 19 116.5t43 111.5zM231 825q-10 -6 -14.5 -9t-9.5 -12l-33 -51l-8 -33q3 -15 16 -20q8 0 11.5 1.5t7 5.5t9.5 11.5t20 19.5q5 5 11.5 7
t9.5 8q2 -4 5.5 -5.5t8.5 -3.5q10 -9 16 -15.5t10.5 -11t9.5 -7.5t13 -5l22 -3q7 2 17.5 6t16.5 12l35 46q7 15 8 21.5t1 11.5q0 2 -1 5t-1 7v2l-21 14q-8 0 -11 -1.5t-6 -5.5l-9 -12t-19 -20q-4 -5 -10.5 -7.5t-9.5 -8.5q-3 3 -7.5 5.5t-8.5 4.5q-15 16 -31.5 30.5
t-25.5 14.5h-7z" />
    <glyph glyph-name="FL00C4h" unicode="&#xc4;" horiz-adv-x="575" 
d="M275 532q-24 -52 -43 -111.5t-19 -116.5h142q0 30 -7.5 60.5t-19.5 60t-26 56.5t-27 51zM413 -11l-15 20q22 12 27 28t5 39q0 17 -6.5 46t-16.5 56.5t-20.5 47.5t-19.5 20l-182 -18q-10 -2 -18.5 -17t-15 -35.5t-10 -43t-3.5 -40.5q0 -16 4.5 -24t12 -13.5t15.5 -11
t16 -16.5q-3 -4 -15 -11t-17 -7l-151 -8v26q3 2 14 7.5t23 13.5t23.5 17.5t16.5 20.5q5 13 15.5 43.5t22 64.5t21.5 65t14 45q6 21 12.5 54t15 71t20 76.5t27 70.5t36.5 52.5t49 22.5l23 -44l9 -27l23.5 -70.5t33 -98t37 -110.5t36 -108t30.5 -90q2 -6 12 -19.5t21 -28
t19.5 -25.5l8.5 -11q0 -10 -8 -16.5t-20 -10t-26.5 -5t-26.5 -1.5q-8 0 -14.5 0.5t-9.5 0.5h-4q-5 0 -11.5 0.5t-14.5 0.5q-7 0 -12 0.5t-6 0.5zM320 718q-1 5 -1.5 9.5t-0.5 11.5q0 12 2 25.5t9 20.5q9 12 31 12q23 -7 30 -13.5t7 -12.5l-1 -10q0 -29 -10.5 -47t-33.5 -18
h-6zM195 717q-1 5 -1.5 9.5t-0.5 11.5q0 12 2 25.5t9 20.5q9 12 31 12q23 -7 30 -13.5t7 -12.5l-1 -10q0 -29 -10.5 -47t-33.5 -18h-6z" />
    <glyph glyph-name="FL00C5h" unicode="&#xc5;" horiz-adv-x="575" 
d="M275 532q-24 -52 -43 -111.5t-19 -116.5h142q0 30 -7.5 60.5t-19.5 60t-26 56.5t-27 51zM413 -11l-15 20q22 12 27 28t5 39q0 17 -6.5 46t-16.5 56.5t-20.5 47.5t-19.5 20l-182 -18q-10 -2 -18.5 -17t-15 -35.5t-10 -43t-3.5 -40.5q0 -16 4.5 -24t12 -13.5t15.5 -11
t16 -16.5q-3 -4 -15 -11t-17 -7l-151 -8v26q3 2 14 7.5t23 13.5t23.5 17.5t16.5 20.5q5 13 15.5 43.5t22 64.5t21.5 65t14 45q6 21 12.5 54t15 71t20 76.5t27 70.5t36.5 52.5t49 22.5l23 -44l9 -27l23.5 -70.5t33 -98t37 -110.5t36 -108t30.5 -90q2 -6 12 -19.5t21 -28
t19.5 -25.5l8.5 -11q0 -10 -8 -16.5t-20 -10t-26.5 -5t-26.5 -1.5q-8 0 -14.5 0.5t-9.5 0.5h-4q-5 0 -11.5 0.5t-14.5 0.5q-7 0 -12 0.5t-6 0.5zM251 720q-1 5 -1.5 9.5t-0.5 11.5q0 12 2 25.5t9 20.5q9 12 31 12q23 -7 30 -13.5t7 -12.5l-1 -10q0 -29 -10.5 -47t-33.5 -18
h-6z" />
    <glyph glyph-name="FL00C6h" unicode="&#xc6;" horiz-adv-x="780" 
d="M394 11q11 5 16 11l15 34v42q-3 21 -10 47t-15.5 49t-18 38.5t-17.5 15.5l-182 -18q-11 -2 -19.5 -17t-15 -35.5t-10 -43t-3.5 -40.5q0 -16 5 -24t12 -13.5t15.5 -11t15.5 -16.5q-3 -4 -14.5 -11t-16.5 -7l-151 -8v26q3 2 14 7.5t23 13.5t23.5 17.5t16.5 20.5
q5 13 15.5 43.5t22 64.5t21.5 65t14 45q6 21 13 54t15.5 71t19.5 76.5t26.5 70.5t36.5 52.5t49 22.5l23 -44l8 -23.5t21 -62t29.5 -88t33.5 -101.5v235q-4 5 -9 19t-7 19v18q12 1 37 3t56.5 4.5t66 4.5t66 4t57 3.5t37.5 1.5h14q-5 -16 -12 -36.5t-16 -39t-21 -31t-26 -12.5
q-5 0 -9.5 1.5t-6.5 3.5l16 37h-168v-189h152l46 38q0 -2 1 -9t1 -12q0 -2 -1 -8.5t-1 -8.5q-5 -14 -14.5 -33.5t-20 -37.5t-18 -31l-7.5 -13h-16v39h-106v-223q1 -1 1 -2t2 -2h163q8 11 19 23t23.5 21.5t25.5 15.5t27 6q0 -15 -6 -39t-16 -47t-22.5 -40t-25.5 -17h-9
q-16 0 -55.5 2t-84.5 4q-12 -11 -34.5 -14.5t-41.5 -3.5q-8 0 -14.5 0.5t-9.5 0.5h-4q-5 0 -11.5 0.5t-14.5 0.5t-13 0.5l-5 0.5zM272 534q-24 -52 -43 -111.5t-19 -116.5h142q0 30 -7.5 60.5t-19.5 60t-26 56.5t-27 51z" />
    <glyph glyph-name="FL00C7h" unicode="&#xc7;" horiz-adv-x="461" 
d="M247 -19l5 18h-2q-116 0 -176.5 77t-60.5 222q0 82 21 144t58.5 103.5t90 62.5t114.5 21h68q11 -4 14 -18.5t3 -28.5q0 -8 -0.5 -14t-0.5 -9q0 -2 0.5 -7.5t0.5 -13.5q0 -15 -3 -29t-14 -16q-16 27 -28 42.5t-23.5 23t-25.5 9.5t-33 2q-39 0 -72 -24.5t-57 -63
t-37.5 -86.5t-13.5 -95v-17q5 -57 24.5 -101.5t50 -75t70 -46.5t84.5 -16q35 0 62.5 16.5t59.5 32.5l2.5 1.5t3.5 1.5q2 0 5 -1.5l3 -1.5q5 -2 9.5 -7.5t5.5 -9.5q-16 -27 -37 -42.5t-44.5 -23.5t-48.5 -10t-50 -2q5 -11 6 -21.5t1 -13.5l8 -65l-99 -13l-29 12q0 9 3.5 14.5
t8 8.5t9.5 3.5t7 0.5h1q2 0 8.5 1t14.5 1.5t16.5 1.5t15.5 1z" />
    <glyph glyph-name="FL00C8h" unicode="&#xc8;" horiz-adv-x="376" 
d="M5 18l16 38v513q-5 5 -9.5 19t-6.5 19v18q12 1 36.5 3t56 4.5t66.5 4.5t66.5 4t57 3.5t37.5 1.5h14q-5 -16 -12 -36.5t-16 -39t-21 -31t-26 -12.5q-5 0 -9.5 1.5t-6.5 3.5l16 37h-168v-189h152l46 38q0 -2 1 -9t1 -12q0 -2 -1 -8.5t-1 -8.5q-5 -14 -14.5 -33.5t-20 -37.5
t-18 -31l-7.5 -13h-16v39l-126 1v-227l186 -1q8 11 19 23t23.5 21.5t25.5 15.5t27 6q0 -15 -6 -39t-16 -47t-22.5 -40t-25.5 -17h-9q-11 0 -33.5 1t-51 2.5t-60.5 4t-60.5 4.5t-51 3.5t-32.5 2.5zM222 701l-16 -11q-9 0 -13.5 1t-9.5 4.5t-12 11t-21 19.5q-5 6 -9 13l-8 14
l-1 2q-11 16 -15 42q0 5 2 9t4 11l13 2q11 0 19.5 -5.5t18.5 -14.5l16 -12l23 -39z" />
    <glyph glyph-name="FL00C9h" unicode="&#xc9;" horiz-adv-x="376" 
d="M5 18l16 38v513q-5 5 -9.5 19t-6.5 19v18q12 1 36.5 3t56 4.5t66.5 4.5t66.5 4t57 3.5t37.5 1.5h14q-5 -16 -12 -36.5t-16 -39t-21 -31t-26 -12.5q-5 0 -9.5 1.5t-6.5 3.5l16 37h-168v-189h152l46 38q0 -2 1 -9t1 -12q0 -2 -1 -8.5t-1 -8.5q-5 -14 -14.5 -33.5t-20 -37.5
t-18 -31l-7.5 -13h-16v39l-126 1v-227l186 -1q8 11 19 23t23.5 21.5t25.5 15.5t27 6q0 -15 -6 -39t-16 -47t-22.5 -40t-25.5 -17h-9q-11 0 -33.5 1t-51 2.5t-60.5 4t-60.5 4.5t-51 3.5t-32.5 2.5zM159 755l23 39l16 12q10 9 18.5 14.5t19.5 5.5l13 -2q2 -7 4 -11t2 -9
q-5 -26 -15 -42l-1 -2l-8 -14t-9 -13q-14 -12 -21 -19.5t-12 -11t-9.5 -4.5t-13.5 -1l-16 11z" />
    <glyph glyph-name="FL00CAh" unicode="&#xca;" horiz-adv-x="376" 
d="M5 18l16 38v513q-5 5 -9.5 19t-6.5 19v18q12 1 36.5 3t56 4.5t66.5 4.5t66.5 4t57 3.5t37.5 1.5h14q-5 -16 -12 -36.5t-16 -39t-21 -31t-26 -12.5q-5 0 -9.5 1.5t-6.5 3.5l16 37h-168v-189h152l46 38q0 -2 1 -9t1 -12q0 -2 -1 -8.5t-1 -8.5q-5 -14 -14.5 -33.5t-20 -37.5
t-18 -31l-7.5 -13h-16v39l-126 1v-227l186 -1q8 11 19 23t23.5 21.5t25.5 15.5t27 6q0 -15 -6 -39t-16 -47t-22.5 -40t-25.5 -17h-9q-11 0 -33.5 1t-51 2.5t-60.5 4t-60.5 4.5t-51 3.5t-32.5 2.5zM261 703q-9 0 -12.5 2t-6.5 7t-8.5 13t-19.5 20q-5 5 -12.5 8t-11.5 9
q-3 -6 -10 -8t-11 -7q-14 -12 -20 -20t-9.5 -13t-7 -7t-12.5 -2l-16 11l9 47l23 39l15 12q11 8 19 14t20 6l12 -2v-2q8 -2 15 -4t26 -17l25 -48l9 -47z" />
    <glyph glyph-name="FL00CBh" unicode="&#xcb;" horiz-adv-x="376" 
d="M5 18l16 38v513q-5 5 -9.5 19t-6.5 19v18q12 1 36.5 3t56 4.5t66.5 4.5t66.5 4t57 3.5t37.5 1.5h14q-5 -16 -12 -36.5t-16 -39t-21 -31t-26 -12.5q-5 0 -9.5 1.5t-6.5 3.5l16 37h-168v-189h152l46 38q0 -2 1 -9t1 -12q0 -2 -1 -8.5t-1 -8.5q-5 -14 -14.5 -33.5t-20 -37.5
t-18 -31l-7.5 -13h-16v39l-126 1v-227l186 -1q8 11 19 23t23.5 21.5t25.5 15.5t27 6q0 -15 -6 -39t-16 -47t-22.5 -40t-25.5 -17h-9q-11 0 -33.5 1t-51 2.5t-60.5 4t-60.5 4.5t-51 3.5t-32.5 2.5zM217 721q-1 5 -2 9.5t-1 11.5q0 12 2.5 25.5t9.5 20.5q9 12 31 12
q23 -7 30 -13.5t7 -12.5l-1 -10q0 -29 -11 -47t-33 -18h-7zM92 720q-1 5 -1.5 9.5t-0.5 11.5q0 12 2 25.5t9 20.5q9 12 31 12q23 -7 30 -13.5t7 -12.5l-1 -10q0 -29 -10.5 -47t-33.5 -18h-6z" />
    <glyph glyph-name="FL00CCh" unicode="&#xcc;" horiz-adv-x="177" 
d="M9 18l30 38q1 2 4 22.5t6 48t5 56t2 45.5v115q1 1 1 6v6q0 33 -5 67.5t-11.5 68t-11.5 65.5t-5 62q0 2 0.5 4.5l0.5 2.5q1 1 7 3.5t13 5.5l14 6t11 6h16q4 0 15 -2.5t23 -6t23 -7t15 -5.5l1 -8q0 -1 -0.5 -5.5l-0.5 -4.5q-4 -7 -15.5 -19.5t-16.5 -18.5v-513q5 0 17 -7
t15 -11l0.5 -4t0.5 -5q0 -11 -7 -17.5t-17.5 -10.5t-23 -5t-23.5 -1q-8 0 -12.5 0.5t-9.5 0.5h-2q-9 0 -24 2t-19 2zM134 706l-16 -11q-9 0 -13.5 1t-9 4.5t-11.5 11t-21 19.5q-5 6 -9 13l-8 14l-1 2q-11 16 -15 42q0 5 2 9t4 11l13 2q11 0 19.5 -5.5t18.5 -14.5l15 -12
l24 -39z" />
    <glyph glyph-name="FL00CDh" unicode="&#xcd;" horiz-adv-x="177" 
d="M9 18l30 38q1 2 4 22.5t6 48t5 56t2 45.5v115q1 1 1 6v6q0 33 -5 67.5t-11.5 68t-11.5 65.5t-5 62q0 2 0.5 4.5l0.5 2.5q1 1 7 3.5t13 5.5l14 6t11 6h16q4 0 15 -2.5t23 -6t23 -7t15 -5.5l1 -8q0 -1 -0.5 -5.5l-0.5 -4.5q-4 -7 -15.5 -19.5t-16.5 -18.5v-513q5 0 17 -7
t15 -11l0.5 -4t0.5 -5q0 -11 -7 -17.5t-17.5 -10.5t-23 -5t-23.5 -1q-8 0 -12.5 0.5t-9.5 0.5h-2q-9 0 -24 2t-19 2zM42 751l24 39l15 12q10 9 18.5 14.5t19.5 5.5l13 -2q2 -7 4 -11t2 -9q-5 -26 -15 -42l-1 -2l-8 -14t-9 -13q-14 -12 -21 -19.5t-12 -11t-9.5 -4.5t-12.5 -1
l-16 11z" />
    <glyph glyph-name="FL00CEh" unicode="&#xce;" horiz-adv-x="177" 
d="M9 18l30 38q1 2 4 22.5t6 48t5 56t2 45.5v115q1 1 1 6v6q0 33 -5 67.5t-11.5 68t-11.5 65.5t-5 62q0 2 0.5 4.5l0.5 2.5q1 1 7 3.5t13 5.5l14 6t11 6h16q4 0 15 -2.5t23 -6t23 -7t15 -5.5l1 -8q0 -1 -0.5 -5.5l-0.5 -4.5q-4 -7 -15.5 -19.5t-16.5 -18.5v-513q5 0 17 -7
t15 -11l0.5 -4t0.5 -5q0 -11 -7 -17.5t-17.5 -10.5t-23 -5t-23.5 -1q-8 0 -12.5 0.5t-9.5 0.5h-2q-9 0 -24 2t-19 2zM153 700q-9 0 -12.5 2t-6.5 7t-8.5 13t-19.5 20q-5 5 -12.5 8t-11.5 9q-3 -6 -10 -8t-11 -7q-14 -12 -20 -20t-9.5 -13t-7 -7t-12.5 -2l-16 11l9 47l23 39
l15 12q11 8 19 14t20 6l12 -2v-2q8 -2 15 -4t26 -17l25 -48l9 -47z" />
    <glyph glyph-name="FL00CFh" unicode="&#xcf;" horiz-adv-x="177" 
d="M9 18l30 38q1 2 4 22.5t6 48t5 56t2 45.5v115q1 1 1 6v6q0 33 -5 67.5t-11.5 68t-11.5 65.5t-5 62q0 2 0.5 4.5l0.5 2.5q1 1 7 3.5t13 5.5l14 6t11 6h16q4 0 15 -2.5t23 -6t23 -7t15 -5.5l1 -8q0 -1 -0.5 -5.5l-0.5 -4.5q-4 -7 -15.5 -19.5t-16.5 -18.5v-513q5 0 17 -7
t15 -11l0.5 -4t0.5 -5q0 -11 -7 -17.5t-17.5 -10.5t-23 -5t-23.5 -1q-8 0 -12.5 0.5t-9.5 0.5h-2q-9 0 -24 2t-19 2zM118 725q0 5 -1 9.5t-1 11.5q0 12 2 25.5t9 20.5q5 7 13.5 9.5t17.5 2.5q24 -7 30.5 -13.5t6.5 -12.5l-1 -10q0 -29 -10.5 -47t-33.5 -18h-6zM-6 724
q-1 5 -2 9.5t-1 11.5q0 12 2.5 25.5t8.5 20.5q11 12 32 12q23 -7 29.5 -13.5t6.5 -12.5v-10q0 -29 -11 -47t-33 -18h-7z" />
    <glyph glyph-name="FL00D0h" unicode="&#xd0;" horiz-adv-x="447" 
d="M56 297l38 1v192q-5 4 -9.5 15t-4.5 16q0 4 4.5 10.5t9.5 6.5h202q35 0 61 -26t43 -63.5t25.5 -80t8.5 -75.5q0 -76 -25.5 -131.5t-66.5 -91.5t-93 -53.5t-105 -17.5h-50q-5 1 -9.5 7t-4.5 9q0 5 4.5 17t9.5 15v206h-52l-29 12q0 9 6 15.5t13.5 10t14.5 5t9 1.5zM170 64
q3 -2 10 -4.5t14.5 -5t14.5 -4.5t11 -3h6q34 0 61.5 21.5t46 55.5t28.5 74.5t10 78.5q0 47 -11 86.5t-31.5 68t-50.5 44.5t-68 16q-2 0 -6 0.5t-8 0.5q-10 0 -18.5 -3.5t-8.5 -15.5q-2 -9 -3.5 -28.5t-3 -43.5t-3 -51t-2.5 -52l47 2q9 0 16.5 -1t8.5 -1l12 -15
q-3 -7 -12.5 -12t-20.5 -8.5t-21.5 -6t-16.5 -4.5q-1 -1 -2 -1q-2 0 -3 1h-9q-1 -5 -1 -10v-9v-13q0 -9 1.5 -31.5t4 -47t4.5 -47t4 -31.5z" />
    <glyph glyph-name="FL00D1h" unicode="&#xd1;" horiz-adv-x="506" 
d="M54 170v8v12q0 14 -1 43.5t-2.5 67t-3.5 79t-3.5 79t-3 67t-2.5 43.5q-26 5 -31 20.5t-5 44.5q47 0 86.5 -23.5t73.5 -62t63.5 -88t56.5 -101t53 -101t52 -88.5v143q2 19 2.5 37t0.5 36q0 48 -3.5 91t-14.5 92q-5 0 -15 7t-15 12l-1 4t-1 6q0 1 1 5l1 4q3 3 9.5 6
t13.5 5.5t13.5 4.5t8.5 2q6 0 21.5 -1.5t32.5 -4.5t31.5 -6t20.5 -6q-7 -16 -17.5 -20.5t-20 -7.5t-16 -10.5t-6.5 -29.5v-46q0 -15 1 -47.5t2.5 -73.5t3 -87t3 -87t3 -73.5t2.5 -47.5q6 -11 14.5 -17t17 -11.5t14.5 -14t6 -23.5q-3 0 -11 -0.5t-19 -0.5q-12 0 -26 1
t-27.5 4t-25.5 8.5t-19 14.5q-5 9 -15.5 27t-24 40.5l-28.5 47.5t-28.5 47t-24 39.5t-15.5 25.5l-122 228q-2 5 -6.5 11t-9.5 8v-435q3 -3 7.5 -8.5l9 -11t8.5 -11t6 -8.5q0 -1 1 -5.5t1 -6.5t-1 -5l-1 -3l-122 -18l-1 10q0 1 0.5 4.5l0.5 3.5q1 2 6.5 7.5t10.5 12t9.5 11.5
t4.5 7t1.5 16t4 32t5.5 36.5t5 29.5zM182 822l15 2h7q9 0 26 -14.5t31 -30.5l9 -4.5t7 -5.5q3 6 9.5 8.5t11.5 7.5q13 12 18.5 20t8.5 12t6 5.5t11 1.5l21 -14v-2q0 -4 1 -7t1 -5q0 -5 -1 -11.5t-8 -21.5l-34 -46q-7 -8 -17.5 -12t-17.5 -6l-22 3q-8 2 -13 5t-9.5 7.5
t-10.5 11t-16 15.5q-5 2 -8.5 3.5t-5.5 5.5q-3 -6 -9.5 -8t-10.5 -7q-14 -12 -20 -19.5t-9.5 -11.5t-7 -5.5t-11.5 -1.5q-14 5 -17 20l9 33l32 51q6 9 10.5 12z" />
    <glyph glyph-name="FL00D2h" unicode="&#xd2;" horiz-adv-x="514" 
d="M82 56q36 -26 68.5 -41.5t73.5 -15.5q58 0 110 23t90 65.5t60.5 104.5t22.5 140q0 73 -20 131.5t-55.5 99t-84.5 62t-107 21.5h-6q-51 -29 -93.5 -60t-72.5 -71.5t-47 -93t-17 -123.5q0 -12 0.5 -30.5t0.5 -21.5v-6q0 -15 7.5 -42.5t19 -56.5t25 -53t25.5 -32zM81 312
q0 49 8 95.5t26.5 82.5t48.5 58t75 22q40 0 75 -20.5t61 -55.5t40.5 -82t14.5 -99q0 -49 -12 -95.5t-34.5 -83t-55 -58.5t-72.5 -22q-39 0 -71 23t-55 60t-36 83t-13 92zM288 710l-9 47l-23 39l-15 12q-11 9 -19 14.5t-20 5.5l-12 -2q-2 -7 -4.5 -11t-2.5 -9q4 -24 15 -42
l1 -2q5 -7 9 -14t9 -13q14 -12 21 -19.5t11.5 -11t9 -4.5t13.5 -1z" />
    <glyph glyph-name="FL00D3h" unicode="&#xd3;" horiz-adv-x="514" 
d="M82 56q36 -26 68.5 -41.5t73.5 -15.5q58 0 110 23t90 65.5t60.5 104.5t22.5 140q0 73 -20 131.5t-55.5 99t-84.5 62t-107 21.5h-6q-51 -29 -93.5 -60t-72.5 -71.5t-47 -93t-17 -123.5q0 -12 0.5 -30.5t0.5 -21.5v-6q0 -15 7.5 -42.5t19 -56.5t25 -53t25.5 -32zM81 312
q0 49 8 95.5t26.5 82.5t48.5 58t75 22q40 0 75 -20.5t61 -55.5t40.5 -82t14.5 -99q0 -49 -12 -95.5t-34.5 -83t-55 -58.5t-72.5 -22q-39 0 -71 23t-55 60t-36 83t-13 92zM212 759l-9 -47l16 -11q9 0 13.5 1t9 4.5t11.5 11t21 19.5q6 6 9.5 13t8.5 14l1 2q10 18 15 42
q0 5 -2 9t-4 11l-13 2q-11 0 -19.5 -5.5t-19.5 -14.5l-15 -12z" />
    <glyph glyph-name="FL00D4h" unicode="&#xd4;" horiz-adv-x="514" 
d="M82 56q36 -26 68.5 -41.5t73.5 -15.5q58 0 110 23t90 65.5t60.5 104.5t22.5 140q0 73 -20 131.5t-55.5 99t-84.5 62t-107 21.5h-6q-51 -29 -93.5 -60t-72.5 -71.5t-47 -93t-17 -123.5q0 -12 0.5 -30.5t0.5 -21.5v-6q0 -15 7.5 -42.5t19 -56.5t25 -53t25.5 -32zM81 312
q0 49 8 95.5t26.5 82.5t48.5 58t75 22q40 0 75 -20.5t61 -55.5t40.5 -82t14.5 -99q0 -49 -12 -95.5t-34.5 -83t-55 -58.5t-72.5 -22q-39 0 -71 23t-55 60t-36 83t-13 92zM323 697l16 11l-9 47l-24 48q-19 15 -26.5 17t-14.5 4v2l-13 2q-11 0 -19 -6t-19 -14l-16 -12l-23 -39
l-9 -47l16 -11q9 0 12.5 2t7 7t9.5 13t20 20q5 5 11.5 7t9.5 8q5 -6 12 -9t12 -8q14 -12 20 -20.5t9 -13t6 -6.5t12 -2z" />
    <glyph glyph-name="FL00D5h" unicode="&#xd5;" horiz-adv-x="514" 
d="M81 312q0 -46 13 -92t36 -83t55 -60t71 -23q40 0 72.5 22t55 58.5t34.5 83t12 95.5q0 52 -14.5 99t-40.5 82t-61 55.5t-75 20.5q-45 0 -75 -22t-48.5 -58t-26.5 -82.5t-8 -95.5zM82 56q-12 8 -25.5 32t-25 53t-19 56.5t-7.5 42.5v6q0 3 -0.5 21.5t-0.5 30.5
q0 71 17 123.5t47 93t72.5 71.5t93.5 60h6q58 0 107 -21.5t84.5 -62t55.5 -99t20 -131.5q0 -78 -22.5 -140t-60.5 -104.5t-90 -65.5t-110 -23q-41 0 -73.5 15.5t-68.5 41.5zM193 823l14 2h7q9 0 26 -14.5t31 -30.5q5 -2 9.5 -4.5t6.5 -5.5q3 6 9.5 8.5t11.5 7.5
q13 12 18.5 20t8.5 12t6 5.5t12 1.5l21 -14v-2q0 -4 0.5 -7t0.5 -5q0 -5 -1 -11.5t-8 -21.5l-34 -46q-7 -8 -17.5 -12t-16.5 -6l-23 3q-8 2 -12.5 5t-9 7.5l-11 11t-16.5 15.5q-4 2 -7.5 3.5t-5.5 5.5q-3 -6 -9.5 -8t-11.5 -7q-14 -12 -20 -19.5t-9.5 -11.5t-7 -5.5
t-11.5 -1.5q-8 3 -11.5 8t-5.5 12l9 33l33 51q5 9 9.5 12t14.5 9z" />
    <glyph glyph-name="FL00D6h" unicode="&#xd6;" horiz-adv-x="514" 
d="M82 56q36 -26 68.5 -41.5t73.5 -15.5q58 0 110 23t90 65.5t60.5 104.5t22.5 140q0 73 -20 131.5t-55.5 99t-84.5 62t-107 21.5h-6q-51 -29 -93.5 -60t-72.5 -71.5t-47 -93t-17 -123.5q0 -12 0.5 -30.5t0.5 -21.5v-6q0 -15 7.5 -42.5t19 -56.5t25 -53t25.5 -32zM81 312
q0 49 8 95.5t26.5 82.5t48.5 58t75 22q40 0 75 -20.5t61 -55.5t40.5 -82t14.5 -99q0 -49 -12 -95.5t-34.5 -83t-55 -58.5t-72.5 -22q-39 0 -71 23t-55 60t-36 83t-13 92zM277 725l25 -22h7q22 0 33 18t11 47l1 10q0 6 -7 12.5t-30 13.5q-22 0 -31 -12q-7 -7 -9.5 -20.5
t-2.5 -25.5q0 -7 1 -11.5t2 -9.5zM152 724l26 -22h6q23 0 33.5 18t10.5 47l1 10q0 6 -7 12.5t-30 13.5q-22 0 -31 -12q-7 -7 -9 -20.5t-2 -25.5q0 -7 0.5 -11.5t1.5 -9.5z" />
    <glyph glyph-name="FL00D7h" unicode="&#xd7;" horiz-adv-x="279" 
d="M180 134q2 1 8 7t6 9l-3 5.5t-15.5 27t-38.5 60.5q-9 -8 -18 -19t-18 -23t-16.5 -23.5t-12.5 -19.5q5 -3 10.5 -10t5.5 -14h-74v8q12 2 29.5 18.5t33 37.5t27 41.5t11.5 31.5v4q-2 2 -3.5 7.5t-3.5 7.5l-58 78q-2 0 -7 3t-7 5l-0.5 1t-0.5 3q0 12 15 12h7q2 0 8.5 -1.5
t14 -3t13.5 -2.5t8 -1l1 -4l-1 -4q-1 -2 -3 -4l-4 -4l43 -62l2 3q6 5 13 12t13 15t10.5 16.5t4.5 15.5q0 2 -3 5t-4 3q-1 3 -1 8h58l4 -7q-11 0 -24 -10.5t-24.5 -25t-19.5 -30t-8 -25.5v-3q2 -2 4 -8t4 -8q8 -12 20 -32t23.5 -39t20 -32.5l8.5 -13.5l29 -16v-11l-73 3
q-2 0 -7 3t-7 5z" />
    <glyph glyph-name="FL00D8h" unicode="&#xd8;" horiz-adv-x="514" 
d="M82 56q-12 8 -25.5 32t-25 53t-19 56.5t-7.5 42.5v6q0 3 -0.5 21.5t-0.5 30.5q0 71 17 123.5t47 93t72.5 71.5t93.5 60h6q58 0 107 -21.5t84.5 -62t55.5 -99t20 -131.5q0 -78 -22.5 -140t-60.5 -104.5t-90 -65.5t-110 -23q-41 0 -73.5 15.5t-68.5 41.5zM81 312
q0 -46 12.5 -91.5t35.5 -82.5q62 94 102.5 165t64.5 119.5t34.5 74.5t12.5 31q-45 42 -104 42q-45 0 -75 -22t-48.5 -58t-26.5 -82.5t-8 -95.5zM430 313q0 48 -12 90.5t-34 77.5l-219 -391q15 -6 25 -12.5t19 -11.5t19.5 -8.5t27.5 -3.5q40 0 72.5 22t55 58.5t34.5 83
t12 95.5z" />
    <glyph glyph-name="FL00D9h" unicode="&#xd9;" horiz-adv-x="544" 
d="M74 532v-418q0 -14 8.5 -31t19.5 -33.5t23 -30t18 -19.5q5 0 14.5 -0.5t22.5 -0.5q14 0 23.5 -1.5t14.5 -1.5q57 0 105 16.5t94 64.5q-2 -4 -2 -10q0 -8 1.5 -18.5t4 -20.5t5.5 -17.5t5 -10.5l8 -0.5t13 -0.5q10 0 25 2t29 8t24 17t10 30h-49v558q-8 0 -28 -1t-40.5 -6
t-36.5 -16t-16 -32v-9q3 -4 14.5 -10.5t16.5 -7.5q3 -5 9.5 -11.5t6.5 -8.5v-360q0 -26 -20.5 -44.5t-47.5 -30.5t-53.5 -17.5t-38.5 -5.5q-13 0 -30 3.5t-32.5 12.5t-26 24t-10.5 38v456l-31 37l-11 -3.5t-25.5 -9t-29.5 -12t-25 -12.5q-2 -2 -14.5 -7.5t-15.5 -11.5
q4 -11 13 -18t19.5 -11.5t20.5 -6t15 -1.5zM313 711l-9 47l-23 39l-15 12q-11 9 -19.5 14.5t-19.5 5.5l-13 -2q-2 -7 -4 -11t-2 -9q4 -24 15 -42l1 -2q5 -7 8.5 -14t9.5 -13q13 -12 20.5 -19.5t12 -11t9 -4.5t13.5 -1z" />
    <glyph glyph-name="FL00DAh" unicode="&#xda;" horiz-adv-x="544" 
d="M74 532v-418q0 -14 8.5 -31t19.5 -33.5t23 -30t18 -19.5q5 0 14.5 -0.5t22.5 -0.5q14 0 23.5 -1.5t14.5 -1.5q57 0 105 16.5t94 64.5q-2 -4 -2 -10q0 -8 1.5 -18.5t4 -20.5t5.5 -17.5t5 -10.5l8 -0.5t13 -0.5q10 0 25 2t29 8t24 17t10 30h-49v558q-8 0 -28 -1t-40.5 -6
t-36.5 -16t-16 -32v-9q3 -4 14.5 -10.5t16.5 -7.5q3 -5 9.5 -11.5t6.5 -8.5v-360q0 -26 -20.5 -44.5t-47.5 -30.5t-53.5 -17.5t-38.5 -5.5q-13 0 -30 3.5t-32.5 12.5t-26 24t-10.5 38v456l-31 37l-11 -3.5t-25.5 -9t-29.5 -12t-25 -12.5q-2 -2 -14.5 -7.5t-15.5 -11.5
q4 -11 13 -18t19.5 -11.5t20.5 -6t15 -1.5zM247 758l-9 -47l16 -11q9 0 13.5 1t9.5 4.5t12 11t21 19.5q5 6 9 13l8 14l1 2q10 18 15 42q0 5 -2 9t-4 11l-13 2q-11 0 -19.5 -5.5t-18.5 -14.5l-16 -12z" />
    <glyph glyph-name="FL00DBh" unicode="&#xdb;" horiz-adv-x="544" 
d="M74 532v-418q0 -14 8.5 -31t19.5 -33.5t23 -30t18 -19.5q5 0 14.5 -0.5t22.5 -0.5q14 0 23.5 -1.5t14.5 -1.5q57 0 105 16.5t94 64.5q-2 -4 -2 -10q0 -8 1.5 -18.5t4 -20.5t5.5 -17.5t5 -10.5l8 -0.5t13 -0.5q10 0 25 2t29 8t24 17t10 30h-49v558q-8 0 -28 -1t-40.5 -6
t-36.5 -16t-16 -32v-9q3 -4 14.5 -10.5t16.5 -7.5q3 -5 9.5 -11.5t6.5 -8.5v-360q0 -26 -20.5 -44.5t-47.5 -30.5t-53.5 -17.5t-38.5 -5.5q-13 0 -30 3.5t-32.5 12.5t-26 24t-10.5 38v456l-31 37l-11 -3.5t-25.5 -9t-29.5 -12t-25 -12.5q-2 -2 -14.5 -7.5t-15.5 -11.5
q4 -11 13 -18t19.5 -11.5t20.5 -6t15 -1.5zM347 697l16 11l-9 47l-24 48q-19 15 -26.5 17t-14.5 4v2l-13 2q-11 0 -19 -6t-19 -14l-16 -12l-23 -39l-9 -47l16 -11q9 0 12.5 2t7 7t9.5 13t20 20q5 5 11.5 7t9.5 8q5 -6 12 -9t12 -8q14 -12 20 -20.5t9 -13t6 -6.5t12 -2z" />
    <glyph glyph-name="FL00DCh" unicode="&#xdc;" horiz-adv-x="544" 
d="M74 532q-5 0 -15 1.5t-20.5 6t-19.5 11.5t-13 18q3 6 15.5 11.5t14.5 7.5q10 6 25 12.5t29.5 12t25.5 9l11 3.5l31 -37v-456q0 -23 10.5 -38t26 -24t32.5 -12.5t30 -3.5q12 0 38.5 5.5t53.5 17.5t47.5 30.5t20.5 44.5v360q0 2 -6.5 8.5t-9.5 11.5q-5 0 -16.5 7t-14.5 11
v9q0 21 16 32t36.5 16t40.5 6t28 1v-558h49q0 -19 -10 -30t-24 -17t-29 -8t-25 -2q-5 0 -13 0.5l-8 0.5q-2 3 -5 10.5t-5.5 17.5t-4 20.5t-1.5 18.5q0 4 2 10q-46 -48 -94 -64.5t-105 -16.5q-5 0 -14.5 1.5t-23.5 1.5q-13 0 -22.5 0.5t-14.5 0.5q-6 6 -18 19.5t-23 30
t-19.5 33.5t-8.5 31v418zM312 717q-1 5 -1.5 9.5t-0.5 11.5q0 12 2 25.5t9 20.5q9 12 31 12q23 -7 30 -13.5t7 -12.5l-1 -10q0 -29 -10.5 -47t-33.5 -18h-6zM187 716q-1 5 -1.5 9.5t-0.5 11.5q0 12 2 25.5t9 20.5q9 12 31 12q23 -7 30 -13.5t7 -12.5l-1 -10q0 -29 -10.5 -47
t-33.5 -18h-6z" />
    <glyph glyph-name="FL00DDh" unicode="&#xdd;" horiz-adv-x="580" 
d="M269 82q0 -12 -3 -22.5t-6.5 -20t-6.5 -19t-3 -20.5h128q0 31 -5.5 62.5t-12.5 63.5t-12.5 64.5t-5.5 65.5q0 77 10 128t26 83.5t37 50.5t42.5 30t42.5 20.5t37 22.5t26 36.5t10 62.5q-50 0 -84.5 -25t-63 -61t-55 -76t-59.5 -71q-23 40 -47 75t-51.5 61t-60.5 41.5
t-75 15.5h-11q-12 0 -25 -0.5t-17 -2.5q-5 -2 -9.5 -8t-6.5 -10l-1 -4.5t-1 -5.5l2 -11q62 -6 106 -30t73 -61.5t45.5 -86.5t24.5 -105.5t10 -118t2 -124.5zM271 754l-9 -47l16 -11q9 0 13.5 1t9.5 4.5t12 11t21 19.5q5 6 9 13l8 14l1 2q10 18 15 42q0 5 -2 9t-4 11l-13 2
q-11 0 -19.5 -5.5t-18.5 -14.5l-16 -12z" />
    <glyph glyph-name="FL00DEh" unicode="&#xde;" horiz-adv-x="276" 
d="M-4 15l26 32q1 1 1.5 22.5t1.5 49.5t2 55.5t3 41.5v230q-10 54 -16 94t-6 74q0 2 0.5 4l0.5 2q1 1 5.5 3t10.5 4.5l12 5t9 4.5h13q3 0 12.5 -2t19.5 -5t19 -6l12 -4l2 -7q0 -1 -1 -4.5l-1 -3.5q-3 -6 -12 -16.5t-14 -15.5v-108q32 -1 62.5 -7.5t54.5 -23.5t38.5 -46
t14.5 -75q0 -42 -15 -72t-39 -50t-54 -31t-60 -14v-99q4 0 13 -6t12 -9l1 -3.5t1 -4.5q0 -9 -6 -14.5t-15 -8.5t-19 -4t-19 -1q-7 0 -11.5 0.5t-7.5 0.5h-1q-3 0 -8.5 0.5t-11.5 1t-10.5 1t-5.5 0.5zM96 415v-210q19 0 39.5 3.5t37.5 13t28 27.5t11 47q0 21 -9.5 42.5
t-24.5 38.5t-33 28t-36 11q-3 0 -7 -0.5t-6 -0.5z" />
    <glyph glyph-name="FL00DFh" unicode="&#xdf;" horiz-adv-x="323" 
d="M27 298l-20 165q0 1 3.5 9.5t8 19t8.5 18.5l4 8l1 1q0 2 8.5 3.5t37.5 9.5h22q26 0 58.5 -7.5t60.5 -25t47 -45.5t19 -68q0 -14 -1.5 -25t-6 -20.5t-12 -19t-18.5 -21.5q6 -3 15.5 -13t19 -22t17.5 -24.5t11 -19.5q0 -1 0.5 -10t1.5 -22t1 -19q0 -52 -12 -83.5t-33.5 -49
t-51.5 -23t-65 -5.5q-4 16 -4 28q0 14 6.5 18.5t15.5 4.5q16 0 30 -7q33 0 41.5 12t8.5 38q0 10 -0.5 22t-0.5 26q0 43 -16.5 73t-54.5 30l-45 8l2 54q16 1 31.5 5.5t28 13t20.5 22t8 31.5q0 15 -4.5 30t-12 27.5t-18 20.5t-23.5 8l-88 -6l29 -417q1 0 3.5 -11.5t5 -29
t6 -38.5t6 -38.5t5 -30t3.5 -13.5l0.5 -3.5t0.5 -4.5v-6q0 -11 -4 -13t-15 -4l-13 -1q-4 -1 -11 -1h-7h-2q-7 -1 -12.5 -2t-8.5 -1l-11 14l-11 176l0.5 2t0.5 5q0 7 -0.5 19t-1.5 26t-1.5 29t-1.5 29l-9 136v8z" />
    <glyph glyph-name="FL00E0h" unicode="&#xe0;" horiz-adv-x="488" 
d="M231 435q-19 -42 -35.5 -92t-16.5 -98h119q0 26 -6.5 51.5t-16 49.5t-21.5 46.5t-23 42.5zM350 -16l-13 17q19 10 22.5 23.5t3.5 32.5q0 14 -6 38t-14.5 46.5t-18 39t-16.5 16.5l-152 -15q-8 -2 -15 -14t-11.5 -29t-7 -35.5t-2.5 -33.5q0 -14 4 -20.5t10 -11t13 -9
t13 -13.5q-3 -3 -12 -9t-14 -6l-126 -7v22q3 2 12 6.5t19.5 11t19.5 14.5t13 17q4 11 12 36.5t17 53.5t17 53t12 37q5 17 11 45.5t13.5 61.5t17.5 66t22 60t27 44t33 17l28 -41l8 -22.5t20.5 -58.5t28 -81.5t31 -92t30.5 -90t26 -74.5q1 -5 9.5 -16.5t17.5 -23.5t17 -21
l8 -9q0 -8 -7 -13.5t-17 -8.5t-22 -4t-22 -1q-7 0 -12.5 0.5t-7.5 0.5h-4h-10q-5 0 -11 0.5t-11 0.5h-4zM284 614l-16 -11q-9 0 -13.5 1t-9 4.5t-11.5 11t-21 19.5q-5 6 -9 13t-9 14l-1 2q-11 16 -15 42q0 5 2.5 9t4.5 11l12 2q12 0 20 -5.5t19 -14.5l15 -12l23 -39z" />
    <glyph glyph-name="FL00E1h" unicode="&#xe1;" horiz-adv-x="488" 
d="M231 435q-19 -42 -35.5 -92t-16.5 -98h119q0 26 -6.5 51.5t-16 49.5t-21.5 46.5t-23 42.5zM350 -16l-13 17q19 10 22.5 23.5t3.5 32.5q0 14 -6 38t-14.5 46.5t-18 39t-16.5 16.5l-152 -15q-8 -2 -15 -14t-11.5 -29t-7 -35.5t-2.5 -33.5q0 -14 4 -20.5t10 -11t13 -9
t13 -13.5q-3 -3 -12 -9t-14 -6l-126 -7v22q3 2 12 6.5t19.5 11t19.5 14.5t13 17q4 11 12 36.5t17 53.5t17 53t12 37q5 17 11 45.5t13.5 61.5t17.5 66t22 60t27 44t33 17l28 -41l8 -22.5t20.5 -58.5t28 -81.5t31 -92t30.5 -90t26 -74.5q1 -5 9.5 -16.5t17.5 -23.5t17 -21
l8 -9q0 -8 -7 -13.5t-17 -8.5t-22 -4t-22 -1q-7 0 -12.5 0.5t-7.5 0.5h-4h-10q-5 0 -11 0.5t-11 0.5h-4zM205 666l23 39l15 12q11 9 19 14.5t20 5.5l12 -2q2 -7 4.5 -11t2.5 -9q-5 -26 -15 -42l-1 -2q-5 -7 -9 -14t-9 -13q-14 -12 -21 -19.5t-12 -11t-9.5 -4.5t-12.5 -1
l-16 11z" />
    <glyph glyph-name="FL00E2h" unicode="&#xe2;" horiz-adv-x="488" 
d="M231 435q-19 -42 -35.5 -92t-16.5 -98h119q0 26 -6.5 51.5t-16 49.5t-21.5 46.5t-23 42.5zM350 -16l-13 17q19 10 22.5 23.5t3.5 32.5q0 14 -6 38t-14.5 46.5t-18 39t-16.5 16.5l-152 -15q-8 -2 -15 -14t-11.5 -29t-7 -35.5t-2.5 -33.5q0 -14 4 -20.5t10 -11t13 -9
t13 -13.5q-3 -3 -12 -9t-14 -6l-126 -7v22q3 2 12 6.5t19.5 11t19.5 14.5t13 17q4 11 12 36.5t17 53.5t17 53t12 37q5 17 11 45.5t13.5 61.5t17.5 66t22 60t27 44t33 17l28 -41l8 -22.5t20.5 -58.5t28 -81.5t31 -92t30.5 -90t26 -74.5q1 -5 9.5 -16.5t17.5 -23.5t17 -21
l8 -9q0 -8 -7 -13.5t-17 -8.5t-22 -4t-22 -1q-7 0 -12.5 0.5t-7.5 0.5h-4h-10q-5 0 -11 0.5t-11 0.5h-4zM304 607q-9 0 -12.5 2t-6.5 7t-8.5 13t-19.5 20q-5 5 -12.5 8t-11.5 9q-3 -6 -9.5 -8t-11.5 -7q-14 -12 -20 -20t-9.5 -13t-7 -7t-12.5 -2l-16 11l9 47l23 39l15 12
q12 8 20 14t19 6l13 -2v-2q7 -2 14.5 -4t25.5 -17l25 -48l9 -47z" />
    <glyph glyph-name="FL00E3h" unicode="&#xe3;" horiz-adv-x="488" 
d="M337 1l13 -17h4q5 0 11 -0.5t11 -0.5h10h4q2 0 7.5 -0.5t12.5 -0.5q10 0 22 1t22 4t17 8.5t7 13.5l-8 9t-17 21t-17.5 23.5t-9.5 16.5q-11 31 -26 74.5t-30.5 90t-31 92t-28 81.5t-20.5 58.5l-8 22.5l-28 41q-18 0 -33 -17t-27 -44t-22 -60t-17.5 -66t-13.5 -61.5
t-11 -45.5q-4 -12 -12 -37t-17 -53t-17 -53.5t-12 -36.5q-4 -9 -13 -17t-19.5 -14.5t-19.5 -11t-12 -6.5v-22l126 7q5 0 14 6t12 9q-6 9 -13 13.5t-13 9t-10 11t-4 20.5q0 15 2.5 33.5t7 35.5t11.5 29t15 14l152 15q7 0 16.5 -16.5t18 -39t14.5 -46.5t6 -38
q0 -19 -3.5 -32.5t-22.5 -23.5zM231 435q11 -20 23 -42.5t21.5 -46.5t16 -49.5t6.5 -51.5h-119q0 48 16.5 98t35.5 92zM182 728q-10 -6 -14.5 -9t-9.5 -12l-33 -51l-9 -33q3 -15 17 -20q8 0 11.5 1.5t7 5.5t9.5 11.5t20 19.5q4 5 11 7t10 8q2 -4 5.5 -5.5t7.5 -3.5
q10 -9 16 -15.5t10.5 -11t9.5 -7.5t13 -5l22 -3q7 2 17.5 6t17.5 12l34 46q7 15 8 21.5t1 11.5q0 2 -1 5t-1 7v2l-20 14q-9 0 -12 -1.5t-6 -5.5t-8.5 -12t-18.5 -20q-5 -5 -11.5 -7.5t-9.5 -8.5q-2 3 -6.5 5.5t-9.5 4.5q-14 16 -31 30.5t-26 14.5h-7z" />
    <glyph glyph-name="FL00E4h" unicode="&#xe4;" horiz-adv-x="488" 
d="M231 435q-19 -42 -35.5 -92t-16.5 -98h119q0 26 -6.5 51.5t-16 49.5t-21.5 46.5t-23 42.5zM350 -16l-13 17q19 10 22.5 23.5t3.5 32.5q0 14 -6 38t-14.5 46.5t-18 39t-16.5 16.5l-152 -15q-8 -2 -15 -14t-11.5 -29t-7 -35.5t-2.5 -33.5q0 -14 4 -20.5t10 -11t13 -9
t13 -13.5q-3 -3 -12 -9t-14 -6l-126 -7v22q3 2 12 6.5t19.5 11t19.5 14.5t13 17q4 11 12 36.5t17 53.5t17 53t12 37q5 17 11 45.5t13.5 61.5t17.5 66t22 60t27 44t33 17l28 -41l8 -22.5t20.5 -58.5t28 -81.5t31 -92t30.5 -90t26 -74.5q1 -5 9.5 -16.5t17.5 -23.5t17 -21
l8 -9q0 -8 -7 -13.5t-17 -8.5t-22 -4t-22 -1q-7 0 -12.5 0.5t-7.5 0.5h-4h-10q-5 0 -11 0.5t-11 0.5h-4zM272 620q-1 5 -1.5 9.5t-0.5 11.5q0 12 2 25.5t9 20.5q9 12 31 12q23 -7 30 -13.5t7 -12.5l-1 -10q0 -29 -10.5 -47t-33.5 -18h-6zM147 619q-1 5 -1.5 9.5t-0.5 11.5
q0 12 2 25.5t9 20.5q9 12 31 12q23 -7 30 -13.5t7 -12.5l-1 -10q0 -29 -10.5 -47t-33.5 -18h-6z" />
    <glyph glyph-name="FL00E5h" unicode="&#xe5;" horiz-adv-x="488" 
d="M231 435q-19 -42 -35.5 -92t-16.5 -98h119q0 26 -6.5 51.5t-16 49.5t-21.5 46.5t-23 42.5zM350 -16l-13 17q19 10 22.5 23.5t3.5 32.5q0 14 -6 38t-14.5 46.5t-18 39t-16.5 16.5l-152 -15q-8 -2 -15 -14t-11.5 -29t-7 -35.5t-2.5 -33.5q0 -14 4 -20.5t10 -11t13 -9
t13 -13.5q-3 -3 -12 -9t-14 -6l-126 -7v22q3 2 12 6.5t19.5 11t19.5 14.5t13 17q4 11 12 36.5t17 53.5t17 53t12 37q5 17 11 45.5t13.5 61.5t17.5 66t22 60t27 44t33 17l28 -41l8 -22.5t20.5 -58.5t28 -81.5t31 -92t30.5 -90t26 -74.5q1 -5 9.5 -16.5t17.5 -23.5t17 -21
l8 -9q0 -8 -7 -13.5t-17 -8.5t-22 -4t-22 -1q-7 0 -12.5 0.5t-7.5 0.5h-4h-10q-5 0 -11 0.5t-11 0.5h-4zM205 617q-1 5 -2 9.5t-1 11.5q0 12 2.5 25.5t9.5 20.5q9 12 31 12q23 -7 30 -13.5t7 -12.5l-1 -10q0 -29 -11 -47t-33 -18h-7z" />
    <glyph glyph-name="FL00E6h" unicode="&#xe6;" horiz-adv-x="674" 
d="M330 -6q20 10 23.5 23.5t3.5 32.5q0 14 -5 39t-13 49.5t-17 42.5t-16 18l-152 -15q-9 -2 -16 -15.5t-12.5 -32t-8.5 -38.5t-3 -35q0 -14 4 -20.5t10 -11t13 -9t13 -13.5q-3 -3 -12 -9t-14 -6l-126 -7v22q3 2 12 6.5t19 11t19.5 14.5t13.5 17q4 11 12.5 37.5t18 56.5
t18 56.5t12.5 38.5q5 17 11.5 47t15.5 64.5t20.5 70t26 64.5t33 47t41.5 18l5 -58l90 -279v253q-4 5 -7.5 16.5t-5.5 15.5v15q10 1 30.5 2.5t47 3.5t55 4t55 3.5t47.5 2.5t31 1h12q-4 -13 -9.5 -30t-13.5 -32.5t-17.5 -26t-21.5 -10.5q-10 0 -14 4l14 31h-140v-157h126
l39 31q0 -2 0.5 -7t0.5 -10q0 -2 -0.5 -7.5t-0.5 -6.5q-4 -11 -12 -27.5t-16.5 -31.5t-15.5 -26l-7 -11h-13v32h-88v-189h139q14 19 35 37t43 18q0 -12 -5 -32t-13 -39.5t-18.5 -33.5t-20.5 -14h-8q-14 0 -52 2t-79 4q1 0 2.5 -2l1.5 -2q0 -8 -7 -13.5t-17 -8.5t-22 -4
t-22 -1q-7 0 -12.5 0.5t-7.5 0.5h-3q-8 0 -21.5 0.5t-15.5 0.5zM229 437q-20 -42 -36 -92t-16 -98h119q0 26 -6.5 51.5t-16 49.5t-21.5 46.5t-23 42.5z" />
    <glyph glyph-name="FL00E7h" unicode="&#xe7;" horiz-adv-x="385" 
d="M203 -16l4 15q-97 1 -147 64.5t-50 184.5q0 69 18 120.5t49.5 86t75 52t94.5 17.5h57q9 -3 11.5 -15t2.5 -24v-19v-18q0 -12 -2.5 -23.5t-11.5 -13.5q-13 22 -23 35t-19.5 19.5t-21 8t-27.5 1.5q-33 0 -60.5 -20.5t-47.5 -52.5t-31.5 -72t-11.5 -79v-14q4 -48 20.5 -85
t42 -61.5t58.5 -37.5t71 -13q30 0 51.5 13t48.5 25l2.5 1.5t3.5 1.5q2 0 4 -1.5l2 -1.5q3 -1 7.5 -6t5.5 -8q-13 -23 -30 -35.5t-36.5 -19.5t-40 -8.5t-40.5 -1.5q5 -10 5.5 -19.5t0.5 -12.5l8 -65l-99 -13l-29 12q0 9 3.5 14.5t8 8.5t9.5 3.5t7 0.5l6 0.5t14.5 1.5t18 2
t17.5 1z" />
    <glyph glyph-name="FL00E8h" unicode="&#xe8;" horiz-adv-x="324" 
d="M7 15l14 32v427q-5 5 -8.5 16.5t-5.5 15.5v15q15 1 52.5 4t80 6t81 5t53.5 2h12q-4 -13 -10 -30t-14 -32.5t-17.5 -26t-21.5 -10.5q-10 0 -13 4l13 31h-140v-157h127l39 31q0 -2 0.5 -7t0.5 -10q0 -2 -0.5 -7.5t-0.5 -6.5q-4 -11 -12.5 -27.5t-17 -31.5t-15 -26l-6.5 -11
h-13v32h-88v-189h138q14 19 35 37t44 18q0 -12 -5 -32t-13.5 -39.5t-19 -33.5t-20.5 -14h-7q-14 0 -48.5 2t-73 4t-73 4.5t-47.5 4.5zM191 616l-16 -11q-9 0 -13.5 1t-9 4.5t-11.5 11t-21 19.5q-5 6 -9 13t-9 14v2q-6 8 -9.5 18.5t-6.5 23.5q0 5 2.5 9t4.5 11l13 2
q11 0 19 -5.5t19 -14.5l15 -12l23 -39z" />
    <glyph glyph-name="FL00E9h" unicode="&#xe9;" horiz-adv-x="324" 
d="M7 15l14 32v427q-5 5 -8.5 16.5t-5.5 15.5v15q15 1 52.5 4t80 6t81 5t53.5 2h12q-4 -13 -10 -30t-14 -32.5t-17.5 -26t-21.5 -10.5q-10 0 -13 4l13 31h-140v-157h127l39 31q0 -2 0.5 -7t0.5 -10q0 -2 -0.5 -7.5t-0.5 -6.5q-4 -11 -12.5 -27.5t-17 -31.5t-15 -26l-6.5 -11
h-13v32h-88v-189h138q14 19 35 37t44 18q0 -12 -5 -32t-13.5 -39.5t-19 -33.5t-20.5 -14h-7q-14 0 -48.5 2t-73 4t-73 4.5t-47.5 4.5zM122 665l24 39l15 12q10 9 18.5 14.5t19.5 5.5l13 -2q2 -7 4 -11t2 -9q-5 -26 -15 -42l-1 -2l-8 -14t-9 -13q-14 -12 -21 -19.5t-12 -11
t-9.5 -4.5t-12.5 -1l-16 11z" />
    <glyph glyph-name="FL00EAh" unicode="&#xea;" horiz-adv-x="324" 
d="M7 15l14 32v427q-5 5 -8.5 16.5t-5.5 15.5v15q15 1 52.5 4t80 6t81 5t53.5 2h12q-4 -13 -10 -30t-14 -32.5t-17.5 -26t-21.5 -10.5q-10 0 -13 4l13 31h-140v-157h127l39 31q0 -2 0.5 -7t0.5 -10q0 -2 -0.5 -7.5t-0.5 -6.5q-4 -11 -12.5 -27.5t-17 -31.5t-15 -26l-6.5 -11
h-13v32h-88v-189h138q14 19 35 37t44 18q0 -12 -5 -32t-13.5 -39.5t-19 -33.5t-20.5 -14h-7q-14 0 -48.5 2t-73 4t-73 4.5t-47.5 4.5zM220 607q-9 0 -12.5 2t-6.5 7t-8.5 13t-19.5 20q-5 5 -12.5 8t-11.5 9q-3 -6 -9.5 -8t-11.5 -7q-14 -12 -20 -20t-9.5 -13t-7 -7t-12.5 -2
l-16 11l9 47l23 39l15 12q12 8 20 14t19 6l13 -2v-2q7 -2 14.5 -4t25.5 -17l25 -48l9 -47z" />
    <glyph glyph-name="FL00EBh" unicode="&#xeb;" horiz-adv-x="324" 
d="M7 15l14 32v427q-5 5 -8.5 16.5t-5.5 15.5v15q15 1 52.5 4t80 6t81 5t53.5 2h12q-4 -13 -10 -30t-14 -32.5t-17.5 -26t-21.5 -10.5q-10 0 -13 4l13 31h-140v-157h127l39 31q0 -2 0.5 -7t0.5 -10q0 -2 -0.5 -7.5t-0.5 -6.5q-4 -11 -12.5 -27.5t-17 -31.5t-15 -26l-6.5 -11
h-13v32h-88v-189h138q14 19 35 37t44 18q0 -12 -5 -32t-13.5 -39.5t-19 -33.5t-20.5 -14h-7q-14 0 -48.5 2t-73 4t-73 4.5t-47.5 4.5zM185 635q-1 5 -2 9.5t-1 11.5q0 12 2.5 25.5t9.5 20.5q9 12 31 12q23 -7 30 -13.5t7 -12.5l-1 -10q0 -29 -11 -47t-33 -18h-7zM60 634
q-1 5 -1.5 9.5t-0.5 11.5q0 12 2 25.5t9 20.5q9 12 31 12q23 -7 30 -13.5t7 -12.5l-1 -10q0 -29 -10.5 -47t-33.5 -18h-6z" />
    <glyph glyph-name="FL00ECh" unicode="&#xec;" horiz-adv-x="152" 
d="M12 15l26 32q1 1 3 18.5t4.5 40.5t4 46.5t1.5 37.5v96q1 1 1 10q0 28 -4 56.5t-9.5 56t-9.5 54.5t-4 52q0 2 0.5 4l0.5 2q1 1 5.5 3t10.5 4.5t11.5 5t8.5 4.5h14q3 0 12.5 -2t19.5 -5t19 -6l12 -4l2 -7q0 -1 -1 -4.5l-1 -3.5q-3 -6 -12 -16.5t-13 -15.5v-427q4 0 13 -6
t12 -9l1 -3.5t1 -4.5q0 -9 -6 -14.5t-15 -8.5t-19 -4t-19 -1q-7 0 -11.5 0.5t-7.5 0.5h-1q-3 0 -8.5 0.5t-11.5 1t-10.5 1t-5.5 0.5zM127 613l-16 -11q-9 0 -13.5 1t-9 4.5t-11.5 11t-21 19.5q-5 6 -9 13t-9 14v2q-6 8 -9.5 18.5t-6.5 23.5q0 5 2.5 9t4.5 11l13 2
q11 0 19 -5.5t19 -14.5l15 -12l23 -39z" />
    <glyph glyph-name="FL00EDh" unicode="&#xed;" horiz-adv-x="152" 
d="M12 15l26 32q1 1 3 18.5t4.5 40.5t4 46.5t1.5 37.5v96q1 1 1 10q0 28 -4 56.5t-9.5 56t-9.5 54.5t-4 52q0 2 0.5 4l0.5 2q1 1 5.5 3t10.5 4.5t11.5 5t8.5 4.5h14q3 0 12.5 -2t19.5 -5t19 -6l12 -4l2 -7q0 -1 -1 -4.5l-1 -3.5q-3 -6 -12 -16.5t-13 -15.5v-427q4 0 13 -6
t12 -9l1 -3.5t1 -4.5q0 -9 -6 -14.5t-15 -8.5t-19 -4t-19 -1q-7 0 -11.5 0.5t-7.5 0.5h-1q-3 0 -8.5 0.5t-11.5 1t-10.5 1t-5.5 0.5zM29 665l23 39l15 12q11 9 19 14.5t20 5.5l12 -2q2 -7 4.5 -11t2.5 -9q-5 -26 -15 -42l-1 -2q-5 -7 -9 -14t-9 -13q-14 -12 -21 -19.5
t-12 -11t-9.5 -4.5t-12.5 -1l-16 11z" />
    <glyph glyph-name="FL00EEh" unicode="&#xee;" horiz-adv-x="152" 
d="M12 15l26 32q1 1 3 18.5t4.5 40.5t4 46.5t1.5 37.5v96q1 1 1 10q0 28 -4 56.5t-9.5 56t-9.5 54.5t-4 52q0 2 0.5 4l0.5 2q1 1 5.5 3t10.5 4.5t11.5 5t8.5 4.5h14q3 0 12.5 -2t19.5 -5t19 -6l12 -4l2 -7q0 -1 -1 -4.5l-1 -3.5q-3 -6 -12 -16.5t-13 -15.5v-427q4 0 13 -6
t12 -9l1 -3.5t1 -4.5q0 -9 -6 -14.5t-15 -8.5t-19 -4t-19 -1q-7 0 -11.5 0.5t-7.5 0.5h-1q-3 0 -8.5 0.5t-11.5 1t-10.5 1t-5.5 0.5zM149 616q-9 0 -12.5 2t-6.5 7t-8.5 13t-19.5 20q-5 5 -12.5 8t-11.5 9q-3 -6 -10 -8t-11 -7q-14 -12 -20 -20t-9.5 -13t-7 -7t-12.5 -2
l-16 11l9 47l23 39l15 12q11 8 19 14t20 6l12 -2v-2q8 -2 15 -4t26 -17l25 -48l9 -47z" />
    <glyph glyph-name="FL00EFh" unicode="&#xef;" horiz-adv-x="152" 
d="M12 15l26 32q1 1 3 18.5t4.5 40.5t4 46.5t1.5 37.5v96q1 1 1 10q0 28 -4 56.5t-9.5 56t-9.5 54.5t-4 52q0 2 0.5 4l0.5 2q1 1 5.5 3t10.5 4.5t11.5 5t8.5 4.5h14q3 0 12.5 -2t19.5 -5t19 -6l12 -4l2 -7q0 -1 -1 -4.5l-1 -3.5q-3 -6 -12 -16.5t-13 -15.5v-427q4 0 13 -6
t12 -9l1 -3.5t1 -4.5q0 -9 -6 -14.5t-15 -8.5t-19 -4t-19 -1q-7 0 -11.5 0.5t-7.5 0.5h-1q-3 0 -8.5 0.5t-11.5 1t-10.5 1t-5.5 0.5zM107 629q-1 5 -1.5 9.5t-0.5 11.5q0 12 2 25.5t9 20.5q9 12 31 12q23 -7 30 -13.5t7 -12.5l-1 -10q0 -29 -10.5 -47t-33.5 -18h-6zM-18 628
q0 5 -1 9.5t-1 11.5q0 12 2 25.5t9 20.5q5 7 13.5 9.5t17.5 2.5q24 -7 30.5 -13.5t6.5 -12.5l-1 -10q0 -29 -10.5 -47t-33.5 -18h-6z" />
    <glyph glyph-name="FL00F0h" unicode="&#xf0;" horiz-adv-x="404" 
d="M394 273q0 -55 -13 -104.5t-38 -87t-62 -60t-85 -22.5q-2 0 -3 -0.5t-3 -0.5q-17 0 -42.5 10t-51 28t-46.5 42.5t-28 53.5q-5 35 -8 60t-3 44q0 40 20 64t46 24h6q25 0 54 -2t61.5 -13t66.5 -34.5t70 -67.5q7 27 7 61q0 41 -9 77t-27.5 63t-46 42.5t-63.5 15.5l-161 -12
q0 22 6.5 36t17.5 21.5t24.5 10t28.5 2.5h46q47 0 89.5 -14.5t75 -45.5t52 -78t19.5 -113zM195 257q-8 4 -22 4l-35 1q-14 0 -28.5 -2t-27.5 -10q-16 -10 -22.5 -22.5t-6.5 -27.5q0 -25 14.5 -52t33 -50t35 -38t19.5 -15h15q55 0 89 25.5t53 90.5z" />
    <glyph glyph-name="FL00F1h" unicode="&#xf1;" horiz-adv-x="421" 
d="M46 142v16q0 11 -1 36t-2 56.5t-2.5 66t-3 66t-2.5 56t-2 35.5q-22 5 -26.5 17.5t-4.5 36.5q39 0 72.5 -19.5t62 -51.5t53 -73t47 -84t44 -84.5t43.5 -73.5v119q2 16 2 31v30q0 38 -3 74t-12 78q-4 0 -12 6t-13 10l-0.5 3t-0.5 5q0 1 0.5 4.5l0.5 3.5q5 4 19 9.5t19 5.5
q6 0 18.5 -1.5t26.5 -4t26 -5t17 -4.5q-6 -14 -15 -17.5t-16.5 -6t-13 -9t-5.5 -24.5v-38q0 -13 0.5 -40t2 -61t2.5 -72.5t2.5 -72.5t2.5 -61.5t2 -39.5q5 -9 12.5 -14t14.5 -10t12 -11.5t5 -19.5q-3 0 -9.5 -0.5t-15.5 -0.5q-10 0 -22 1t-23.5 3.5t-21 7t-15.5 12.5
q-6 11 -22.5 37.5t-35 56.5t-34.5 57t-21 38l-101 190q-2 4 -5.5 9t-8.5 7v-363q5 -5 14 -16t12 -16q0 -1 0.5 -4.5t0.5 -5.5t-0.5 -4.5l-0.5 -2.5l-102 -15l-1 8q0 1 0.5 4l0.5 3q1 1 5.5 6l9 10t8 9.5t3.5 6.5q0 1 1.5 13t3.5 27t4 30.5t4 24.5zM141 743l14 2h7
q9 0 26 -14.5t31 -30.5q5 -2 9.5 -4.5t6.5 -5.5q3 6 9.5 8.5t11.5 7.5q13 12 18.5 20t8.5 12t6 5.5t12 1.5l21 -14v-2q0 -4 0.5 -7t0.5 -5q0 -5 -1 -11.5t-8 -21.5l-34 -46q-7 -8 -17.5 -12t-16.5 -6l-23 3q-8 2 -12.5 5t-9 7.5l-11 11t-16.5 15.5q-4 2 -7.5 3.5t-5.5 5.5
q-3 -6 -9.5 -8t-11.5 -7q-14 -12 -20 -19.5t-9.5 -11.5t-7 -5.5t-11.5 -1.5q-8 3 -11.5 8t-5.5 12l9 33l33 51q5 9 9.5 12t14.5 9z" />
    <glyph glyph-name="FL00F2h" unicode="&#xf2;" 
d="M68 47q29 -22 57 -35t61 -13q49 0 92 19t75 55t50.5 87.5t18.5 116.5q0 61 -16.5 109t-46.5 82t-70.5 52t-88.5 18h-6q-42 -24 -77 -50t-60.5 -59.5t-39.5 -77t-14 -103.5v-12q0 -7 0.5 -13.5t0.5 -11.5v-6v-5q0 -12 6.5 -35.5t16 -47.5t20.5 -44t21 -26zM67 260
q0 40 6.5 79t22 69t41 48.5t62.5 18.5q34 0 63 -17t50.5 -46t33.5 -68t12 -83q0 -41 -10 -80t-28.5 -69t-45.5 -48.5t-60 -18.5t-60 19t-46.5 50t-30 69.5t-10.5 76.5zM250 617l-8 47l-24 39l-15 12q-10 9 -18.5 14.5t-19.5 5.5l-13 -2q-2 -7 -4 -11t-2 -9q4 -24 15 -42
l1 -2l8 -14t9 -13q14 -12 21 -19.5t11.5 -11t9 -4.5t13.5 -1z" />
    <glyph glyph-name="FL00F3h" unicode="&#xf3;" 
d="M68 47q29 -22 57 -35t61 -13q49 0 92 19t75 55t50.5 87.5t18.5 116.5q0 61 -16.5 109t-46.5 82t-70.5 52t-88.5 18h-6q-42 -24 -77 -50t-60.5 -59.5t-39.5 -77t-14 -103.5v-12q0 -7 0.5 -13.5t0.5 -11.5v-6v-5q0 -12 6.5 -35.5t16 -47.5t20.5 -44t21 -26zM67 260
q0 40 6.5 79t22 69t41 48.5t62.5 18.5q34 0 63 -17t50.5 -46t33.5 -68t12 -83q0 -41 -10 -80t-28.5 -69t-45.5 -48.5t-60 -18.5t-60 19t-46.5 50t-30 69.5t-10.5 76.5zM170 664l-9 -47l16 -11q8 0 12.5 1t9.5 4.5t12 11t21 19.5q5 6 9 13t9 14v2q6 9 9.5 19.5t6.5 22.5
q0 5 -2.5 9t-4.5 11l-13 2q-11 0 -19 -5.5t-19 -14.5l-15 -12z" />
    <glyph glyph-name="FL00F4h" unicode="&#xf4;" 
d="M68 47q29 -22 57 -35t61 -13q49 0 92 19t75 55t50.5 87.5t18.5 116.5q0 61 -16.5 109t-46.5 82t-70.5 52t-88.5 18h-6q-42 -24 -77 -50t-60.5 -59.5t-39.5 -77t-14 -103.5v-12q0 -7 0.5 -13.5t0.5 -11.5v-6v-5q0 -12 6.5 -35.5t16 -47.5t20.5 -44t21 -26zM67 260
q0 40 6.5 79t22 69t41 48.5t62.5 18.5q34 0 63 -17t50.5 -46t33.5 -68t12 -83q0 -41 -10 -80t-28.5 -69t-45.5 -48.5t-60 -18.5t-60 19t-46.5 50t-30 69.5t-10.5 76.5zM274 607l16 11l-8 47l-25 48q-19 15 -26 17t-15 4v2l-13 2q-11 0 -19 -6t-19 -14l-15 -12l-24 -39
l-8 -47l16 -11q9 0 12.5 2t7 7t9 13t19.5 20q5 5 11.5 7t9.5 8q5 -6 12 -9t12 -8q14 -12 20 -20.5t9 -13t6 -6.5t12 -2z" />
    <glyph glyph-name="FL00F5h" unicode="&#xf5;" 
d="M68 47q-10 6 -21 26t-20.5 44t-16 47.5t-6.5 35.5v5v6q0 5 -0.5 11.5t-0.5 13.5v12q0 60 14 103.5t39.5 77t60.5 59.5t77 50h6q48 0 88.5 -18t70.5 -52t46.5 -82t16.5 -109q0 -65 -18.5 -116.5t-50.5 -87.5t-75 -55t-92 -19q-33 0 -61 13t-57 35zM67 260
q0 -38 10.5 -76.5t30 -69.5t46.5 -50t60 -19t60 18.5t45.5 48.5t28.5 69t10 80q0 44 -12 83t-33.5 68t-50.5 46t-63 17q-37 0 -62.5 -18.5t-41 -48.5t-22 -69t-6.5 -79zM151 741l15 2h7q9 0 25.5 -14.5t31.5 -30.5q4 -2 8.5 -4.5t7.5 -5.5q3 6 9.5 8.5t10.5 7.5q13 12 19 20
l9 12t6 5.5t11 1.5l21 -14v-2q0 -4 1 -7t1 -5q0 -5 -1 -11.5t-8 -21.5l-35 -46q-6 -8 -16.5 -12t-17.5 -6l-22 3q-8 2 -13 5t-9.5 7.5t-10.5 11t-16 15.5q-5 2 -8.5 3.5t-5.5 5.5q-3 -6 -9.5 -8t-11.5 -7q-14 -12 -20 -19.5t-9.5 -11.5t-7 -5.5t-11.5 -1.5q-13 5 -16 20
l8 33l33 51q5 9 9.5 12t14.5 9z" />
    <glyph glyph-name="FL00F6h" unicode="&#xf6;" 
d="M68 47q29 -22 57 -35t61 -13q49 0 92 19t75 55t50.5 87.5t18.5 116.5q0 61 -16.5 109t-46.5 82t-70.5 52t-88.5 18h-6q-42 -24 -77 -50t-60.5 -59.5t-39.5 -77t-14 -103.5v-12q0 -7 0.5 -13.5t0.5 -11.5v-6v-5q0 -12 6.5 -35.5t16 -47.5t20.5 -44t21 -26zM67 260
q0 40 6.5 79t22 69t41 48.5t62.5 18.5q34 0 63 -17t50.5 -46t33.5 -68t12 -83q0 -41 -10 -80t-28.5 -69t-45.5 -48.5t-60 -18.5t-60 19t-46.5 50t-30 69.5t-10.5 76.5zM233 622l25 -22h7q22 0 33 18t11 47l1 10q0 6 -7 12.5t-30 13.5q-22 0 -31 -12q-7 -7 -9.5 -20.5
t-2.5 -25.5q0 -7 1 -11.5t2 -9.5zM108 621l26 -22h6q23 0 33.5 18t10.5 47l1 10q0 6 -7 12.5t-30 13.5q-22 0 -31 -12q-7 -7 -9 -20.5t-2 -25.5q0 -7 0.5 -11.5t1.5 -9.5z" />
    <glyph glyph-name="FL00F7h" unicode="&#xf7;" horiz-adv-x="253" 
d="M56 296l149 4q9 0 16.5 -1t8.5 -1l12 -15q-3 -7 -12.5 -12t-20.5 -8.5t-21.5 -6t-16.5 -4.5q-1 -1 -2 -1q-2 0 -3 1h-124l-29 12q0 9 6 15.5t13.5 10t14.5 5t9 1.5zM86 342q-3 9 -3 24q0 14 3 29.5t10 23.5t15.5 11t19.5 3q27 -8 34 -16t7 -16l-1 -9q0 -34 -11.5 -55
t-37.5 -21h-8zM86 133q-3 9 -3 24q0 14 3 29.5t10 23.5t15.5 11t19.5 3q27 -8 34 -16t7 -16l-1 -9q0 -34 -11.5 -55t-37.5 -21h-8z" />
    <glyph glyph-name="FL00F8h" unicode="&#xf8;" 
d="M15 16l38 47q-9 13 -18 32.5t-16 39t-11.5 37.5t-4.5 28v48q0 60 14 103.5t39.5 77t60.5 59.5t77 50h6q46 0 84 -16h111q-7 -12 -16.5 -19t-20.5 -12l-8 -13q34 -34 53 -84.5t19 -116.5q0 -65 -18.5 -116.5t-50.5 -87.5t-75 -55t-92 -19q-27 0 -51 9q-9 -7 -23.5 -9
t-26.5 -2q-7 0 -11.5 0.5t-7.5 0.5h-1q-3 0 -8.5 0.5t-11.5 1t-10.5 1t-5.5 0.5zM358 261q0 45 -12 83.5t-33 67.5l-184 -326q17 -19 38.5 -30t46.5 -11q33 0 60 18.5t45.5 48.5t28.5 69t10 80zM67 260q0 -68 31 -128q40 64 69.5 116.5t50 92t33 67.5t19.5 44q-32 23 -71 23
q-37 0 -62.5 -18.5t-41 -48.5t-22 -69t-6.5 -79z" />
    <glyph glyph-name="FL00F9h" unicode="&#xf9;" horiz-adv-x="453" 
d="M60 443v-348q0 -11 7 -25.5t16.5 -28t19 -25t14.5 -16.5q4 0 12 -0.5t19 -0.5t19 -1t13 -1q48 0 87.5 13.5t77.5 53.5q-1 -1 -1 -8t1 -15.5t3 -16.5t4.5 -14.5t4.5 -9.5l6.5 -0.5t10.5 -0.5q9 0 21.5 1.5t24 6.5t20 14.5t8.5 25.5h-41v465q-7 0 -23.5 -0.5t-34 -5
t-30.5 -14t-13 -26.5v-8q3 -3 13 -8.5t13 -6.5q2 -4 7.5 -9t5.5 -7v-300q0 -22 -17 -37.5t-39.5 -25.5t-44.5 -14.5t-32 -4.5q-11 0 -25 3t-27 10.5t-21.5 20t-8.5 31.5v380l-26 31q-2 -1 -15 -5.5t-32 -12t-29 -13.5q-2 -2 -12.5 -6.5t-13.5 -9.5q3 -9 11.5 -15t17.5 -9.5
t17 -5t12 -1.5zM278 616l-8 47l-24 39l-15 12q-10 9 -18.5 14.5t-19.5 5.5l-13 -2q-2 -7 -4 -11t-2 -9q4 -24 15 -42l1 -2l8 -14t9 -13q14 -12 21 -19.5t11.5 -11t9 -4.5t13.5 -1z" />
    <glyph glyph-name="FL00FAh" unicode="&#xfa;" horiz-adv-x="453" 
d="M60 443v-348q0 -11 7 -25.5t16.5 -28t19 -25t14.5 -16.5q4 0 12 -0.5t19 -0.5t19 -1t13 -1q48 0 87.5 13.5t77.5 53.5q-1 -1 -1 -8t1 -15.5t3 -16.5t4.5 -14.5t4.5 -9.5l6.5 -0.5t10.5 -0.5q9 0 21.5 1.5t24 6.5t20 14.5t8.5 25.5h-41v465q-7 0 -23.5 -0.5t-34 -5
t-30.5 -14t-13 -26.5v-8q3 -3 13 -8.5t13 -6.5q2 -4 7.5 -9t5.5 -7v-300q0 -22 -17 -37.5t-39.5 -25.5t-44.5 -14.5t-32 -4.5q-11 0 -25 3t-27 10.5t-21.5 20t-8.5 31.5v380l-26 31q-2 -1 -15 -5.5t-32 -12t-29 -13.5q-2 -2 -12.5 -6.5t-13.5 -9.5q3 -9 11.5 -15t17.5 -9.5
t17 -5t12 -1.5zM194 666l-8 -47l16 -11q8 0 12.5 1t9.5 4.5t12 11t21 19.5q5 6 9 13l8 14l1 2q10 18 15 42q0 5 -2 9t-4 11l-13 2q-11 0 -19.5 -5.5t-18.5 -14.5l-15 -12z" />
    <glyph glyph-name="FL00FBh" unicode="&#xfb;" horiz-adv-x="453" 
d="M292 607l16 11l-9 47l-25 48q-18 15 -25.5 17t-14.5 4v2l-13 2q-11 0 -19 -6t-20 -14l-15 -12l-23 -39l-9 -47l16 -11q9 0 12.5 2t7 7t9.5 13t20 20q5 5 11.5 7t9.5 8q4 -6 11.5 -9t12.5 -8q14 -12 20 -20.5t9 -13t6 -6.5t12 -2zM60 443v-348q0 -11 7 -25.5t16.5 -28
t19 -25t14.5 -16.5q4 0 12 -0.5t19 -0.5t19 -1t13 -1q48 0 87.5 13.5t77.5 53.5q-1 -1 -1 -8t1 -15.5t3 -16.5t4.5 -14.5t4.5 -9.5l6.5 -0.5t10.5 -0.5q9 0 21.5 1.5t24 6.5t20 14.5t8.5 25.5h-41v465q-7 0 -23.5 -0.5t-34 -5t-30.5 -14t-13 -26.5v-8q3 -3 13 -8.5t13 -6.5
q2 -4 7.5 -9t5.5 -7v-300q0 -22 -17 -37.5t-39.5 -25.5t-44.5 -14.5t-32 -4.5q-11 0 -25 3t-27 10.5t-21.5 20t-8.5 31.5v380l-26 31q-2 -1 -15 -5.5t-32 -12t-29 -13.5q-2 -2 -12.5 -6.5t-13.5 -9.5q3 -9 11.5 -15t17.5 -9.5t17 -5t12 -1.5z" />
    <glyph glyph-name="FL00FCh" unicode="&#xfc;" horiz-adv-x="453" 
d="M60 443v-348q0 -11 7 -25.5t16.5 -28t19 -25t14.5 -16.5q4 0 12 -0.5t19 -0.5t19 -1t13 -1q48 0 87.5 13.5t77.5 53.5q-1 -1 -1 -8t1 -15.5t3 -16.5t4.5 -14.5t4.5 -9.5l6.5 -0.5t10.5 -0.5q9 0 21.5 1.5t24 6.5t20 14.5t8.5 25.5h-41v465q-7 0 -23.5 -0.5t-34 -5
t-30.5 -14t-13 -26.5v-8q3 -3 13 -8.5t13 -6.5q2 -4 7.5 -9t5.5 -7v-300q0 -22 -17 -37.5t-39.5 -25.5t-44.5 -14.5t-32 -4.5q-11 0 -25 3t-27 10.5t-21.5 20t-8.5 31.5v380l-26 31q-2 -1 -15 -5.5t-32 -12t-29 -13.5q-2 -2 -12.5 -6.5t-13.5 -9.5q3 -9 11.5 -15t17.5 -9.5
t17 -5t12 -1.5zM259 622l26 -22h6q23 0 33.5 18t10.5 47l1 10q0 6 -7 12.5t-30 13.5q-22 0 -31 -12q-7 -7 -9 -20.5t-2 -25.5q0 -7 0.5 -11.5t1.5 -9.5zM134 621l26 -22h6q23 0 33.5 18t10.5 47l1 10q0 6 -6.5 12.5t-30.5 13.5q-9 0 -17.5 -2.5t-13.5 -9.5q-7 -7 -9 -20.5
t-2 -25.5q0 -7 1 -11.5t1 -9.5z" />
    <glyph glyph-name="FL00FDh" unicode="&#xfd;" horiz-adv-x="485" 
d="M224 68q0 -20 -7.5 -35t-7.5 -33h105q0 25 -4.5 51t-9.5 53t-9.5 54.5t-4.5 54.5q0 64 8 106.5t21.5 69.5t31 42.5t35.5 25t35 17t30.5 19t22 30.5t8.5 52q-42 0 -71 -21t-52.5 -51t-45.5 -63.5t-50 -58.5q-19 33 -38.5 62.5t-42.5 51t-51 34.5t-63 13h-9
q-9 0 -20.5 -0.5t-14.5 -2.5q-5 -2 -8.5 -7t-5.5 -8v-8v-9q78 -8 122 -48t65 -100.5t26 -136t5 -154.5zM202 667l-8 -47l16 -11q8 0 12.5 1t9.5 4.5t12 11t21 19.5q5 6 9 13l8 14l1 2q10 18 15 42q0 5 -2 9t-4 11l-13 2q-11 0 -19.5 -5.5t-18.5 -14.5l-15 -12z" />
    <glyph glyph-name="FL00FEh" unicode="&#xfe;" horiz-adv-x="276" 
d="M-4 15l26 32q2 2 4 23t5 47v230q-10 54 -16 94t-6 74q0 2 0.5 4l0.5 2q1 1 5.5 3t10.5 4.5t11.5 5t8.5 4.5h14q3 0 12.5 -2t19.5 -5t19 -6l12 -4l2 -7q0 -1 -1 -4.5l-1 -3.5q-3 -6 -12 -16.5t-13 -15.5v-44q32 -1 62.5 -7.5t54 -23.5t38 -46t14.5 -75q0 -42 -14.5 -72
t-38.5 -50t-54.5 -31t-61.5 -14v-64q4 0 13 -6t12 -9l1 -3.5t1 -4.5q0 -9 -6 -14.5t-15 -8.5t-19 -4t-19 -1q-7 0 -11.5 0.5t-7.5 0.5h-1q-3 0 -8.5 0.5t-11.5 1t-10.5 1t-5.5 0.5zM98 380v-210q19 0 39.5 3.5t37.5 13t28 27.5t11 47q0 21 -9.5 42.5t-24.5 38.5t-33.5 28
t-36.5 11q-3 0 -6.5 -0.5t-5.5 -0.5z" />
    <glyph glyph-name="FL00FFh" unicode="&#xff;" horiz-adv-x="485" 
d="M224 68q0 -20 -7.5 -35t-7.5 -33h105q0 25 -4.5 51t-9.5 53t-9.5 54.5t-4.5 54.5q0 64 8 106.5t21.5 69.5t31 42.5t35.5 25t35 17t30.5 19t22 30.5t8.5 52q-42 0 -71 -21t-52.5 -51t-45.5 -63.5t-50 -58.5q-19 33 -38.5 62.5t-42.5 51t-51 34.5t-63 13h-9
q-9 0 -20.5 -0.5t-14.5 -2.5q-5 -2 -8.5 -7t-5.5 -8v-8v-9q78 -8 122 -48t65 -100.5t26 -136t5 -154.5zM270 622l26 -22h6q23 0 33.5 18t10.5 47l1 10q0 6 -6.5 12.5t-30.5 13.5q-9 0 -17.5 -2.5t-13.5 -9.5q-7 -7 -9 -20.5t-2 -25.5q0 -7 1 -11.5t1 -9.5zM146 621l25 -22h7
q22 0 33 18t11 47v10q0 6 -6.5 12.5t-29.5 13.5q-21 0 -32 -12q-6 -7 -8.5 -20.5t-2.5 -25.5q0 -7 1 -11.5t2 -9.5z" />
    </font>
</defs>
</svg>
