<svg version="1" xmlns="http://www.w3.org/2000/svg" width="346.667" height="346.667" viewBox="0 0 260.000000 260.000000"><path d="M109.3 30.7L93 40.2v4.6l-.1 4.7-26.1 15c-14.3 8.2-25.9 15.3-25.7 15.6.2.3-.1 1.2-.7 2-.7.9-1.1 9.6-1 26.1l.1 24.7-2.4 1.3c-1.3.7-2.6 2.2-3 3.3-.9 2.6-.6 37.3.3 38.2.4.4 2.9-.5 5.5-1.9 4.8-2.7 4.8-2.7 6.9-.8 1.2 1.1 2.4 2 2.8 2 1.6 0 15.7-8.4 14.7-8.7-.6-.2-2.9.5-5 1.5-2.1 1.1-4.2 2-4.7 2.1-.6.1-1-7.5-1-17.9-.1-17.6-.1-17.9 2.2-18.9 2.2-1 2.2-1.3 2.2-21v-20l-4.5-2.7c-5.9-3.4-5.8-4.1.1-1l4.5 2.4 12.2-7.2c6.7-4 16.1-9.5 20.9-12.2 8.5-4.7 8.8-5 8.8-8.5s.2-3.7 10.3-9.4c5.6-3.2 11.8-6.8 13.7-8l3.6-2.2-.2-10.4c-.2-12.1-.2-11.9-1.1-11.8-.5 0-8.1 4.4-17 9.6zM48 85.6c0 .2-1.3-.2-3-1.1-1.6-.9-3-1.8-3-2.1 0-.2 1.4.2 3 1.1 1.7.9 3 1.8 3 2.1zM133.8 21.7c-.4.7-.3 15.4.1 20.4.1 1.1 5.3 4.7 13.6 9.4 13.4 7.7 13.5 7.8 13.5 11.4 0 3.9-.6 3.4 12 10.4 3 1.6 7.2 4.1 9.2 5.4 2.1 1.2 4 2.3 4.2 2.3.3 0 3.9 2 7.9 4.5 4.1 2.5 8.2 4.5 9 4.5.9 0 3.9-1.4 6.8-3 2.8-1.7 5.3-2.9 5.5-2.7.2.2-2.6 2-6.1 4l-6.5 3.8v19.8c0 19.4 0 19.9 2.2 21.3 2.2 1.5 2.3 2 2.3 19.6v18.1l-4.4-2.5c-2.4-1.3-5.1-2.4-6-2.4-1.6.1 2.9 3.1 10.5 7.2l4.1 2.1 2.3-2.1 2.4-2.2 4.3 2.6c2.4 1.4 4.9 2.4 5.6 2.1.9-.3 1.2-5.5 1.2-19.7v-19.4l-2.7-1.5c-1.5-.9-2.8-2.5-2.9-3.6 0-1.1-.2-12.4-.3-25-.2-12.7-.3-23.4-.4-23.8-.1-.4-1.2-.3-2.4.3-2.2 1.1-2.2 1 .1-1 1.3-1.1 2.2-2.2 2-2.4-.2-.1-6.9-4-14.9-8.6-8-4.5-16.1-9.2-18-10.3-1.9-1.1-5.7-3.3-8.5-4.9-2.7-1.6-6.5-3.6-8.2-4.5-3-1.5-3.3-2.1-3.3-6.4v-4.7l-10.2-5.9c-18-10.5-23.6-13.4-24-12.6z"/><path d="M113.7 53.7C101.4 61 101 61.3 101 64.6c0 3.6 1.4 2.7-31.7 21.8-4.6 2.6-8.5 5.1-8.7 5.4-.2.4 3.1 2.7 7.5 5.1 4.3 2.5 7.7 4.6 7.5 4.8-.2.2-3.5-1.5-7.3-3.7-3.9-2.2-7.4-4-8-4-.6 0-1 7-1 17.7-.1 23.8 0 22.4-2.3 23-1.9.5-2 1.4-2 16.4 0 9.3.4 15.9.9 15.9.6 0 2.5-.9 4.4-2 3-1.8 3.6-1.9 4.7-.5.7.8 1.7 1.5 2.3 1.5 1.3 0 22.7-12 22.7-12.7 0-.3-1.6-2.3-3.5-4.5-3.9-4.3-3.9-5.3.3-6.3 1.5-.3 4.5-1.8 6.7-3.4 3.1-2.1 4-3.4 4.1-5.7 0-1.6.5-2.8 1-2.7.5.1 4.5 2.2 8.9 4.7s8.6 4.6 9.4 4.6c.7 0 3-.9 5-2.1l3.6-2.1-2.5 2.1c-1.4 1.1-3.3 2.3-4.2 2.7-1.6.5-1.8 1.9-1.8 11.6 0 10.1-.1 11-1.7 10.3-4.2-1.7-5.5-1.5-10.7 1.5-3.1 1.7-5.6 3.5-5.6 3.9 0 .4 4.3 3.2 9.6 6.2 5.2 3 11.7 6.6 14.2 8.1 2.6 1.5 5.9 2.7 7.3 2.8 3 0 32-16 31.5-17.5-.1-.5-2.8-2.3-5.8-4-5.5-2.9-5.7-3-8.5-1.3l-2.9 1.7-.1-11c0-6-.2-11.1-.4-11.2-.2-.2-3-1.8-6.2-3.6-4.3-2.5-6.6-3.2-8.7-2.7l-2.9.5 2.2-2.2c1.2-1.2 2.6-2.1 3-1.9.5.1 2.4-.7 4.3-1.8s5-2.9 6.9-4.1c1.9-1.1 3.5-1.8 3.5-1.5 0 .3-3.1 2.4-7 4.6-3.8 2.2-7 4.3-7 4.5 0 .7 10.8 6.5 12.1 6.5.8 0 5.2-2.2 9.9-5 4.7-2.7 8.7-5 9-5 .4 0 .4 1.5.2 3.3-.3 3.1-.1 3.4 6.5 6.7 3.7 1.9 7.1 3.9 7.5 4.5.4.5-.9 2.7-2.9 4.7-2 2.1-3.5 4-3.2 4.2 1.2 1.2 21.6 12.6 22.5 12.6.6 0 1.7-.7 2.4-1.5 1-1.3 1.7-1.2 5.2.6 2.2 1.1 4.2 1.9 4.3 1.7.2-.2.5-7.3.6-15.7.2-15.5.1-16.1-3.5-17.4-.6-.2-.9-8.6-.9-20 .1-17.7-.1-19.7-1.5-19.7-1.5 0-1.5-.2-.2-1 .8-.5 1.2-1.1 1-1.3-.4-.3-15.2-8.8-26.8-15.4-13.7-7.8-13.7-7.7-14.2-11.8-.5-3.7-.8-4-12.2-10.6-6.5-3.7-12.5-6.9-13.3-7.3-1.7-.6-1.7-1.1-1.7 13.9 0 10.7.1 11 2.8 13.1 1.6 1.3 2.8 3.4 3 5.1.1 1.5.2 3.3.3 4 .1.6 1.1 1.5 2.3 1.9 1.2.3 5.1 2.5 8.7 4.7 6.5 3.9 9.3 5.6 16.9 9.8 2 1.2 5.2 3 7 4.1 1.9 1.1 4.2 1.8 5.4 1.5l2-.6-2 2c-1.2 1-2.6 1.9-3.1 1.9s-2.7 1-4.8 2.2c-4.7 2.7-3.7 1.3 1.2-1.7l3.6-2.1-15-8.7c-8.2-4.8-15.4-8.7-15.9-8.7-1.4 0-1.8 2.3-1.4 8.7.4 5.1.6 5.4 4.3 7.3 2.1 1.1 3.9 2.3 3.9 2.6 0 .3-.4.2-1-.1-.5-.3-5.2 1.9-10.4 4.9-5.2 3.1-9.8 5.6-10.1 5.6-.4 0-4.4-2.3-9.1-5-4.7-2.8-8.9-5-9.4-5-1.9 0-1-1.6 2-3.3 1.7-1 3-2.1 3.1-2.5.5-4.6.4-11.3-.1-12.2-.8-1.2-4.9.8-22.7 11.2l-9.2 5.4L89 109c2.2 1.3 3.7 2.6 3.5 2.8-.2.2-1.7-.5-3.3-1.7-1.7-1.2-3.5-2.1-4.1-2.1-.6 0-1.9-.8-2.9-1.8-1-.9-2.7-2.3-3.8-2.9-1-.7-.3-.6 1.7.3l3.6 1.6 14.4-8.3c7.9-4.5 16.7-9.6 19.5-11.2 2.8-1.6 5.1-3.7 5.1-4.6 0-4.8.5-6.1 3.1-7.8 2.7-1.8 2.7-1.8 2.7-14 0-7.4-.4-12.4-1-12.7-.6-.2-6.8 3-13.8 7.1zm82.8 41.9c-2.4 1.8-8.3 5-7.3 3.9 1-1 8.1-5.4 8.8-5.4.3 0-.4.7-1.5 1.5zm-8.5 4.9c0 .2-1.3 1.1-3 2-3.8 1.9-4 1.1-.2-.9 3.1-1.7 3.2-1.8 3.2-1.1zm-87.6 12.7c-1 1.3-1.9 2.4-1.9 2.5 0 .1-1.1-.6-2.4-1.6l-2.3-1.8 3 .5c1.6.2 3.3-.1 3.6-.7.4-.6 1-1.1 1.3-1.1.3 0-.2 1-1.3 2.2zm66.1-.3c-1.5 1.4-18.8 11.2-19.2 10.8-.1-.2 3.1-2.3 7.2-4.6 4.1-2.4 7.5-4.7 7.5-5.1 0-.5 1-1.1 2.3-1.3 1.2-.2 2.4-.5 2.7-.6.2 0 0 .3-.5.8zm11.2 2.3c-.3.8-.6.5-.6-.6-.1-1.1.2-1.7.5-1.3.3.3.4 1.2.1 1.9zm-70.7 4.4c0 .7-5.8-2.5-6.5-3.6-.3-.5 1-.1 2.9 1.1 2 1.2 3.6 2.3 3.6 2.5zm8.6 5.1c-.4.4-7.6-3.7-7.6-4.4 0-.2 1.8.6 4 1.8 2.2 1.2 3.8 2.4 3.6 2.6zm10.9 6c1.1.7 1.6 1.3 1.2 1.3-.9 0-10.7-6.1-10.7-6.7 0-.4 5 2.4 9.5 5.4zm4.9 40.4c-.3.5-1.4.5-2.5-.1-2.6-1.4-2.4-1.8.6-1.2 1.4.2 2.2.8 1.9 1.3z"/><path d="M80.7 165.3c-10.1 5.8-10.8 6.4-10.3 8.9.5 2.3 0 3.1-3.5 5.2l-4.1 2.4 7.3 4.2c4.1 2.4 10 5.8 13.2 7.6 6 3.5 8.2 4 10.6 2.5.9-.6 6.1 1.9 16.7 8 8.4 4.9 16.4 9.4 17.8 10 2.2 1.1 3.9.4 17.3-7.1 8.1-4.6 15.9-9.1 17.4-10.1 1.7-1.2 3-1.5 4-.8 3.1 1.9 3.4 1.8 24.2-10.3l6.9-4-3.8-2.3c-3.2-2-3.8-2.8-3.6-5.2.2-2.6-.5-3.2-10.4-8.8-5.8-3.3-11.1-6-11.7-6-.5 0-1.7 2.1-2.6 4.7-1.6 4.7-1.7 4.9-18.5 14.6l-16.9 9.9-5.6-3.2c-3.1-1.7-10.8-6.2-17.3-9.9l-11.6-6.7L95 164c-.7-2.8-1.7-5-2.3-4.9-.7 0-6.1 2.8-12 6.2z"/><path d="M60.7 178.3l-7.8 4.2.5 3.7c.6 3.5.4 3.7-4.5 6.6l-5.1 2.9 17.4 10c17.2 10 17.3 10 20.7 8.7 1.8-.8 3.6-1.2 4-1.1.3.2 10.1 5.9 21.7 12.5 11.6 6.7 21.9 12.2 22.9 12.2s11.6-5.6 23.6-12.6l21.8-12.5 3.1 1.6 3 1.6 17.6-10.2 17.5-10.1-5.1-3.2c-4.6-2.8-5-3.4-4.8-6.5.3-3.3 0-3.6-6.9-7.7-4-2.4-7.5-3.9-7.8-3.4-.3.4 1.8 2.2 4.6 3.8l5.1 2.9-9.3 5.5c-20.1 11.8-22.6 13-24.9 11.6-1.6-1.1-2.4-1-4.2.1-1.3.8-4.7 2.7-7.6 4.3-2.8 1.6-9.8 5.6-15.5 8.8l-10.2 5.9-4-2.3c-2.2-1.3-5.6-3.3-7.5-4.3-1.9-1.1-8-4.6-13.4-7.7-8.7-5-10.3-5.6-12.3-4.7-2.7 1.2-3.9.7-24.1-11.1l-10.4-6.1 5.1-2.9c2.8-1.6 5.1-3.4 5.1-3.9 0-1.2.6-1.4-8.3 3.4z"/></svg>